# This file uses centimeters as units for non-parametric coordinates.

mtllib grave2.mtl
g default
v -0.485246 4.514172 1.137104
v 0.485246 4.514172 1.137104
v -0.485246 6.170495 1.137104
v 0.485246 6.170495 1.137104
v -0.485246 6.170495 -1.137104
v 0.485246 6.170495 -1.137104
v -0.485246 4.514172 -1.137104
v 0.485246 4.514172 -1.137104
v -0.485246 4.514172 3.196569
v 0.485246 4.514172 3.196569
v 0.485246 6.170495 3.196569
v -0.485246 6.170495 3.196569
v -0.485246 8.220181 1.137104
v 0.485246 8.220181 1.137104
v 0.485246 8.220181 -1.137104
v -0.485246 8.220181 -1.137104
v -0.485246 6.170495 -3.196569
v 0.485246 6.170495 -3.196569
v 0.485246 4.514172 -3.196569
v -0.485246 4.514172 -3.196569
v -0.485246 -0.220181 -1.137104
v 0.485246 -0.220181 -1.137104
v 0.485246 -0.220181 1.137104
v -0.485246 -0.220181 1.137104
v 0.334087 4.806548 -0.844728
v 0.334087 4.806548 0.844728
v 0.334087 5.878119 -0.844728
v 0.334087 5.878119 0.844728
v 0.334087 5.878119 2.904193
v 0.334087 4.806548 2.904193
v 0.334087 7.927805 -0.844728
v 0.334087 7.927805 0.844728
v 0.334087 4.806548 -2.904193
v 0.334087 5.878119 -2.904193
v 0.334087 0.072195 0.844728
v 0.334087 0.072195 -0.844728
v -0.334087 4.806548 -0.844728
v -0.334087 4.806548 0.844728
v -0.334087 5.878119 0.844728
v -0.334087 5.878119 -0.844728
v -0.334087 4.806548 2.904193
v -0.334087 5.878119 2.904193
v -0.334087 7.927805 0.844728
v -0.334087 7.927805 -0.844728
v -0.334087 5.878119 -2.904193
v -0.334087 4.806548 -2.904193
v -0.334087 0.072195 -0.844728
v -0.334087 0.072195 0.844728
v 0.682545 6.052331 1.018939
v 0.508334 5.878119 0.844728
v 0.682545 6.052331 3.078404
v 0.508334 5.878119 2.904193
v 0.682545 4.632336 3.078404
v 0.508334 4.806548 2.904193
v 0.682545 4.632336 1.018939
v 0.508334 4.806548 0.844728
v 0.682545 6.052331 -1.018939
v 0.508334 5.878119 -0.844728
v 0.682545 8.102017 -1.018939
v 0.508334 7.927805 -0.844728
v 0.682545 8.102017 1.018939
v 0.508334 7.927805 0.844728
v 0.682545 4.632336 -1.018939
v 0.508334 4.806548 -0.844728
v 0.682545 4.632336 -3.078404
v 0.508334 4.806548 -2.904193
v 0.682545 6.052331 -3.078404
v 0.508334 5.878119 -2.904193
v 0.682545 -0.102017 1.018939
v 0.508334 0.072195 0.844728
v 0.682545 -0.102017 -1.018939
v 0.508334 0.072195 -0.844728
v -0.682545 4.632336 1.018939
v -0.508334 4.806548 0.844728
v -0.682545 4.632336 3.078404
v -0.508334 4.806548 2.904193
v -0.682545 6.052331 3.078404
v -0.508334 5.878119 2.904193
v -0.682545 6.052331 1.018939
v -0.508334 5.878119 0.844728
v -0.682545 8.102017 1.018939
v -0.508334 7.927805 0.844728
v -0.682545 8.102017 -1.018939
v -0.508334 7.927805 -0.844728
v -0.682545 6.052331 -1.018939
v -0.508334 5.878119 -0.844728
v -0.682545 6.052331 -3.078404
v -0.508334 5.878119 -2.904193
v -0.682545 4.632336 -3.078404
v -0.508334 4.806548 -2.904193
v -0.682545 4.632336 -1.018939
v -0.508334 4.806548 -0.844728
v -0.682545 -0.102017 -1.018939
v -0.508334 0.072195 -0.844728
v -0.682545 -0.102017 1.018939
v -0.508334 0.072195 0.844728
vt 0.375000 0.000000
vt 0.375000 0.250000
vt 0.625000 0.250000
vt 0.375000 0.500000
vt 0.625000 0.500000
vt 0.375000 0.750000
vt 0.625000 0.750000
vt 0.625000 1.000000
vt 0.875000 0.000000
vt 0.875000 0.250000
vt 0.125000 0.000000
vt 0.125000 0.250000
vt 0.375000 0.000000
vt 0.375000 0.250000
vt 0.625000 0.500000
vt 0.375000 0.500000
vt 0.625000 0.750000
vt 0.375000 0.750000
vt 0.625000 0.750000
vt 0.625000 1.000000
vt 0.625000 0.000000
vt 0.375000 0.000000
vt 0.375000 0.000000
vt 0.375000 0.250000
vt 0.375000 0.250000
vt 0.625000 0.500000
vt 0.625000 0.500000
vt 0.625000 0.250000
vt 0.375000 0.250000
vt 0.375000 0.500000
vt 0.375000 0.500000
vt 0.625000 0.750000
vt 0.625000 0.750000
vt 0.625000 0.500000
vt 0.375000 0.500000
vt 0.375000 0.750000
vt 0.625000 1.000000
vt 0.625000 1.000000
vt 0.625000 0.750000
vt 0.375000 1.000000
vt 0.375000 0.250000
vt 0.625000 0.250000
vt 0.625000 0.000000
vt 0.375000 0.250000
vt 0.625000 0.250000
vt 0.375000 0.000000
vt 0.375000 0.500000
vt 0.625000 0.500000
vt 0.375000 1.000000
vt 0.625000 0.750000
vt 0.625000 0.500000
vt 0.375000 0.500000
vt 0.375000 0.750000
vt 0.625000 1.000000
vt 0.625000 0.750000
vt 0.375000 0.750000
vt 0.625000 0.250000
vt 0.625000 0.250000
vt 0.625000 0.000000
vt 0.625000 0.250000
vt 0.625000 0.000000
vt 0.625000 0.000000
vt 0.375000 0.000000
vt 0.375000 0.000000
vt 0.375000 0.000000
vt 0.375000 0.250000
vt 0.375000 0.000000
vt 0.375000 0.250000
vt 0.375000 0.250000
vt 0.625000 0.500000
vt 0.625000 0.500000
vt 0.625000 0.500000
vt 0.625000 0.250000
vt 0.625000 0.500000
vt 0.625000 0.250000
vt 0.625000 0.250000
vt 0.375000 0.250000
vt 0.375000 0.250000
vt 0.375000 0.250000
vt 0.375000 0.500000
vt 0.375000 0.250000
vt 0.375000 0.500000
vt 0.375000 0.500000
vt 0.625000 0.750000
vt 0.625000 0.750000
vt 0.625000 0.750000
vt 0.625000 0.500000
vt 0.625000 0.750000
vt 0.625000 0.500000
vt 0.625000 0.500000
vt 0.375000 0.500000
vt 0.375000 0.500000
vt 0.375000 0.500000
vt 0.375000 0.750000
vt 0.375000 0.500000
vt 0.375000 0.750000
vt 0.375000 0.750000
vt 0.625000 1.000000
vt 0.625000 1.000000
vt 0.625000 1.000000
vt 0.625000 0.750000
vt 0.625000 1.000000
vt 0.625000 0.750000
vt 0.625000 0.750000
vt 0.375000 0.750000
vt 0.375000 0.750000
vt 0.375000 1.000000
vt 0.375000 0.750000
vt 0.375000 1.000000
vt 0.375000 1.000000
vt 0.625000 0.250000
vt 0.625000 0.250000
vt 0.625000 0.000000
vt 0.625000 0.250000
vt 0.625000 0.000000
vt 0.625000 0.000000
vt 0.375000 0.000000
vt 0.375000 0.000000
vt 0.375000 0.250000
vt 0.375000 0.000000
vt 0.375000 0.250000
vt 0.375000 0.250000
vt 0.375000 0.250000
vt 0.625000 0.500000
vt 0.625000 0.500000
vt 0.625000 0.250000
vt 0.625000 0.500000
vt 0.625000 0.250000
vt 0.625000 0.250000
vt 0.625000 0.250000
vt 0.375000 0.250000
vt 0.375000 0.250000
vt 0.375000 0.500000
vt 0.375000 0.250000
vt 0.375000 0.500000
vt 0.375000 0.500000
vt 0.375000 0.500000
vt 0.625000 0.750000
vt 0.625000 0.750000
vt 0.625000 0.500000
vt 0.625000 0.750000
vt 0.625000 0.500000
vt 0.625000 0.500000
vt 0.625000 0.500000
vt 0.375000 0.500000
vt 0.375000 0.500000
vt 0.375000 0.750000
vt 0.375000 0.500000
vt 0.375000 0.750000
vt 0.375000 0.750000
vt 0.375000 0.750000
vt 0.625000 1.000000
vt 0.625000 1.000000
vt 0.625000 0.750000
vt 0.625000 1.000000
vt 0.625000 0.750000
vt 0.625000 0.750000
vt 0.625000 0.750000
vt 0.375000 0.750000
vt 0.375000 0.750000
vt 0.375000 1.000000
vt 0.375000 0.750000
vt 0.375000 1.000000
vt 0.375000 1.000000
vn 0.000000 0.000000 1.000000
vn 0.000000 0.000000 1.000000
vn 0.000000 0.000000 1.000000
vn 0.000000 0.000000 1.000000
vn 0.000000 1.000000 0.000000
vn 0.000000 1.000000 0.000000
vn 0.000000 1.000000 0.000000
vn 0.000000 1.000000 0.000000
vn 0.000000 0.000000 -1.000000
vn 0.000000 0.000000 -1.000000
vn 0.000000 0.000000 -1.000000
vn 0.000000 0.000000 -1.000000
vn 0.000000 -1.000000 0.000000
vn 0.000000 -1.000000 0.000000
vn 0.000000 -1.000000 0.000000
vn 0.000000 -1.000000 0.000000
vn 1.000000 0.000000 0.000000
vn 1.000000 0.000000 0.000000
vn 1.000000 0.000000 0.000000
vn 1.000000 0.000000 0.000000
vn -1.000000 0.000000 0.000000
vn -1.000000 0.000000 0.000000
vn -1.000000 0.000000 0.000000
vn -1.000000 0.000000 0.000000
vn 0.000000 -1.000000 0.000000
vn 0.000000 -1.000000 0.000000
vn 0.000000 -1.000000 0.000000
vn 0.000000 -1.000000 0.000000
vn 1.000000 0.000000 0.000000
vn 1.000000 0.000000 0.000000
vn 0.000000 1.000000 0.000000
vn 0.000000 1.000000 0.000000
vn 0.000000 1.000000 0.000000
vn 0.000000 1.000000 0.000000
vn -1.000000 0.000000 0.000000
vn -1.000000 0.000000 0.000000
vn 0.000000 0.000000 1.000000
vn 0.000000 0.000000 1.000000
vn 0.000000 0.000000 1.000000
vn 0.000000 0.000000 1.000000
vn 1.000000 0.000000 0.000000
vn 1.000000 0.000000 0.000000
vn 0.000000 0.000000 -1.000000
vn 0.000000 0.000000 -1.000000
vn 0.000000 0.000000 -1.000000
vn 0.000000 0.000000 -1.000000
vn -1.000000 0.000000 0.000000
vn -1.000000 0.000000 0.000000
vn 0.000000 1.000000 0.000000
vn 0.000000 1.000000 0.000000
vn 0.000000 1.000000 0.000000
vn 0.000000 1.000000 0.000000
vn 1.000000 0.000000 0.000000
vn 1.000000 0.000000 0.000000
vn 0.000000 -1.000000 0.000000
vn 0.000000 -1.000000 0.000000
vn 0.000000 -1.000000 0.000000
vn 0.000000 -1.000000 0.000000
vn -1.000000 0.000000 0.000000
vn -1.000000 0.000000 0.000000
vn 0.000000 0.000000 -1.000000
vn 0.000000 0.000000 -1.000000
vn 0.000000 0.000000 -1.000000
vn 0.000000 0.000000 -1.000000
vn 1.000000 0.000000 0.000000
vn 1.000000 0.000000 0.000000
vn 0.000000 0.000000 1.000000
vn 0.000000 0.000000 1.000000
vn 0.000000 0.000000 1.000000
vn 0.000000 0.000000 1.000000
vn -1.000000 0.000000 0.000000
vn -1.000000 0.000000 0.000000
vn 0.707105 0.000000 -0.707108
vn 0.707106 0.000000 -0.707108
vn 0.707105 0.000000 -0.707108
vn 0.707105 0.000000 -0.707108
vn 0.707106 -0.707107 0.000000
vn 0.707106 -0.707107 0.000000
vn 0.707106 -0.707107 0.000000
vn 0.707106 -0.707107 0.000000
vn 0.707106 0.000000 -0.707108
vn 0.707106 0.000000 -0.707108
vn 0.707106 0.000000 -0.707108
vn 0.707106 0.000000 -0.707108
vn 0.707108 0.707106 0.000000
vn 0.707108 0.707106 0.000000
vn 0.707108 0.707106 0.000000
vn 0.707108 0.707106 0.000000
vn 0.707106 0.000000 -0.707108
vn 0.707106 0.000000 -0.707108
vn 0.707106 0.000000 -0.707108
vn 0.707106 0.000000 -0.707108
vn 0.707106 -0.707107 0.000000
vn 0.707106 -0.707107 0.000000
vn 0.707106 -0.707107 0.000000
vn 0.707106 -0.707107 0.000000
vn 0.707105 0.000000 0.707108
vn 0.707105 0.000000 0.707108
vn 0.707105 0.000000 0.707108
vn 0.707105 0.000000 0.707108
vn 0.707107 -0.707106 0.000000
vn 0.707107 -0.707106 0.000000
vn 0.707107 -0.707106 0.000000
vn 0.707107 -0.707106 0.000000
vn 0.707105 0.000000 0.707108
vn 0.707105 0.000000 0.707108
vn 0.707106 0.000000 0.707108
vn 0.707106 0.000000 0.707108
vn 0.707108 0.707106 0.000000
vn 0.707108 0.707106 0.000000
vn 0.707108 0.707106 0.000000
vn 0.707108 0.707105 0.000000
vn 0.707106 0.000000 0.707108
vn 0.707106 0.000000 0.707108
vn 0.707106 0.000000 0.707108
vn 0.707106 0.000000 0.707108
vn 0.707107 0.707107 0.000000
vn 0.707107 0.707107 0.000000
vn 0.707107 0.707107 0.000000
vn 0.707107 0.707107 0.000000
vn -0.707106 0.000000 -0.707108
vn -0.707106 0.000000 -0.707108
vn -0.707106 0.000000 -0.707108
vn -0.707106 0.000000 -0.707108
vn -0.707108 0.707105 0.000000
vn -0.707108 0.707105 0.000000
vn -0.707108 0.707105 0.000000
vn -0.707108 0.707105 0.000000
vn -0.707106 0.000000 -0.707108
vn -0.707106 0.000000 -0.707108
vn -0.707106 0.000000 -0.707108
vn -0.707106 0.000000 -0.707108
vn -0.707106 -0.707107 0.000000
vn -0.707106 -0.707107 0.000000
vn -0.707106 -0.707107 0.000000
vn -0.707106 -0.707107 0.000000
vn -0.707106 0.000000 -0.707108
vn -0.707106 0.000000 -0.707108
vn -0.707106 0.000000 -0.707108
vn -0.707106 0.000000 -0.707108
vn -0.707107 -0.707106 0.000000
vn -0.707107 -0.707106 0.000000
vn -0.707107 -0.707106 0.000000
vn -0.707107 -0.707106 0.000000
vn -0.707106 0.000000 0.707108
vn -0.707106 0.000000 0.707108
vn -0.707106 0.000000 0.707108
vn -0.707106 0.000000 0.707108
vn -0.707106 -0.707107 0.000000
vn -0.707106 -0.707107 0.000000
vn -0.707106 -0.707107 0.000000
vn -0.707106 -0.707107 0.000000
vn -0.707106 0.000000 0.707108
vn -0.707106 0.000000 0.707108
vn -0.707106 0.000000 0.707108
vn -0.707106 0.000000 0.707108
vn -0.707108 0.707105 0.000000
vn -0.707108 0.707105 0.000000
vn -0.707108 0.707105 0.000000
vn -0.707108 0.707105 0.000000
vn -0.707106 0.000000 0.707108
vn -0.707106 0.000000 0.707108
vn -0.707106 0.000000 0.707108
vn -0.707106 0.000000 0.707108
vn -0.707107 0.707106 0.000000
vn -0.707107 0.707106 0.000000
vn -0.707107 0.707106 0.000000
vn -0.707107 0.707106 0.000000
vn 0.646311 0.540858 0.538289
vn 0.642397 0.614018 0.458594
vn 0.642397 0.614018 0.458594
vn 0.646311 0.540857 0.538290
vn 0.642396 -0.614018 0.458595
vn 0.642396 -0.614019 0.458594
vn 0.618979 -0.313297 0.720215
vn 0.618979 -0.313296 0.720216
vn 0.646311 0.540858 -0.538289
vn 0.646190 0.553116 -0.525834
vn 0.646190 0.553118 -0.525831
vn 0.646311 0.540857 -0.538290
vn 0.646190 0.553116 0.525834
vn 0.646190 0.553118 0.525831
vn 0.618979 -0.313297 -0.720215
vn 0.642396 -0.614018 -0.458595
vn 0.642396 -0.614019 -0.458594
vn 0.618979 -0.313296 -0.720216
vn 0.642397 0.614018 -0.458594
vn 0.642397 0.614018 -0.458594
vn 0.621474 -0.324694 0.712982
vn 0.621474 -0.324695 0.712982
vn 0.621474 -0.324694 -0.712982
vn 0.621474 -0.324695 -0.712982
vn -0.618979 -0.313297 0.720215
vn -0.642396 -0.614018 0.458595
vn -0.642396 -0.614019 0.458594
vn -0.618979 -0.313296 0.720216
vn -0.642397 0.614018 0.458594
vn -0.642397 0.614018 0.458594
vn -0.646311 0.540858 0.538289
vn -0.646311 0.540857 0.538290
vn -0.646190 0.553116 0.525834
vn -0.646190 0.553118 0.525831
vn -0.646190 0.553116 -0.525834
vn -0.646190 0.553118 -0.525831
vn -0.646311 0.540858 -0.538289
vn -0.646311 0.540857 -0.538290
vn -0.642397 0.614018 -0.458594
vn -0.642397 0.614018 -0.458594
vn -0.642396 -0.614018 -0.458595
vn -0.642396 -0.614019 -0.458594
vn -0.618979 -0.313297 -0.720215
vn -0.618979 -0.313296 -0.720216
vn -0.621474 -0.324694 -0.712982
vn -0.621474 -0.324695 -0.712982
vn -0.621474 -0.324694 0.712982
vn -0.621474 -0.324695 0.712982
vn 0.000000 -1.000000 0.000000
vn 0.000000 -1.000000 0.000000
vn 0.000000 -1.000000 0.000000
vn 0.000000 -1.000000 0.000000
vn 0.000000 0.000000 -1.000000
vn 0.000000 0.000000 -1.000000
vn 0.000000 0.000000 -1.000000
vn 0.000000 0.000000 -1.000000
vn 0.000000 1.000000 0.000000
vn 0.000000 1.000000 0.000000
vn 0.000000 1.000000 0.000000
vn 0.000000 1.000000 0.000000
vn 0.000000 0.000000 1.000000
vn 0.000000 0.000000 1.000000
vn 0.000000 0.000000 1.000000
vn 0.000000 0.000000 1.000000
vn 0.000000 -1.000000 0.000000
vn 0.000000 -1.000000 0.000000
vn 0.000000 -1.000000 0.000000
vn 0.000000 -1.000000 0.000000
vn 0.000000 0.000000 -1.000000
vn 0.000000 0.000000 -1.000000
vn 0.000000 0.000000 -1.000000
vn 0.000000 0.000000 -1.000000
vn 0.000000 1.000000 0.000000
vn 0.000000 1.000000 0.000000
vn 0.000000 1.000000 0.000000
vn 0.000000 1.000000 0.000000
vn 0.000000 0.000000 1.000000
vn 0.000000 0.000000 1.000000
vn 0.000000 0.000000 1.000000
vn 0.000000 0.000000 1.000000
vn 0.000000 -1.000000 0.000000
vn 0.000000 -1.000000 0.000000
vn 0.000000 -1.000000 0.000000
vn 0.000000 -1.000000 0.000000
vn 0.000000 0.000000 -1.000000
vn 0.000000 0.000000 -1.000000
vn 0.000000 0.000000 -1.000000
vn 0.000000 0.000000 -1.000000
vn 0.000000 1.000000 0.000000
vn 0.000000 1.000000 0.000000
vn 0.000000 1.000000 0.000000
vn 0.000000 1.000000 0.000000
vn 0.000000 0.000000 1.000000
vn 0.000000 0.000000 1.000000
vn 0.000000 0.000000 1.000000
vn 0.000000 0.000000 1.000000
vn 0.000000 1.000000 0.000000
vn 0.000000 1.000000 0.000000
vn 0.000000 1.000000 0.000000
vn 0.000000 1.000000 0.000000
vn 0.000000 0.000000 -1.000000
vn 0.000000 0.000000 -1.000000
vn 0.000000 0.000000 -1.000000
vn 0.000000 0.000000 -1.000000
vn 0.000000 -1.000000 0.000000
vn 0.000000 -1.000000 0.000000
vn 0.000000 -1.000000 0.000000
vn 0.000000 -1.000000 0.000000
vn 0.000000 0.000000 -1.000000
vn 0.000000 0.000000 -1.000000
vn 0.000000 0.000000 -1.000000
vn 0.000000 0.000000 -1.000000
vn 0.000000 -1.000000 0.000000
vn 0.000000 -1.000000 0.000000
vn 0.000000 -1.000000 0.000000
vn 0.000000 -1.000000 0.000000
vn 0.000000 0.000000 1.000000
vn 0.000000 0.000000 1.000000
vn 0.000000 0.000000 1.000000
vn 0.000000 0.000000 1.000000
vn 0.000000 -1.000000 0.000000
vn 0.000000 -1.000000 0.000000
vn 0.000000 -1.000000 0.000000
vn 0.000000 -1.000000 0.000000
vn 0.000000 0.000000 1.000000
vn 0.000000 0.000000 1.000000
vn 0.000000 0.000000 1.000000
vn 0.000000 0.000000 1.000000
vn 0.000000 1.000000 0.000000
vn 0.000000 1.000000 0.000000
vn 0.000000 1.000000 0.000000
vn 0.000000 1.000000 0.000000
vn 0.000000 0.000000 1.000000
vn 0.000000 0.000000 1.000000
vn 0.000000 0.000000 1.000000
vn 0.000000 0.000000 1.000000
vn 0.000000 1.000000 0.000000
vn 0.000000 1.000000 0.000000
vn 0.000000 1.000000 0.000000
vn 0.000000 1.000000 0.000000
vn 0.000000 0.000000 -1.000000
vn 0.000000 0.000000 -1.000000
vn 0.000000 0.000000 -1.000000
vn 0.000000 0.000000 -1.000000
s off
g cross_grave
usemtl initialShadingGroup
f 9/13/1 10/59/2 11/57/3 12/2/4
f 13/14/5 14/3/6 15/15/7 16/4/8
f 17/16/9 18/5/10 19/17/11 20/18/12
f 21/105/13 22/19/14 23/20/15 24/107/16
s 1
f 26/21/17 25/9/18 27/10/19 28/112/20
s 2
f 37/11/21 38/22/22 39/25/23 40/12/24
s off
f 1/1/25 2/61/26 10/59/27 9/13/28
s 1
f 26/21/17 28/112/20 29/114/29 30/116/30
s off
f 4/3/31 3/2/32 12/2/33 11/57/34
s 2
f 39/25/23 38/22/22 41/23/35 42/24/36
s off
f 3/2/37 4/3/38 14/3/39 13/14/40
s 1
f 28/112/20 27/26/19 31/27/41 32/28/42
s off
f 6/5/43 5/4/44 16/4/45 15/15/46
s 2
f 40/31/24 39/25/23 43/29/47 44/30/48
s off
f 5/4/49 6/5/50 18/5/51 17/16/52
s 1
f 27/26/19 25/32/18 33/33/53 34/34/54
s off
f 8/7/55 7/6/56 20/18/57 19/17/58
s 2
f 37/160/21 40/31/24 45/35/59 46/36/60
s off
f 7/6/61 8/7/62 22/19/63 21/105/64
s 1
f 25/32/18 26/37/17 35/38/65 36/39/66
s off
f 2/8/67 1/109/68 24/107/69 23/20/70
s 2
f 38/40/22 37/160/21 47/162/71 48/164/72
s off
f 49/41/73 50/121/74 62/119/75 61/69/76
f 50/42/77 49/58/78 51/60/79 52/111/80
f 52/111/81 51/60/82 53/62/83 54/113/84
f 54/113/85 53/62/86 55/43/87 56/115/88
f 56/44/89 55/79/90 69/81/91 70/131/92
f 57/45/93 58/128/94 68/126/95 67/76/96
f 58/46/97 57/65/98 59/67/99 60/117/100
f 60/117/101 59/67/102 61/69/103 62/119/104
f 63/47/105 64/135/106 72/133/107 71/83/108
f 64/48/109 63/72/110 65/74/111 66/124/112
f 66/124/113 65/74/114 67/76/115 68/126/116
f 70/131/117 69/81/118 71/83/119 72/133/120
f 73/49/121 74/163/122 96/161/123 95/110/124
f 74/50/125 73/86/126 75/88/127 76/138/128
f 76/138/129 75/88/130 77/90/131 78/140/132
f 78/140/133 77/90/134 79/51/135 80/142/136
f 80/52/137 79/93/138 81/95/139 82/145/140
f 82/145/141 81/95/142 83/97/143 84/147/144
f 84/147/145 83/97/146 85/53/147 86/149/148
f 86/54/149 85/100/150 87/102/151 88/152/152
f 88/152/153 87/102/154 89/104/155 90/154/156
f 90/154/157 89/104/158 91/55/159 92/156/160
f 92/56/161 91/106/162 93/108/163 94/159/164
f 94/159/165 93/108/166 95/110/167 96/161/168
s 3
f 4/3/169 11/57/170 51/60/171 49/58/172
f 11/57/170 10/59/173 53/62/174 51/60/171
f 10/59/173 2/61/175 55/43/176 53/62/174
f 6/63/177 15/64/178 59/67/179 57/65/180
f 15/64/178 14/66/181 61/69/182 59/67/179
f 14/66/181 4/68/169 49/41/172 61/69/182
f 8/70/183 19/71/184 65/74/185 63/72/186
f 19/71/184 18/73/187 67/76/188 65/74/185
f 18/73/187 6/75/177 57/45/180 67/76/188
f 2/77/175 23/78/189 69/81/190 55/79/176
f 23/78/189 22/80/191 71/83/192 69/81/190
f 22/80/191 8/82/183 63/47/186 71/83/192
s 6
f 1/84/193 9/85/194 75/88/195 73/86/196
f 9/85/194 12/87/197 77/90/198 75/88/195
f 12/87/197 3/89/199 79/51/200 77/90/198
f 3/91/199 13/92/201 81/95/202 79/93/200
f 13/92/201 16/94/203 83/97/204 81/95/202
f 16/94/203 5/96/205 85/53/206 83/97/204
f 5/98/205 17/99/207 87/102/208 85/100/206
f 17/99/207 20/101/209 89/104/210 87/102/208
f 20/101/209 7/103/211 91/55/212 89/104/210
f 7/6/211 21/105/213 93/108/214 91/106/212
f 21/105/213 24/107/215 95/110/216 93/108/214
f 24/107/215 1/109/193 73/49/196 95/110/216
s off
f 50/42/217 52/111/218 29/114/219 28/112/220
f 52/111/221 54/113/222 30/116/223 29/114/224
f 54/113/225 56/115/226 26/21/227 30/116/228
f 58/46/229 60/117/230 31/120/231 27/118/232
f 60/117/233 62/119/234 32/123/235 31/120/236
f 62/119/237 50/121/238 28/122/239 32/123/240
f 64/48/241 66/124/242 33/127/243 25/125/244
f 66/124/245 68/126/246 34/130/247 33/127/248
f 68/126/249 58/128/250 27/129/251 34/130/252
f 56/44/253 70/131/254 35/134/255 26/132/256
f 70/131/257 72/133/258 36/137/259 35/134/260
f 72/133/261 64/135/262 25/136/263 36/137/264
f 74/50/265 76/138/266 41/141/267 38/139/268
f 76/138/269 78/140/270 42/144/271 41/141/272
f 78/140/273 80/142/274 39/143/275 42/144/276
f 80/52/277 82/145/278 43/148/279 39/146/280
f 82/145/281 84/147/282 44/151/283 43/148/284
f 84/147/285 86/149/286 40/150/287 44/151/288
f 86/54/289 88/152/290 45/155/291 40/153/292
f 88/152/293 90/154/294 46/158/295 45/155/296
f 90/154/297 92/156/298 37/157/299 46/158/300
f 92/56/301 94/159/302 47/162/303 37/160/304
f 94/159/305 96/161/306 48/164/307 47/162/308
f 96/161/309 74/163/310 38/40/311 48/164/312
