# This file uses centimeters as units for non-parametric coordinates.

mtllib grave4.mtl
g default
v -0.641673 0.223318 2.191822
v 0.641673 0.223318 2.191822
v -0.641673 0.223318 -2.191820
v 0.641673 0.223318 -2.191820
v 0.641673 0.223318 0.000000
v -0.641673 0.223318 0.000000
v -0.641673 8.002670 1.071821
v -0.641673 7.463943 1.827028
v 0.641673 8.002670 1.071821
v 0.641673 7.463943 1.827028
v -0.641673 8.002670 -1.071820
v -0.641673 7.463943 -1.827026
v 0.641673 8.002670 -1.071820
v 0.641673 7.463943 -1.827026
v -0.641673 8.480749 0.321775
v -0.641673 8.480749 -0.321775
v 0.641673 8.480749 -0.321775
v 0.641673 8.480749 0.321775
v -0.641673 8.480749 0.000000
v 0.641673 8.480749 0.000000
v -0.641673 0.000002 2.340699
v 0.641673 0.000002 2.340699
v 0.641673 7.546584 2.054353
v -0.641673 7.546584 2.054353
v -0.641673 8.767106 -0.359026
v 0.641673 8.767106 -0.359026
v 0.641673 8.222790 -1.189810
v -0.641673 8.222790 -1.189810
v -0.641673 7.546584 -2.054352
v 0.641673 7.546584 -2.054352
v 0.641673 0.000002 -2.340699
v -0.641673 0.000002 -2.340699
v 0.641673 0.000000 0.000000
v -0.641673 0.000000 0.000000
v -0.641673 8.222790 1.189811
v 0.641673 8.222790 1.189811
v 0.641673 8.767106 0.359026
v -0.641673 8.767106 0.359026
v -0.641673 8.778505 0.000000
v 0.641673 8.778505 0.000000
v -0.504425 8.002670 -1.071820
v -0.504425 8.002670 0.000000
v -0.504425 8.192322 0.000000
v -0.504425 8.480749 -0.321775
v -0.504425 8.480749 0.321775
v -0.504425 8.002670 1.071821
v -0.504425 8.480749 0.000000
v -0.504425 0.223318 -2.191820
v -0.504425 0.223318 0.000000
v -0.504425 7.181645 0.000000
v -0.504425 7.463943 -1.827026
v -0.504425 7.463943 1.827028
v -0.504425 0.223318 2.191822
v 0.504425 8.002670 1.071821
v 0.504425 8.002672 0.000000
v 0.504425 8.192322 0.000000
v 0.504425 8.480749 0.321775
v 0.504425 8.480749 -0.321775
v 0.504425 8.002670 -1.071820
v 0.504425 8.480749 0.000000
v 0.504425 0.223318 0.000000
v 0.504425 0.223318 2.191822
v 0.504425 7.181645 0.000000
v 0.504425 7.463943 1.827028
v 0.504425 7.463943 -1.827026
v 0.504425 0.223318 -2.191820
v -0.641673 3.051920 1.649349
v -0.641673 6.058903 2.689014
v -0.641673 6.058743 2.984602
v -0.641673 3.052076 1.785565
v 0.641673 6.058900 2.984605
v 0.641673 3.051918 1.785562
v 0.641673 6.058903 2.689014
v 0.641673 3.051920 1.649349
v 0.504425 6.058903 2.689014
v 0.504425 3.051920 1.649349
v 0.504425 6.058903 -0.000000
v 0.504425 3.051920 0.000000
v 0.504425 6.058903 -2.689011
v 0.504425 3.051920 -1.649347
v 0.641673 6.058903 -2.689011
v 0.641673 3.051920 -1.649347
v 0.641673 6.058743 -2.984600
v 0.641673 3.052076 -1.785564
v -0.641673 6.058900 -2.984605
v -0.641673 3.051918 -1.785563
v -0.641673 6.058903 -2.689011
v -0.641673 3.051920 -1.649347
v -0.504425 6.058903 -2.689011
v -0.504425 3.051920 -1.649347
v -0.504425 6.058903 -0.000000
v -0.504425 3.051920 0.000000
v -0.504425 6.058903 2.689014
v -0.504425 3.051920 1.649349
vt 0.625000 0.750000
vt 0.375000 1.000000
vt 0.625000 1.000000
vt 0.625000 0.875000
vt 0.375000 0.875000
vt 0.125000 0.000000
vt 0.250000 0.000000
vt 0.250000 0.233323
vt 0.221854 0.250000
vt 0.156247 0.250000
vt 0.125000 0.227135
vt 0.278146 0.250000
vt 0.343753 0.250000
vt 0.778146 0.250000
vt 0.875000 0.000000
vt 0.875000 0.227135
vt 0.843753 0.250000
vt 0.750000 0.000000
vt 0.750000 0.233323
vt 0.721854 0.250000
vt 0.656247 0.250000
vt 0.625000 0.227135
vt 0.375000 0.522865
vt 0.625000 0.468753
vt 0.375000 0.281247
vt 0.625000 0.281247
vt 0.375000 0.468753
vt 0.375000 0.403146
vt 0.625000 0.346854
vt 0.375000 0.393941
vt 0.375000 0.346854
vt 0.625000 0.393941
vt 0.625000 0.403146
vt 0.750000 0.226914
vt 0.250000 0.226914
vt 0.375000 0.375000
vt 0.625000 0.375000
vt 0.625000 0.403146
vt 0.625000 0.468753
vt 0.375000 0.468753
vt 0.375000 0.403146
vt 0.625000 0.875000
vt 0.375000 0.875000
vt 0.625000 0.281247
vt 0.625000 0.346854
vt 0.375000 0.346854
vt 0.375000 0.281247
vt 0.625000 1.000000
vt 0.375000 1.000000
vt 0.375000 0.375000
vt 0.625000 0.375000
vt 0.221854 0.250000
vt 0.156247 0.250000
vt 0.721854 0.250000
vt 0.656247 0.250000
vt 0.343753 0.250000
vt 0.278146 0.250000
vt 0.843753 0.250000
vt 0.778146 0.250000
vt 0.375000 0.346854
vt 0.375000 0.375000
vt 0.625000 0.403146
vt 0.625000 0.375000
vt 0.875000 0.227135
vt 0.375000 0.227135
vt 0.375000 0.403146
vt 0.625000 0.346854
vt 0.656247 0.250000
vt 0.721854 0.250000
vt 0.278146 0.250000
vt 0.343753 0.250000
vt 0.778146 0.250000
vt 0.843753 0.250000
vt 0.625000 0.403146
vt 0.625000 0.375000
vt 0.625000 0.375000
vt 0.625000 0.403146
vt 0.625000 0.227135
vt 0.625000 0.000000
vt 0.625000 0.000000
vt 0.625000 0.227135
vt 0.875000 0.000000
vt 0.875000 0.000000
vt 0.875000 0.227135
vt 0.875000 0.000000
vt 0.656247 0.250000
vt 0.625000 0.227135
vt 0.625000 0.227135
vt 0.656247 0.250000
vt 0.875000 0.227135
vt 0.843753 0.250000
vt 0.843753 0.250000
vt 0.875000 0.227135
vt 0.250000 0.000000
vt 0.125000 0.000000
vt 0.125000 0.000000
vt 0.125000 0.000000
vt 0.125000 0.227135
vt 0.375000 0.000000
vt 0.375000 0.227135
vt 0.375000 0.227135
vt 0.375000 0.000000
vt 0.375000 0.227135
vt 0.343753 0.250000
vt 0.343753 0.250000
vt 0.375000 0.227135
vt 0.375000 0.375000
vt 0.375000 0.403146
vt 0.375000 0.403146
vt 0.375000 0.375000
vt 0.656253 0.000000
vt 0.718363 0.000000
vt 0.375000 0.169650
vt 0.625000 0.056790
vt 0.281637 0.000000
vt 0.343747 0.000000
vt 0.625000 0.169648
vt 0.875000 0.056789
vt 0.132909 0.232922
vt 0.148434 0.244283
vt 0.625000 0.580350
vt 0.375000 0.693210
vt 0.375000 0.353978
vt 0.375000 0.367963
vt 0.125000 0.169648
vt 0.375000 0.056789
vt 0.625000 0.168851
vt 0.375000 0.227135
vt 0.625000 0.522865
vt 0.375000 0.581149
vt 0.750000 0.148761
vt 0.625000 0.227135
vt 0.750000 0.199170
vt 0.875000 0.169648
vt 0.250000 0.148761
vt 0.125000 0.227135
vt 0.250000 0.199170
vt 0.375000 0.169649
vt 0.625000 0.169648
vt 0.625000 0.227135
vt 0.375000 0.227135
vt 0.375000 0.168848
vt 0.625000 0.522865
vt 0.625000 0.581152
vt 0.375000 0.580352
vt 0.375000 0.522865
vt 0.375000 0.346854
vt 0.375000 0.353978
vt 0.375000 0.346854
vt 0.718363 0.000000
vt 0.750000 0.000000
vt 0.250000 0.000000
vt 0.281637 0.000000
vt 0.250000 0.000000
vt 0.132908 0.232922
vt 0.125000 0.227135
vt 0.125000 0.227135
vt 0.375000 0.056790
vt 0.375000 0.000000
vt 0.375000 0.000000
vt 0.625000 0.000000
vt 0.375000 0.058949
vt 0.625000 0.000000
vt 0.625000 0.058946
vt 0.343747 0.000000
vt 0.375000 0.000000
vt 0.375000 0.000000
vt 0.625000 0.000000
vt 0.750000 0.000000
vt 0.625000 0.056789
vt 0.750000 0.049798
vt 0.875000 0.000000
vt 0.156247 0.250000
vt 0.148434 0.244283
vt 0.156247 0.250000
vt 0.625000 0.693210
vt 0.625000 0.750000
vt 0.625000 0.691051
vt 0.375000 0.750000
vt 0.375000 0.750000
vt 0.375000 0.691054
vt 0.375000 0.367963
vt 0.375000 0.375000
vt 0.375000 0.375000
vt 0.125000 0.000000
vt 0.250000 0.000000
vt 0.125000 0.056789
vt 0.250000 0.049798
vt 0.375000 0.000000
vt 0.625000 0.000000
vt 0.656253 0.000000
vt 0.625000 0.000000
vn 0.000000 0.906046 -0.423180
vn 0.000000 0.906046 -0.423180
vn 0.000000 0.836457 -0.548032
vn 0.000000 0.836457 -0.548032
vn 0.000000 -1.000000 -0.000001
vn 0.000000 -1.000000 -0.000001
vn 0.000000 -1.000000 0.000000
vn 0.000000 -1.000000 0.000000
vn -1.000000 -0.000000 0.000000
vn -1.000000 0.000000 0.000000
vn -1.000000 0.000000 0.000000
vn -1.000000 0.000000 0.000000
vn 0.000000 0.836457 0.548032
vn 0.000000 0.836457 0.548032
vn 0.000000 0.906046 0.423180
vn 0.000000 0.906046 0.423180
vn 1.000000 -0.000000 0.000000
vn 1.000000 0.000000 0.000000
vn 1.000000 0.000000 0.000000
vn 1.000000 0.000000 0.000000
vn 0.000000 -1.000000 0.000001
vn 0.000000 -1.000000 0.000001
vn -1.000000 -0.000000 0.000000
vn -1.000000 0.000000 0.000000
vn 1.000000 0.000000 0.000000
vn 1.000000 -0.000000 0.000000
vn 0.000000 0.787678 0.616087
vn 0.000000 0.787678 0.616087
vn 0.000000 0.787678 0.616087
vn 0.000000 0.787678 0.616087
vn 0.000000 0.787678 -0.616087
vn 0.000000 0.787678 -0.616087
vn 0.000000 0.787678 -0.616087
vn 0.000000 0.787678 -0.616087
vn 0.000000 1.000000 0.000000
vn 0.000000 1.000000 0.000000
vn -1.000000 0.000000 0.000000
vn 1.000000 0.000000 0.000000
vn 1.000000 -0.000000 0.000000
vn 1.000000 -0.000000 0.000000
vn 1.000000 -0.000000 0.000000
vn -1.000000 -0.000000 0.000000
vn -1.000000 -0.000000 0.000000
vn -1.000000 -0.000000 0.000000
vn 1.000000 -0.000000 0.000000
vn 1.000000 -0.000000 0.000000
vn 1.000000 -0.000000 0.000000
vn 1.000000 -0.000000 0.000000
vn -1.000000 -0.000000 0.000000
vn -1.000000 -0.000000 0.000000
vn -1.000000 -0.000000 0.000000
vn -1.000000 -0.000000 0.000000
vn 1.000000 -0.000000 0.000000
vn 1.000000 -0.000000 0.000000
vn 1.000000 -0.000000 0.000000
vn 1.000000 -0.000000 0.000000
vn -1.000000 0.000000 0.000000
vn -1.000000 0.000000 0.000000
vn -1.000000 0.000000 0.000000
vn -1.000000 0.000000 0.000000
vn 1.000000 -0.000000 0.000000
vn 1.000000 -0.000000 0.000000
vn 1.000000 -0.000000 0.000000
vn 1.000000 -0.000000 0.000000
vn -1.000000 -0.000000 0.000000
vn -1.000000 -0.000000 0.000000
vn -1.000000 -0.000000 0.000000
vn -1.000000 -0.000000 0.000000
vn 1.000000 0.000000 0.000000
vn 1.000000 0.000000 0.000000
vn -1.000000 0.000000 0.000000
vn -1.000000 0.000000 0.000000
vn -1.000000 -0.000000 0.000000
vn -1.000000 -0.000000 0.000000
vn 1.000000 -0.000000 0.000000
vn 1.000000 -0.000000 0.000000
vn -1.000000 0.000000 0.000000
vn -1.000000 0.000000 0.000000
vn 1.000000 -0.000000 0.000000
vn 1.000000 -0.000000 0.000000
vn -1.000000 0.000000 0.000000
vn -1.000000 0.000000 0.000000
vn 1.000000 0.000000 0.000000
vn 1.000000 0.000000 0.000000
vn 0.000000 -0.913269 0.407358
vn 0.000000 -0.843265 0.537498
vn 0.000000 -0.843265 0.537498
vn 0.000000 -0.913269 0.407358
vn 0.000000 -0.843265 -0.537498
vn 0.000000 -0.913269 -0.407358
vn 0.000000 -0.913269 -0.407358
vn 0.000000 -0.843265 -0.537498
vn 0.000000 -1.000000 0.000000
vn 0.000000 -1.000000 0.000000
vn 0.000000 1.000000 0.000000
vn 0.000000 1.000000 0.000000
vn 0.000000 1.000000 0.000000
vn 0.000000 1.000000 0.000000
vn 0.000000 1.000000 0.000000
vn 0.000000 1.000000 0.000000
vn 0.000000 -0.814093 0.580734
vn 0.000000 -0.814093 0.580734
vn 0.000000 -0.814093 0.580734
vn 0.000000 -0.814093 0.580734
vn 0.000000 -0.814094 -0.580734
vn 0.000000 -0.814094 -0.580734
vn 0.000000 -0.814094 -0.580734
vn 0.000000 -0.814094 -0.580734
vn 0.000000 -0.913269 -0.407358
vn 0.000000 -0.843265 -0.537498
vn 0.000000 -0.843265 -0.537498
vn 0.000000 -0.913269 -0.407358
vn 0.000000 -0.843265 0.537498
vn 0.000000 -0.913269 0.407358
vn 0.000000 -0.913269 0.407358
vn 0.000000 -0.843265 0.537498
vn 0.000000 -1.000000 0.000000
vn 0.000000 -1.000000 0.000000
vn 0.000000 1.000000 0.000000
vn 0.000000 1.000000 0.000000
vn 0.000000 1.000000 0.000000
vn 0.000000 1.000000 0.000000
vn 0.000000 1.000000 0.000000
vn 0.000000 1.000000 0.000000
vn 0.000000 -0.814093 -0.580734
vn 0.000000 -0.814093 -0.580734
vn 0.000000 -0.814093 -0.580734
vn 0.000000 -0.814093 -0.580734
vn 0.000000 -0.814093 0.580734
vn 0.000000 -0.814093 0.580734
vn 0.000000 -0.814093 0.580734
vn 0.000000 -0.814093 0.580734
vn 0.000000 0.084892 -0.996390
vn 0.000000 0.040239 -0.999190
vn 0.000000 0.040239 -0.999190
vn 0.000000 0.084892 -0.996390
vn -1.000000 -0.000000 0.000000
vn -1.000000 0.000000 0.000000
vn -1.000000 0.000000 0.000000
vn -1.000000 0.000000 0.000000
vn -0.000013 -0.059728 0.998215
vn 0.000006 -0.105702 0.994398
vn 0.000006 -0.105659 0.994402
vn -0.000013 -0.059665 0.998218
vn 1.000000 0.000000 0.000000
vn 1.000000 0.000000 0.000000
vn 1.000000 0.000000 0.000000
vn 1.000000 0.000000 0.000000
vn 0.000000 0.040239 -0.999190
vn 0.000000 0.084892 -0.996390
vn 0.000000 0.084892 -0.996390
vn 0.000000 0.040239 -0.999190
vn 1.000000 -0.000000 0.000000
vn 1.000000 0.000000 0.000000
vn 1.000000 0.000000 0.000000
vn 1.000000 -0.000000 0.000000
vn 1.000000 0.000000 0.000000
vn 1.000000 -0.000000 0.000000
vn 0.000000 0.040239 0.999190
vn 0.000000 0.084892 0.996390
vn 0.000000 0.084892 0.996390
vn 0.000000 0.040239 0.999190
vn 1.000000 -0.000000 0.000000
vn 1.000000 -0.000000 0.000000
vn 1.000000 -0.000000 0.000000
vn 1.000000 -0.000000 0.000000
vn 0.000014 -0.059727 -0.998215
vn -0.000005 -0.105702 -0.994398
vn -0.000005 -0.105659 -0.994403
vn 0.000014 -0.059665 -0.998219
vn -1.000000 0.000000 0.000000
vn -1.000000 0.000000 0.000000
vn -1.000000 0.000000 0.000000
vn -1.000000 0.000000 0.000000
vn 0.000000 0.040239 0.999190
vn 0.000000 0.084892 0.996390
vn 0.000000 0.084892 0.996390
vn 0.000000 0.040239 0.999190
vn -1.000000 0.000000 0.000000
vn -1.000000 0.000000 0.000000
vn -1.000000 0.000000 0.000000
vn -1.000000 0.000000 0.000000
vn -1.000000 0.000000 0.000000
vn -1.000000 0.000000 0.000000
vn -0.000033 0.530163 0.847896
vn -0.000033 0.530163 0.847896
vn 0.000034 0.530163 -0.847896
vn 0.000034 0.530163 -0.847896
vn 0.000000 -0.522929 0.852377
vn 0.000000 -0.522929 0.852377
vn 0.000000 -0.522929 -0.852376
vn 0.000000 -0.522929 -0.852376
vn 0.000000 -0.522929 -0.852376
vn 0.000000 -0.522929 -0.852376
vn 0.000000 -0.522929 0.852376
vn 0.000000 -0.522929 0.852376
vn 0.000012 0.178956 0.983857
vn 0.000012 0.178956 0.983857
vn 0.000000 -0.188349 -0.982102
vn 0.000000 -0.188349 -0.982102
vn 1.000000 0.000000 0.000000
vn 1.000000 0.000000 0.000000
vn 1.000000 0.000000 0.000000
vn 0.000000 -0.188349 0.982102
vn 0.000000 -0.188349 0.982102
vn -0.000011 0.178957 -0.983857
vn -0.000011 0.178957 -0.983857
vn 0.000000 -0.188349 0.982102
vn 0.000000 -0.188349 0.982102
vn -1.000000 -0.000000 0.000000
vn -1.000000 -0.000000 0.000000
vn -1.000000 -0.000000 0.000000
vn 0.000000 -0.188349 -0.982102
vn 0.000000 -0.188349 -0.982102
s 1
g grave3
usemtl initialShadingGroup
f 25/41/1 26/38/2 27/39/3 28/40/4
s 2
f 32/179/5 31/177/6 33/42/7 34/43/8
s 3
f 41/53/9 42/35/10 43/8/11 44/52/12
s 1
f 35/47/13 36/44/14 37/45/15 38/46/16
s 5
f 54/55/17 55/34/18 56/19/19 57/54/20
s 2
f 34/43/8 33/42/7 22/48/21 21/49/22
s 3
f 45/57/23 43/8/11 42/35/10 46/56/24
s 5
f 58/59/25 56/19/19 55/34/18 59/58/26
s off
f 35/47/27 24/128/28 23/140/29 36/44/30
f 29/146/31 28/40/32 27/39/33 30/129/34
s 1
f 25/41/1 39/50/35 40/51/36 26/38/2
s 3
f 43/30/11 45/60/23 47/61/37
s 5
f 56/32/19 58/62/25 60/63/38
f 64/132/39 63/133/40 55/34/18 54/55/17
f 59/58/26 55/34/18 63/133/40 65/64/41
s 3
f 51/136/42 50/137/43 42/35/10 41/53/9
f 46/56/24 42/35/10 50/137/43 52/65/44
s 1
f 40/51/36 39/50/35 38/46/16 37/45/15
s 3
f 43/30/11 47/61/37 44/66/12
s 5
f 56/32/19 60/63/38 57/67/20
s 6
f 17/33/45 13/24/46 27/39/47 26/38/48
s 7
f 11/27/49 16/28/50 25/41/51 28/40/52
s 6
f 4/1/53 5/4/54 33/42/55 31/177/56
s 7
f 6/5/57 3/180/58 32/179/59 34/43/60
s 6
f 9/26/61 18/29/62 37/45/63 36/44/64
s 7
f 15/31/65 7/25/66 35/47/67 38/46/68
s 6
f 5/4/54 2/3/69 22/48/70 33/42/55
s 7
f 1/2/71 6/5/57 34/43/60 21/49/72
f 7/25/66 8/141/73 24/128/74 35/47/67
s 6
f 10/22/75 9/26/61 36/44/64 23/140/76
s 7
f 12/23/77 11/27/49 28/40/52 29/146/78
s 6
f 13/24/46 14/143/79 30/129/80 27/39/47
s 7
f 16/28/50 19/36/81 39/50/82 25/41/51
s 6
f 20/37/83 17/33/45 26/38/48 40/51/84
s 7
f 19/36/81 15/31/65 38/46/68 39/50/82
s 6
f 18/29/62 20/37/83 40/51/84 37/45/63
s 12
f 16/9/85 11/10/86 41/53/87 44/52/88
f 7/20/89 15/21/90 45/68/91 46/69/92
f 15/13/90 19/12/93 47/70/94 45/71/91
s 14
f 3/17/95 6/14/96 49/72/97 48/73/98
f 6/74/96 1/75/99 53/76/100 49/77/97
s off
f 11/78/101 12/79/102 51/80/103 41/81/104
f 8/18/105 7/15/106 46/82/107 52/151/108
s 12
f 19/83/93 16/16/85 44/84/88 47/85/94
s 15
f 18/86/109 9/87/110 54/88/111 57/89/112
f 13/90/113 17/91/114 58/92/115 59/93/116
f 17/6/114 20/7/117 60/94/118 58/95/115
s 17
f 2/11/119 5/96/120 61/97/121 62/98/122
f 5/99/120 4/100/123 66/101/124 61/102/121
s off
f 9/103/125 10/104/126 64/105/127 54/106/128
f 14/107/129 13/108/130 59/109/131 65/110/132
s 15
f 20/37/117 18/29/109 57/67/112 60/63/118
s 18
f 67/111/133 68/150/134 93/112/135 94/191/136
s 7
f 68/113/137 67/158/138 70/162/139 69/142/140
s 19
f 69/142/141 70/162/142 72/164/143 71/127/144
s 6
f 71/127/145 72/164/146 74/114/147 73/139/148
s 20
f 73/115/149 74/165/150 76/116/151 75/153/152
s 5
f 75/117/153 76/170/154 78/171/155 77/131/156
f 77/131/156 78/171/155 80/118/157 79/134/158
s 22
f 79/119/159 80/174/160 82/120/161 81/155/162
s 6
f 81/121/163 82/176/164 84/178/165 83/144/166
s 23
f 83/144/167 84/178/168 86/181/169 85/130/170
s 7
f 85/130/171 86/181/172 88/122/173 87/145/174
s 24
f 87/123/175 88/182/176 90/124/177 89/148/178
s 3
f 89/125/179 90/187/180 92/188/181 91/135/182
f 91/135/182 92/188/181 94/126/183 93/138/184
s 19
f 69/142/141 71/127/144 23/140/185 24/128/186
s 23
f 29/146/187 30/129/188 83/144/167 85/130/170
s 5
f 75/117/153 77/131/156 63/133/40 64/132/39
f 65/64/41 63/133/40 77/131/156 79/134/158
s 3
f 89/125/179 91/135/182 50/137/43 51/136/42
f 52/65/44 50/137/43 91/135/182 93/138/184
s 6
f 71/127/145 73/139/148 10/22/75 23/140/76
s 7
f 8/141/73 68/113/137 69/142/140 24/128/74
s 6
f 14/143/79 81/121/163 83/144/166 30/129/80
s 7
f 85/130/171 87/145/174 12/23/77 29/146/78
s 24
f 12/147/189 87/123/175 89/148/178 51/149/190
s 18
f 93/112/135 68/150/134 8/18/191 52/151/192
s 20
f 10/152/193 73/115/149 75/153/152 64/154/194
s 22
f 79/119/159 81/155/162 14/156/195 65/157/196
s 7
f 70/162/139 67/158/138 1/159/71 21/160/72
s 19
f 21/160/197 22/161/198 72/164/143 70/162/142
s 6
f 2/163/69 74/114/147 72/164/146 22/161/70
s 20
f 76/116/151 74/165/150 2/166/199 62/167/200
s 5
f 62/168/201 61/169/202 78/171/155 76/170/154
f 80/118/157 78/171/155 61/169/202 66/172/203
s 22
f 4/173/204 82/120/161 80/174/160 66/175/205
s 6
f 84/178/165 82/176/164 4/1/53 31/177/56
s 23
f 86/181/169 84/178/168 31/177/206 32/179/207
s 7
f 3/180/58 88/122/173 86/181/172 32/179/59
s 24
f 90/124/177 88/182/176 3/183/208 48/184/209
s 3
f 48/185/210 49/186/211 92/188/181 90/187/180
f 94/126/183 92/188/181 49/186/211 53/189/212
s 18
f 1/190/213 67/111/133 94/191/136 53/192/214
