# This file uses centimeters as units for non-parametric coordinates.

mtllib grave-3.mtl
g default
v -0.641673 0.223318 2.191822
v 0.641673 0.223318 2.191822
v -0.641673 0.223318 -2.191820
v 0.641673 0.223318 -2.191820
v 0.641673 0.223318 0.000000
v -0.641673 0.223318 0.000000
v -0.641673 8.002670 1.643921
v -0.641673 7.181645 2.191822
v 0.641673 8.002670 1.643921
v 0.641673 7.181645 2.191822
v -0.641673 8.002670 -1.643921
v -0.641673 7.181645 -2.191820
v 0.641673 8.002670 -1.643921
v 0.641673 7.181645 -2.191820
v -0.641673 8.480749 0.493528
v -0.641673 8.480749 -0.493528
v 0.641673 8.480749 -0.493528
v 0.641673 8.480749 0.493528
v -0.641673 8.480749 0.000000
v 0.641673 8.480749 0.000000
v -0.641673 0.000002 2.340699
v 0.641673 0.000002 2.340699
v 0.641673 7.264286 2.464536
v -0.641673 7.264286 2.464536
v -0.641673 8.767106 -0.550661
v 0.641673 8.767106 -0.550661
v 0.641673 8.222790 -1.824889
v -0.641673 8.222790 -1.824889
v -0.641673 7.264286 -2.464535
v 0.641673 7.264286 -2.464535
v 0.641673 0.000002 -2.340699
v -0.641673 0.000002 -2.340699
v 0.641673 0.000000 0.000000
v -0.641673 0.000000 0.000000
v -0.641673 8.222790 1.824889
v 0.641673 8.222790 1.824889
v 0.641673 8.767106 0.550661
v -0.641673 8.767106 0.550661
v -0.641673 8.778505 0.000000
v 0.641673 8.778505 0.000000
v -0.504425 8.002670 -1.643921
v -0.504425 8.002670 0.000000
v -0.504425 8.192322 0.000000
v -0.504425 8.480749 -0.493528
v -0.504425 8.480749 0.493528
v -0.504425 8.002670 1.643921
v -0.504425 8.480749 0.000000
v -0.504425 0.223318 -2.191820
v -0.504425 0.223318 0.000000
v -0.504425 7.181645 0.000000
v -0.504425 7.181645 -2.191820
v -0.504425 7.181645 2.191822
v -0.504425 0.223318 2.191822
v 0.504425 8.002670 1.643921
v 0.504425 8.002672 0.000000
v 0.504425 8.192322 0.000000
v 0.504425 8.480749 0.493528
v 0.504425 8.480749 -0.493528
v 0.504425 8.002670 -1.643921
v 0.504425 8.480749 0.000000
v 0.504425 0.223318 0.000000
v 0.504425 0.223318 2.191822
v 0.504425 7.181645 0.000000
v 0.504425 7.181645 2.191822
v 0.504425 7.181645 -2.191820
v 0.504425 0.223318 -2.191820
v -0.641673 3.051920 2.573632
v -0.641673 6.058903 2.689014
v -0.641673 6.058743 2.984602
v -0.641673 3.052076 2.786182
v 0.641673 6.058900 2.984605
v 0.641673 3.051918 2.786179
v 0.641673 6.058903 2.689014
v 0.641673 3.051920 2.573632
v 0.504425 6.058903 2.689014
v 0.504425 3.051920 2.573632
v 0.504425 6.058903 -0.000000
v 0.504425 3.051920 -0.000000
v 0.504425 6.058903 -2.689011
v 0.504425 3.051920 -2.573630
v 0.641673 6.058903 -2.689011
v 0.641673 3.051920 -2.573630
v 0.641673 6.058743 -2.984600
v 0.641673 3.052076 -2.786181
v -0.641673 6.058900 -2.984605
v -0.641673 3.051918 -2.786180
v -0.641673 6.058903 -2.689011
v -0.641673 3.051920 -2.573630
v -0.504425 6.058903 -2.689011
v -0.504425 3.051920 -2.573630
v -0.504425 6.058903 -0.000000
v -0.504425 3.051920 -0.000000
v -0.504425 6.058903 2.689014
v -0.504425 3.051920 2.573632
vt 0.742835 0.437423
vt 0.834878 0.437423
vt 0.834878 0.448042
vt 0.807245 0.464191
vt 0.712158 0.391454
vt 0.834878 0.391454
vt 0.862511 0.464191
vt 0.926921 0.437423
vt 0.834878 0.464191
vt 0.684320 0.328591
vt 0.834878 0.328591
vt 0.957598 0.391454
vt 0.690780 0.160231
vt 0.834878 0.160231
vt 0.985436 0.328591
vt 0.712158 0.001857
vt 0.834878 0.001857
vt 0.978975 0.160231
vt 0.957598 0.001857
vt 0.755407 0.903748
vt 0.847450 0.903748
vt 0.847450 0.914366
vt 0.819818 0.930515
vt 0.724730 0.857778
vt 0.847450 0.857778
vt 0.875083 0.930515
vt 0.939493 0.903748
vt 0.847450 0.930515
vt 0.696893 0.794916
vt 0.847450 0.794916
vt 0.970170 0.857778
vt 0.703353 0.626555
vt 0.847450 0.626555
vt 0.998008 0.794916
vt 0.724730 0.468182
vt 0.847450 0.468182
vt 0.991548 0.626555
vt 0.970170 0.468182
vt 0.196733 0.476694
vt 0.261143 0.449927
vt 0.271275 0.462251
vt 0.199932 0.492727
vt 0.291820 0.403957
vt 0.307089 0.408584
vt 0.169100 0.476694
vt 0.169100 0.493366
vt 0.319658 0.341095
vt 0.336208 0.341086
vt 0.141467 0.476694
vt 0.138268 0.492727
vt 0.313197 0.172734
vt 0.325098 0.172743
vt 0.077057 0.449927
vt 0.066924 0.462251
vt 0.291820 0.014361
vt 0.300156 0.001857
vt 0.046380 0.403957
vt 0.031111 0.408584
vt 0.169100 0.014361
vt 0.169100 0.001857
vt 0.001992 0.341095
vt 0.018542 0.341095
vt 0.046380 0.014361
vt 0.038044 0.001857
vt 0.013102 0.172734
vt 0.025002 0.172734
vt 0.418318 0.449927
vt 0.482729 0.476694
vt 0.479530 0.492727
vt 0.408186 0.462251
vt 0.510362 0.476694
vt 0.510362 0.493366
vt 0.387642 0.403957
vt 0.372372 0.408584
vt 0.537994 0.476694
vt 0.541193 0.492727
vt 0.343254 0.341095
vt 0.359804 0.341095
vt 0.602405 0.449927
vt 0.612537 0.462251
vt 0.354363 0.172734
vt 0.366264 0.172734
vt 0.633082 0.403957
vt 0.648351 0.408584
vt 0.387642 0.014361
vt 0.379306 0.001857
vt 0.660919 0.341095
vt 0.677469 0.341086
vt 0.510362 0.014361
vt 0.510362 0.001857
vt 0.654459 0.172734
vt 0.666360 0.172743
vt 0.633082 0.014361
vt 0.641417 0.001857
vt 0.407644 0.666178
vt 0.479498 0.666178
vt 0.479498 0.737522
vt 0.407644 0.737522
vt 0.407644 0.635346
vt 0.479498 0.635346
vt 0.407644 0.773336
vt 0.479498 0.773336
vt 0.407644 0.604515
vt 0.479498 0.604515
vt 0.407644 0.533171
vt 0.479498 0.533171
vt 0.407644 0.497357
vt 0.479498 0.497357
vt 0.329654 0.497357
vt 0.401509 0.497357
vt 0.401509 0.628413
vt 0.329654 0.628413
vt 0.401509 0.759468
vt 0.329654 0.759468
vt 0.315834 0.592444
vt 0.315834 0.528034
vt 0.323519 0.528034
vt 0.323519 0.592444
vt 0.315834 0.497357
vt 0.323519 0.497357
vt 0.315834 0.620077
vt 0.323519 0.620077
vt 0.315834 0.647709
vt 0.323519 0.647709
vt 0.315834 0.712120
vt 0.323519 0.712120
vt 0.315834 0.742797
vt 0.323519 0.742797
vt 0.302014 0.742797
vt 0.302014 0.620077
vt 0.309699 0.620077
vt 0.309699 0.742797
vt 0.302014 0.497357
vt 0.309699 0.497357
vt 0.295879 0.647709
vt 0.295879 0.712120
vt 0.288195 0.712120
vt 0.288195 0.647709
vt 0.295879 0.742797
vt 0.288195 0.742797
vt 0.295879 0.620077
vt 0.288195 0.620077
vt 0.295879 0.592444
vt 0.288195 0.592444
vt 0.295879 0.528034
vt 0.288195 0.528034
vt 0.295879 0.497357
vt 0.288195 0.497357
vt 0.282059 0.497357
vt 0.282059 0.620077
vt 0.274375 0.620077
vt 0.274375 0.497357
vt 0.282059 0.742797
vt 0.274375 0.742797
vt 0.527093 0.728580
vt 0.527093 0.560219
vt 0.534778 0.560219
vt 0.534778 0.728580
vt 0.527093 0.497357
vt 0.534778 0.497357
vt 0.527093 0.886953
vt 0.534778 0.886953
vt 0.618903 0.836586
vt 0.618903 0.668243
vt 0.690757 0.668234
vt 0.690757 0.836595
vt 0.618903 0.497357
vt 0.690757 0.497357
vt 0.690757 0.904084
vt 0.618903 0.904084
vt 0.520958 0.560219
vt 0.520958 0.728580
vt 0.513273 0.728580
vt 0.513273 0.560219
vt 0.520958 0.886953
vt 0.513273 0.886953
vt 0.520958 0.497357
vt 0.513273 0.497357
vt 0.499453 0.824091
vt 0.499453 0.655730
vt 0.507138 0.655730
vt 0.507138 0.824091
vt 0.507138 0.497357
vt 0.499453 0.497357
vt 0.507138 0.886953
vt 0.499453 0.886953
vt 0.612767 0.564855
vt 0.612767 0.733198
vt 0.540913 0.733207
vt 0.540913 0.564846
vt 0.612767 0.904084
vt 0.540913 0.904084
vt 0.540913 0.497357
vt 0.612767 0.497357
vt 0.485634 0.824091
vt 0.485634 0.655730
vt 0.493318 0.655730
vt 0.493318 0.824091
vt 0.485634 0.497357
vt 0.493318 0.497357
vt 0.485634 0.886953
vt 0.493318 0.886953
vn 0.000000 0.956628 -0.291312
vn 0.000000 0.956628 -0.291312
vn 0.000000 0.919610 -0.392833
vn 0.000000 0.919610 -0.392833
vn 0.000000 -1.000000 -0.000001
vn 0.000000 -1.000000 -0.000001
vn 0.000000 -1.000000 0.000000
vn 0.000000 -1.000000 0.000000
vn -1.000000 -0.000000 0.000000
vn -1.000000 0.000000 0.000000
vn -1.000000 0.000000 0.000000
vn -1.000000 0.000000 0.000000
vn 0.000000 0.919610 0.392833
vn 0.000000 0.919610 0.392833
vn 0.000000 0.956628 0.291312
vn 0.000000 0.956628 0.291312
vn 1.000000 0.000000 0.000000
vn 1.000000 0.000000 0.000000
vn 1.000000 0.000000 0.000000
vn 1.000000 0.000000 0.000000
vn 0.000000 -1.000000 0.000001
vn 0.000000 -1.000000 0.000001
vn -1.000000 0.000000 0.000000
vn -1.000000 -0.000000 0.000000
vn 1.000000 0.000000 0.000000
vn 1.000000 0.000000 0.000000
vn 0.000000 0.555087 0.831792
vn 0.000000 0.555087 0.831792
vn 0.000000 0.555087 0.831792
vn 0.000000 0.555087 0.831792
vn 0.000000 0.555087 -0.831793
vn 0.000000 0.555087 -0.831793
vn 0.000000 0.555087 -0.831793
vn 0.000000 0.555087 -0.831793
vn 0.000000 1.000000 0.000000
vn 0.000000 1.000000 0.000000
vn -1.000000 0.000000 0.000000
vn 1.000000 0.000000 0.000000
vn 1.000000 -0.000000 0.000000
vn 1.000000 -0.000000 0.000000
vn 1.000000 -0.000000 0.000000
vn -1.000000 0.000000 0.000000
vn -1.000000 -0.000000 0.000000
vn -1.000000 0.000000 0.000000
vn 1.000000 0.000000 0.000000
vn 1.000000 0.000000 0.000000
vn 1.000000 0.000000 0.000000
vn 1.000000 0.000000 0.000000
vn -1.000000 0.000000 0.000000
vn -1.000000 -0.000000 0.000000
vn -1.000000 -0.000000 0.000000
vn -1.000000 0.000000 0.000000
vn 1.000000 -0.000000 0.000000
vn 1.000000 -0.000000 0.000000
vn 1.000000 -0.000000 0.000000
vn 1.000000 -0.000000 0.000000
vn -1.000000 0.000000 0.000000
vn -1.000000 0.000000 0.000000
vn -1.000000 0.000000 0.000000
vn -1.000000 0.000000 0.000000
vn 1.000000 0.000000 0.000000
vn 1.000000 0.000000 0.000000
vn 1.000000 0.000000 0.000000
vn 1.000000 0.000000 0.000000
vn -1.000000 0.000000 0.000000
vn -1.000000 -0.000000 0.000000
vn -1.000000 0.000000 0.000000
vn -1.000000 0.000000 0.000000
vn 1.000000 0.000000 0.000000
vn 1.000000 0.000000 0.000000
vn -1.000000 0.000000 0.000000
vn -1.000000 0.000000 0.000000
vn -1.000000 0.000000 0.000000
vn -1.000000 0.000000 0.000000
vn 1.000000 -0.000000 0.000000
vn 1.000000 -0.000000 0.000000
vn -1.000000 0.000000 0.000000
vn -1.000000 0.000000 0.000000
vn 1.000000 -0.000000 0.000000
vn 1.000000 -0.000000 0.000000
vn -1.000000 -0.000000 0.000000
vn -1.000000 -0.000000 0.000000
vn 1.000000 -0.000000 0.000000
vn 1.000000 -0.000000 0.000000
vn 0.000000 -0.960219 0.279247
vn 0.000000 -0.923433 0.383759
vn 0.000000 -0.923433 0.383759
vn 0.000000 -0.960219 0.279247
vn 0.000000 -0.923433 -0.383759
vn 0.000000 -0.960219 -0.279247
vn 0.000000 -0.960219 -0.279247
vn 0.000000 -0.923433 -0.383759
vn 0.000000 -1.000000 0.000000
vn 0.000000 -1.000000 0.000000
vn 0.000000 1.000000 0.000000
vn 0.000000 1.000000 0.000000
vn 0.000000 1.000000 0.000000
vn 0.000000 1.000000 0.000000
vn 0.000000 1.000000 0.000000
vn 0.000000 1.000000 0.000000
vn 0.000000 -0.555085 0.831793
vn 0.000000 -0.555085 0.831793
vn 0.000000 -0.555085 0.831793
vn 0.000000 -0.555085 0.831793
vn 0.000000 -0.555087 -0.831792
vn 0.000000 -0.555087 -0.831792
vn 0.000000 -0.555087 -0.831792
vn 0.000000 -0.555087 -0.831792
vn 0.000000 -0.960219 -0.279248
vn 0.000000 -0.923433 -0.383759
vn 0.000000 -0.923433 -0.383759
vn 0.000000 -0.960219 -0.279248
vn 0.000000 -0.923433 0.383759
vn 0.000000 -0.960219 0.279248
vn 0.000000 -0.960219 0.279248
vn 0.000000 -0.923433 0.383759
vn 0.000000 -1.000000 0.000000
vn 0.000000 -1.000000 0.000000
vn 0.000000 1.000000 0.000000
vn 0.000000 1.000000 0.000000
vn 0.000000 1.000000 0.000000
vn 0.000000 1.000000 0.000000
vn 0.000000 1.000000 0.000000
vn 0.000000 1.000000 0.000000
vn 0.000000 -0.555087 -0.831792
vn 0.000000 -0.555087 -0.831792
vn 0.000000 -0.555087 -0.831792
vn 0.000000 -0.555087 -0.831792
vn 0.000000 -0.555085 0.831793
vn 0.000000 -0.555085 0.831793
vn 0.000000 -0.555085 0.831793
vn 0.000000 -0.555085 0.831793
vn 0.000000 0.084892 -0.996390
vn 0.000000 -0.092061 -0.995753
vn 0.000000 -0.092061 -0.995753
vn 0.000000 0.084892 -0.996390
vn -1.000000 0.000000 0.000000
vn -1.000000 -0.000000 0.000000
vn -1.000000 -0.000000 0.000000
vn -1.000000 -0.000000 0.000000
vn -0.000008 0.076122 0.997099
vn -0.000004 -0.105677 0.994401
vn -0.000004 -0.105684 0.994400
vn -0.000008 0.076152 0.997096
vn 1.000000 -0.000000 0.000000
vn 1.000000 -0.000000 0.000000
vn 1.000000 -0.000000 0.000000
vn 1.000000 -0.000000 0.000000
vn 0.000000 -0.092061 -0.995753
vn 0.000000 0.084892 -0.996390
vn 0.000000 0.084892 -0.996390
vn 0.000000 -0.092061 -0.995753
vn 1.000000 0.000000 0.000000
vn 1.000000 0.000000 0.000000
vn 1.000000 0.000000 0.000000
vn 1.000000 0.000000 0.000000
vn 1.000000 0.000000 0.000000
vn 1.000000 0.000000 0.000000
vn 0.000000 -0.092061 0.995753
vn 0.000000 0.084892 0.996390
vn 0.000000 0.084892 0.996390
vn 0.000000 -0.092061 0.995753
vn 1.000000 -0.000000 0.000000
vn 1.000000 -0.000000 0.000000
vn 1.000000 -0.000000 0.000000
vn 1.000000 -0.000000 0.000000
vn 0.000009 0.076122 -0.997099
vn 0.000005 -0.105677 -0.994401
vn 0.000005 -0.105683 -0.994400
vn 0.000009 0.076152 -0.997096
vn -1.000000 0.000000 0.000000
vn -1.000000 0.000000 0.000000
vn -1.000000 0.000000 0.000000
vn -1.000000 0.000000 0.000000
vn 0.000000 -0.092061 0.995753
vn 0.000000 0.084892 0.996390
vn 0.000000 0.084892 0.996390
vn 0.000000 -0.092061 0.995753
vn -1.000000 0.000000 0.000000
vn -1.000000 -0.000000 0.000000
vn -1.000000 -0.000000 0.000000
vn -1.000000 0.000000 0.000000
vn -1.000000 -0.000000 0.000000
vn -1.000000 0.000000 0.000000
vn -0.000025 0.396132 0.918194
vn -0.000025 0.396132 0.918194
vn 0.000026 0.396132 -0.918194
vn 0.000026 0.396132 -0.918194
vn 0.000000 -0.404910 0.914356
vn 0.000000 -0.404910 0.914356
vn 0.000000 -0.404911 -0.914356
vn 0.000000 -0.404911 -0.914356
vn 0.000000 -0.404911 -0.914356
vn 0.000000 -0.404911 -0.914356
vn 0.000000 -0.404910 0.914356
vn 0.000000 -0.404910 0.914356
vn -0.000007 -0.144433 0.989515
vn -0.000007 -0.144433 0.989515
vn 0.000000 0.133769 -0.991013
vn 0.000000 0.133769 -0.991013
vn 1.000000 -0.000000 0.000000
vn 1.000000 -0.000000 0.000000
vn 1.000000 -0.000000 0.000000
vn 0.000000 0.133769 0.991013
vn 0.000000 0.133769 0.991013
vn 0.000008 -0.144433 -0.989514
vn 0.000008 -0.144433 -0.989514
vn 0.000000 0.133769 0.991013
vn 0.000000 0.133769 0.991013
vn -1.000000 -0.000000 0.000000
vn -1.000000 -0.000000 0.000000
vn -1.000000 -0.000000 0.000000
vn 0.000000 0.133769 -0.991013
vn 0.000000 0.133769 -0.991013
s 1
g grave2
usemtl initialShadingGroup
f 25/95/1 26/96/2 27/97/3 28/98/4
s 2
f 32/109/5 31/110/6 33/111/7 34/112/8
s 3
f 41/1/9 42/2/10 43/3/11 44/4/12
s 1
f 35/105/13 36/106/14 37/104/15 38/103/16
s 5
f 54/20/17 55/21/18 56/22/19 57/23/20
s 2
f 34/112/8 33/111/7 22/113/21 21/114/22
s 3
f 45/7/23 43/3/11 42/2/10 46/8/24
s 5
f 58/26/25 56/22/19 55/21/18 59/27/26
s off
f 35/105/27 24/107/28 23/108/29 36/106/30
f 29/101/31 28/98/32 27/97/33 30/102/34
s 1
f 25/95/1 39/99/35 40/100/36 26/96/2
s 3
f 43/3/11 45/7/23 47/9/37
s 5
f 56/22/19 58/26/25 60/28/38
f 64/24/39 63/25/40 55/21/18 54/20/17
f 59/27/26 55/21/18 63/25/40 65/31/41
s 3
f 51/5/42 50/6/43 42/2/10 41/1/9
f 46/8/24 42/2/10 50/6/43 52/12/44
s 1
f 40/100/36 39/99/35 38/103/16 37/104/15
s 3
f 43/3/11 47/9/37 44/4/12
s 5
f 56/22/19 60/28/38 57/23/20
s 6
f 17/39/45 13/40/46 27/41/47 26/42/48
s 7
f 11/67/49 16/68/50 25/69/51 28/70/52
s 6
f 4/55/53 5/59/54 33/60/55 31/56/56
s 7
f 6/89/57 3/85/58 32/86/59 34/90/60
s 6
f 9/53/61 18/49/62 37/50/63 36/54/64
s 7
f 15/75/65 7/79/66 35/80/67 38/76/68
s 6
f 5/59/54 2/63/69 22/64/70 33/60/55
s 7
f 1/93/71 6/89/57 34/90/60 21/94/72
f 7/79/66 8/83/73 24/84/74 35/80/67
s 6
f 10/57/75 9/53/61 36/54/64 23/58/76
s 7
f 12/73/77 11/67/49 28/70/52 29/74/78
s 6
f 13/40/46 14/43/79 30/44/80 27/41/47
s 7
f 16/68/50 19/71/81 39/72/82 25/69/51
s 6
f 20/45/83 17/39/45 26/42/48 40/46/84
s 7
f 19/71/81 15/75/65 38/76/68 39/72/82
s 6
f 18/49/62 20/45/83 40/46/84 37/50/63
s 12
f 16/115/85 11/116/86 41/117/87 44/118/88
f 7/125/89 15/123/90 45/124/91 46/126/92
f 15/123/90 19/121/93 47/122/94 45/124/91
s 14
f 3/129/95 6/130/96 49/131/97 48/132/98
f 6/130/96 1/133/99 53/134/100 49/131/97
s off
f 11/116/101 12/119/102 51/120/103 41/117/104
f 8/127/105 7/125/106 46/126/107 52/128/108
s 12
f 19/121/93 16/115/85 44/118/88 47/122/94
s 15
f 18/135/109 9/136/110 54/137/111 57/138/112
f 13/145/113 17/143/114 58/144/115 59/146/116
f 17/143/114 20/141/117 60/142/118 58/144/115
s 17
f 2/149/119 5/150/120 61/151/121 62/152/122
f 5/150/120 4/153/123 66/154/124 61/151/121
s off
f 9/136/125 10/139/126 64/140/127 54/137/128
f 14/147/129 13/145/130 59/146/131 65/148/132
s 15
f 20/141/117 18/135/109 57/138/112 60/142/118
s 18
f 67/155/133 68/156/134 93/157/135 94/158/136
s 7
f 68/87/137 67/91/138 70/92/139 69/88/140
s 19
f 69/163/141 70/164/142 72/165/143 71/166/144
s 6
f 71/61/145 72/65/146 74/66/147 73/62/148
s 20
f 73/171/149 74/172/150 76/173/151 75/174/152
s 5
f 75/29/153 76/32/154 78/33/155 77/30/156
f 77/30/156 78/33/155 80/37/157 79/34/158
s 22
f 79/179/159 80/180/160 82/181/161 81/182/162
s 6
f 81/47/163 82/51/164 84/52/165 83/48/166
s 23
f 83/187/167 84/188/168 86/189/169 85/190/170
s 7
f 85/77/171 86/81/172 88/82/173 87/78/174
s 24
f 87/195/175 88/196/176 90/197/177 89/198/178
s 3
f 89/10/179 90/13/180 92/14/181 91/11/182
f 91/11/182 92/14/181 94/18/183 93/15/184
s 19
f 69/163/141 71/166/144 23/169/185 24/170/186
s 23
f 29/193/187 30/194/188 83/187/167 85/190/170
s 5
f 75/29/153 77/30/156 63/25/40 64/24/39
f 65/31/41 63/25/40 77/30/156 79/34/158
s 3
f 89/10/179 91/11/182 50/6/43 51/5/42
f 52/12/44 50/6/43 91/11/182 93/15/184
s 6
f 71/61/145 73/62/148 10/57/75 23/58/76
s 7
f 8/83/73 68/87/137 69/88/140 24/84/74
s 6
f 14/43/79 81/47/163 83/48/166 30/44/80
s 7
f 85/77/171 87/78/174 12/73/77 29/74/78
s 24
f 12/201/189 87/195/175 89/198/178 51/202/190
s 18
f 93/157/135 68/156/134 8/159/191 52/160/192
s 20
f 10/177/193 73/171/149 75/174/152 64/178/194
s 22
f 79/179/159 81/182/162 14/185/195 65/186/196
s 7
f 70/92/139 67/91/138 1/93/71 21/94/72
s 19
f 21/167/197 22/168/198 72/165/143 70/164/142
s 6
f 2/63/69 74/66/147 72/65/146 22/64/70
s 20
f 76/173/151 74/172/150 2/175/199 62/176/200
s 5
f 62/35/201 61/36/202 78/33/155 76/32/154
f 80/37/157 78/33/155 61/36/202 66/38/203
s 22
f 4/183/204 82/181/161 80/180/160 66/184/205
s 6
f 84/52/165 82/51/164 4/55/53 31/56/56
s 23
f 86/189/169 84/188/168 31/191/206 32/192/207
s 7
f 3/85/58 88/82/173 86/81/172 32/86/59
s 24
f 90/197/177 88/196/176 3/199/208 48/200/209
s 3
f 48/16/210 49/17/211 92/14/181 90/13/180
f 94/18/183 92/14/181 49/17/211 53/19/212
s 18
f 1/161/213 67/155/133 94/158/136 53/162/214
