# This file uses centimeters as units for non-parametric coordinates.

mtllib grave-5.mtl
g default
v -0.641673 0.223318 2.842058
v 0.641673 0.223318 2.842058
v -0.641673 0.223318 -2.842054
v 0.641673 0.223318 -2.842054
v 0.641673 0.223318 0.000000
v -0.641673 0.223318 0.000000
v -0.641673 8.002670 1.071821
v -0.641673 6.986609 1.948262
v 0.641673 8.002670 1.071821
v 0.641673 6.986609 1.948262
v -0.641673 8.002670 -1.071820
v -0.641673 6.986609 -1.948260
v 0.641673 8.002670 -1.071820
v 0.641673 6.986609 -1.948260
v -0.641673 8.480749 0.321775
v -0.641673 8.480749 -0.321775
v 0.641673 8.480749 -0.321775
v 0.641673 8.480749 0.321775
v -0.641673 8.480749 0.000000
v 0.641673 8.480749 0.000000
v -0.641673 0.000002 2.990935
v 0.641673 0.000002 2.990935
v 0.641673 7.069249 2.190671
v -0.641673 7.069249 2.190671
v -0.641673 8.767106 -0.359026
v 0.641673 8.767106 -0.359026
v 0.641673 8.222790 -1.189810
v -0.641673 8.222790 -1.189810
v -0.641673 7.069249 -2.190670
v 0.641673 7.069249 -2.190670
v 0.641673 0.000002 -2.990933
v -0.641673 0.000002 -2.990933
v 0.641673 0.000000 0.000000
v -0.641673 0.000000 0.000000
v -0.641673 8.222790 1.189811
v 0.641673 8.222790 1.189811
v 0.641673 8.767106 0.359026
v -0.641673 8.767106 0.359026
v -0.641673 8.778505 0.000000
v 0.641673 8.778505 0.000000
v -0.504425 8.002670 -1.071820
v -0.504425 8.002670 0.000000
v -0.504425 8.192322 0.000000
v -0.504425 8.480749 -0.321775
v -0.504425 8.480749 0.321775
v -0.504425 8.002670 1.071821
v -0.504425 8.480749 0.000000
v -0.504425 0.223318 -2.842054
v -0.504425 0.223318 0.000000
v -0.504425 7.181645 0.000000
v -0.504425 6.986609 -1.948260
v -0.504425 6.986609 1.948262
v -0.504425 0.223318 2.842058
v 0.504425 8.002670 1.071821
v 0.504425 8.002672 0.000000
v 0.504425 8.192322 0.000000
v 0.504425 8.480749 0.321775
v 0.504425 8.480749 -0.321775
v 0.504425 8.002670 -1.071820
v 0.504425 8.480749 0.000000
v 0.504425 0.223318 0.000000
v 0.504425 0.223318 2.842058
v 0.504425 7.181645 0.000000
v 0.504425 6.986609 1.948262
v 0.504425 6.986609 -1.948260
v 0.504425 0.223318 -2.842054
v -0.641673 3.051920 2.786838
v -0.641673 6.058903 2.689014
v -0.641673 6.058743 2.984602
v -0.641673 3.052076 3.052712
v 0.641673 6.058900 2.984605
v 0.641673 3.051918 3.052709
v 0.641673 6.058903 2.689014
v 0.641673 3.051920 2.786838
v 0.504425 6.058903 2.689014
v 0.504425 3.051920 2.786838
v 0.504425 6.058903 -0.000000
v 0.504425 3.051920 0.000000
v 0.504425 6.058903 -2.689012
v 0.504425 3.051920 -2.786835
v 0.641673 6.058903 -2.689012
v 0.641673 3.051920 -2.786835
v 0.641673 6.058743 -2.984600
v 0.641673 3.052076 -3.052709
v -0.641673 6.058900 -2.984605
v -0.641673 3.051918 -3.052709
v -0.641673 6.058903 -2.689012
v -0.641673 3.051920 -2.786835
v -0.504425 6.058903 -2.689012
v -0.504425 3.051920 -2.786835
v -0.504425 6.058903 -0.000000
v -0.504425 3.051920 0.000000
v -0.504425 6.058903 2.689014
v -0.504425 3.051920 2.786838
vt 0.758782 0.414632
vt 0.815666 0.414632
vt 0.815666 0.424697
vt 0.798589 0.440005
vt 0.712267 0.360707
vt 0.815666 0.371058
vt 0.832744 0.440005
vt 0.872551 0.414632
vt 0.815666 0.440005
vt 0.672953 0.311471
vt 0.815666 0.311471
vt 0.919066 0.360707
vt 0.667761 0.151882
vt 0.815666 0.151882
vt 0.958379 0.311471
vt 0.664831 0.001761
vt 0.815666 0.001761
vt 0.963571 0.151882
vt 0.966502 0.001761
vt 0.790288 0.856867
vt 0.847173 0.856867
vt 0.847173 0.866933
vt 0.830095 0.882240
vt 0.743773 0.802942
vt 0.847173 0.813293
vt 0.864250 0.882240
vt 0.904057 0.856867
vt 0.847173 0.882240
vt 0.704459 0.753706
vt 0.847173 0.753706
vt 0.950572 0.802942
vt 0.699268 0.594118
vt 0.847173 0.594118
vt 0.989886 0.753706
vt 0.696337 0.443996
vt 0.847173 0.443996
vt 0.995077 0.594118
vt 0.998008 0.443996
vt 0.181085 0.451857
vt 0.220892 0.426484
vt 0.227154 0.438166
vt 0.183062 0.467055
vt 0.267407 0.372559
vt 0.280272 0.376945
vt 0.164007 0.451857
vt 0.164007 0.467660
vt 0.306721 0.323323
vt 0.322408 0.323315
vt 0.146930 0.451857
vt 0.144953 0.467055
vt 0.311912 0.163735
vt 0.326023 0.163743
vt 0.107123 0.426484
vt 0.100861 0.438166
vt 0.314843 0.013613
vt 0.322744 0.001761
vt 0.060608 0.372559
vt 0.047743 0.376945
vt 0.164007 0.013613
vt 0.164007 0.001761
vt 0.005606 0.323323
vt 0.021294 0.323323
vt 0.013172 0.013613
vt 0.005271 0.001761
vt 0.001992 0.163734
vt 0.016102 0.163735
vt 0.438640 0.426484
vt 0.478447 0.451857
vt 0.476470 0.467055
vt 0.432378 0.438166
vt 0.495524 0.451857
vt 0.495524 0.467660
vt 0.392125 0.372559
vt 0.379260 0.376945
vt 0.512602 0.451857
vt 0.514579 0.467055
vt 0.337123 0.323323
vt 0.352811 0.323323
vt 0.552409 0.426484
vt 0.558671 0.438166
vt 0.333509 0.163734
vt 0.347619 0.163735
vt 0.598924 0.372559
vt 0.611789 0.376945
vt 0.344689 0.013613
vt 0.336787 0.001761
vt 0.638237 0.323323
vt 0.653925 0.323315
vt 0.495524 0.013613
vt 0.495524 0.001761
vt 0.643429 0.163735
vt 0.657540 0.163743
vt 0.646360 0.013613
vt 0.654261 0.001761
vt 0.473599 0.471651
vt 0.541710 0.471651
vt 0.541710 0.630388
vt 0.473599 0.630388
vt 0.541710 0.789125
vt 0.473599 0.789125
vt 0.399353 0.649107
vt 0.399353 0.630052
vt 0.467464 0.630052
vt 0.467464 0.649107
vt 0.399353 0.610998
vt 0.467464 0.610998
vt 0.467464 0.693199
vt 0.399353 0.693199
vt 0.399353 0.566906
vt 0.467464 0.566906
vt 0.399353 0.746317
vt 0.467464 0.746317
vt 0.399353 0.513787
vt 0.467464 0.513787
vt 0.467464 0.788453
vt 0.399353 0.788453
vt 0.399353 0.471651
vt 0.467464 0.471651
vt 0.305417 0.631442
vt 0.305417 0.614364
vt 0.312701 0.614364
vt 0.312701 0.631442
vt 0.305417 0.597287
vt 0.312701 0.597287
vt 0.305417 0.671249
vt 0.312701 0.671249
vt 0.305417 0.557480
vt 0.312701 0.557480
vt 0.305417 0.717764
vt 0.312701 0.717764
vt 0.305417 0.510965
vt 0.312701 0.510965
vt 0.312701 0.757077
vt 0.305417 0.757077
vt 0.305417 0.471651
vt 0.312701 0.471651
vt 0.332256 0.773322
vt 0.332256 0.622487
vt 0.339540 0.622487
vt 0.339540 0.773322
vt 0.332256 0.471651
vt 0.339540 0.471651
vt 0.299282 0.597287
vt 0.299282 0.614364
vt 0.291998 0.614364
vt 0.291998 0.597287
vt 0.299282 0.631442
vt 0.291998 0.631442
vt 0.299282 0.557480
vt 0.291998 0.557480
vt 0.299282 0.671249
vt 0.291998 0.671249
vt 0.299282 0.510965
vt 0.291998 0.510965
vt 0.299282 0.717764
vt 0.291998 0.717764
vt 0.291998 0.471651
vt 0.299282 0.471651
vt 0.299282 0.757077
vt 0.291998 0.757077
vt 0.326121 0.471651
vt 0.326121 0.622487
vt 0.318837 0.622487
vt 0.318837 0.471651
vt 0.326121 0.773322
vt 0.318837 0.773322
vt 0.385934 0.631240
vt 0.385934 0.471651
vt 0.393218 0.471651
vt 0.393218 0.631240
vt 0.385934 0.781361
vt 0.393218 0.781361
vt 0.622091 0.793205
vt 0.622091 0.633633
vt 0.690202 0.633625
vt 0.690202 0.793213
vt 0.622091 0.471651
vt 0.690202 0.471651
vt 0.379799 0.471651
vt 0.379799 0.631240
vt 0.372514 0.631240
vt 0.372514 0.471651
vt 0.379799 0.781361
vt 0.372514 0.781361
vt 0.359095 0.781361
vt 0.359095 0.621773
vt 0.366379 0.621773
vt 0.366379 0.781361
vt 0.366379 0.471651
vt 0.359095 0.471651
vt 0.615956 0.471660
vt 0.615956 0.631231
vt 0.547845 0.631240
vt 0.547845 0.471651
vt 0.615956 0.793213
vt 0.547845 0.793213
vt 0.345676 0.781361
vt 0.345676 0.621773
vt 0.352960 0.621773
vt 0.352960 0.781361
vt 0.345676 0.471651
vt 0.352960 0.471651
vn 0.000000 0.906046 -0.423180
vn 0.000000 0.906046 -0.423180
vn 0.000000 0.836457 -0.548032
vn 0.000000 0.836457 -0.548032
vn 0.000000 -1.000000 -0.000001
vn 0.000000 -1.000000 -0.000001
vn 0.000000 -1.000000 -0.000000
vn 0.000000 -1.000000 -0.000000
vn -1.000000 0.000000 0.000000
vn -1.000000 0.000000 0.000000
vn -1.000000 0.000000 0.000000
vn -1.000000 0.000000 0.000000
vn 0.000000 0.836457 0.548032
vn 0.000000 0.836457 0.548032
vn 0.000000 0.906046 0.423180
vn 0.000000 0.906046 0.423180
vn 1.000000 -0.000000 0.000000
vn 1.000000 0.000000 0.000000
vn 1.000000 0.000000 0.000000
vn 1.000000 0.000000 0.000000
vn 0.000000 -1.000000 0.000001
vn 0.000000 -1.000000 0.000001
vn -1.000000 -0.000000 0.000000
vn -1.000000 -0.000000 0.000000
vn 1.000000 0.000000 0.000000
vn 1.000000 -0.000000 0.000000
vn 0.000000 0.655351 0.755324
vn 0.000000 0.655351 0.755324
vn 0.000000 0.655351 0.755324
vn 0.000000 0.655351 0.755324
vn 0.000000 0.655351 -0.755324
vn 0.000000 0.655351 -0.755324
vn 0.000000 0.655351 -0.755324
vn 0.000000 0.655351 -0.755324
vn 0.000000 1.000000 0.000000
vn 0.000000 1.000000 0.000000
vn -1.000000 0.000000 0.000000
vn 1.000000 0.000000 0.000000
vn 1.000000 -0.000000 0.000000
vn 1.000000 -0.000000 0.000000
vn 1.000000 -0.000000 0.000000
vn -1.000000 -0.000000 0.000000
vn -1.000000 -0.000000 0.000000
vn -1.000000 -0.000000 0.000000
vn 1.000000 -0.000000 0.000000
vn 1.000000 -0.000000 0.000000
vn 1.000000 -0.000000 0.000000
vn 1.000000 -0.000000 0.000000
vn -1.000000 0.000000 0.000000
vn -1.000000 -0.000000 0.000000
vn -1.000000 -0.000000 0.000000
vn -1.000000 -0.000000 0.000000
vn 1.000000 -0.000000 0.000000
vn 1.000000 -0.000000 0.000000
vn 1.000000 -0.000000 0.000000
vn 1.000000 -0.000000 0.000000
vn -1.000000 0.000000 0.000000
vn -1.000000 0.000000 0.000000
vn -1.000000 0.000000 0.000000
vn -1.000000 0.000000 0.000000
vn 1.000000 0.000000 0.000000
vn 1.000000 -0.000000 0.000000
vn 1.000000 -0.000000 0.000000
vn 1.000000 0.000000 0.000000
vn -1.000000 -0.000000 0.000000
vn -1.000000 -0.000000 0.000000
vn -1.000000 -0.000000 0.000000
vn -1.000000 -0.000000 0.000000
vn 1.000000 0.000000 0.000000
vn 1.000000 0.000000 0.000000
vn -1.000000 0.000000 0.000000
vn -1.000000 0.000000 0.000000
vn -1.000000 0.000000 0.000000
vn -1.000000 0.000000 0.000000
vn 1.000000 0.000000 0.000000
vn 1.000000 0.000000 0.000000
vn -1.000000 0.000000 0.000000
vn -1.000000 0.000000 0.000000
vn 1.000000 0.000000 0.000000
vn 1.000000 -0.000000 0.000000
vn -1.000000 0.000000 0.000000
vn -1.000000 0.000000 0.000000
vn 1.000000 0.000000 0.000000
vn 1.000000 0.000000 0.000000
vn 0.000000 -0.913269 0.407358
vn 0.000000 -0.843265 0.537498
vn 0.000000 -0.843265 0.537498
vn 0.000000 -0.913269 0.407358
vn 0.000000 -0.843265 -0.537498
vn 0.000000 -0.913269 -0.407358
vn 0.000000 -0.913269 -0.407358
vn 0.000000 -0.843265 -0.537498
vn 0.000000 -1.000000 0.000000
vn 0.000000 -1.000000 0.000000
vn 0.000000 1.000000 0.000000
vn 0.000000 1.000000 0.000000
vn 0.000000 1.000000 0.000000
vn 0.000000 1.000000 0.000000
vn 0.000000 1.000000 0.000000
vn 0.000000 1.000000 0.000000
vn 0.000000 -0.653164 0.757217
vn 0.000000 -0.653164 0.757217
vn 0.000000 -0.653164 0.757217
vn 0.000000 -0.653164 0.757217
vn 0.000000 -0.653164 -0.757216
vn 0.000000 -0.653164 -0.757216
vn 0.000000 -0.653164 -0.757216
vn 0.000000 -0.653164 -0.757216
vn 0.000000 -0.913269 -0.407358
vn 0.000000 -0.843265 -0.537498
vn 0.000000 -0.843265 -0.537498
vn 0.000000 -0.913269 -0.407358
vn 0.000000 -0.843265 0.537498
vn 0.000000 -0.913269 0.407358
vn 0.000000 -0.913269 0.407358
vn 0.000000 -0.843265 0.537498
vn 0.000000 -1.000000 0.000000
vn 0.000000 -1.000000 0.000000
vn 0.000000 1.000000 0.000000
vn 0.000000 1.000000 0.000000
vn 0.000000 1.000000 0.000000
vn 0.000000 1.000000 0.000000
vn 0.000000 1.000000 0.000000
vn 0.000000 1.000000 0.000000
vn 0.000000 -0.653164 -0.757216
vn 0.000000 -0.653164 -0.757216
vn 0.000000 -0.653164 -0.757216
vn 0.000000 -0.653164 -0.757216
vn 0.000000 -0.653164 0.757217
vn 0.000000 -0.653164 0.757217
vn 0.000000 -0.653164 0.757217
vn 0.000000 -0.653164 0.757217
vn 0.000000 -0.026217 -0.999656
vn 0.000000 -0.208443 -0.978035
vn 0.000000 -0.208443 -0.978035
vn 0.000000 -0.026217 -0.999656
vn -1.000000 0.000000 0.000000
vn -1.000000 -0.000000 0.000000
vn -1.000000 -0.000000 0.000000
vn -1.000000 0.000000 0.000000
vn -0.000012 0.209790 0.977747
vn -0.000000 0.001047 0.999999
vn -0.000000 0.001043 0.999999
vn -0.000012 0.209827 0.977739
vn 1.000000 0.000000 0.000000
vn 1.000000 0.000000 0.000000
vn 1.000000 0.000000 0.000000
vn 1.000000 0.000000 0.000000
vn 0.000000 -0.208443 -0.978035
vn 0.000000 -0.026217 -0.999656
vn 0.000000 -0.026217 -0.999656
vn 0.000000 -0.208443 -0.978035
vn 1.000000 -0.000000 0.000000
vn 1.000000 0.000000 0.000000
vn 1.000000 0.000000 0.000000
vn 1.000000 -0.000000 0.000000
vn 1.000000 0.000000 0.000000
vn 1.000000 -0.000000 0.000000
vn 0.000000 -0.208442 0.978035
vn 0.000000 -0.026217 0.999656
vn 0.000000 -0.026217 0.999656
vn 0.000000 -0.208442 0.978035
vn 1.000000 -0.000000 0.000000
vn 1.000000 -0.000000 0.000000
vn 1.000000 -0.000000 0.000000
vn 1.000000 -0.000000 0.000000
vn 0.000014 0.209790 -0.977747
vn 0.000002 0.001047 -0.999999
vn 0.000002 0.001043 -0.999999
vn 0.000014 0.209827 -0.977739
vn -1.000000 0.000000 0.000000
vn -1.000000 0.000000 0.000000
vn -1.000000 0.000000 0.000000
vn -1.000000 0.000000 0.000000
vn 0.000000 -0.208442 0.978035
vn 0.000000 -0.026217 0.999656
vn 0.000000 -0.026217 0.999656
vn 0.000000 -0.208442 0.978035
vn -1.000000 -0.000000 0.000000
vn -1.000000 0.000000 0.000000
vn -1.000000 0.000000 0.000000
vn -1.000000 -0.000000 0.000000
vn -1.000000 0.000000 0.000000
vn -1.000000 -0.000000 0.000000
vn -0.000039 0.617833 0.786309
vn -0.000039 0.617833 0.786309
vn 0.000039 0.617833 -0.786309
vn 0.000039 0.617833 -0.786309
vn 0.000000 -0.623969 0.781449
vn 0.000000 -0.623969 0.781449
vn 0.000000 -0.623970 -0.781449
vn 0.000000 -0.623970 -0.781449
vn 0.000000 -0.623970 -0.781449
vn 0.000000 -0.623970 -0.781449
vn 0.000000 -0.623969 0.781449
vn 0.000000 -0.623969 0.781449
vn -0.000000 -0.020237 0.999795
vn -0.000000 -0.020237 0.999795
vn 0.000000 -0.019518 -0.999810
vn 0.000000 -0.019518 -0.999810
vn 1.000000 0.000000 0.000000
vn 1.000000 0.000000 0.000000
vn 1.000000 0.000000 0.000000
vn 0.000000 -0.019518 0.999810
vn 0.000000 -0.019518 0.999810
vn 0.000001 -0.020237 -0.999795
vn 0.000001 -0.020237 -0.999795
vn 0.000000 -0.019518 0.999810
vn 0.000000 -0.019518 0.999810
vn -1.000000 0.000000 0.000000
vn -1.000000 0.000000 0.000000
vn -1.000000 0.000000 0.000000
vn 0.000000 -0.019518 -0.999810
vn 0.000000 -0.019518 -0.999810
s 1
g grave4
usemtl initialShadingGroup
f 25/101/1 26/104/2 27/107/3 28/108/4
s 2
f 32/95/5 31/96/6 33/97/7 34/98/8
s 3
f 41/1/9 42/2/10 43/3/11 44/4/12
s 1
f 35/109/13 36/110/14 37/106/15 38/105/16
s 5
f 54/20/17 55/21/18 56/22/19 57/23/20
s 2
f 34/98/8 33/97/7 22/99/21 21/100/22
s 3
f 45/7/23 43/3/11 42/2/10 46/8/24
s 5
f 58/26/25 56/22/19 55/21/18 59/27/26
s off
f 35/109/27 24/113/28 23/114/29 36/110/30
f 29/111/31 28/108/32 27/107/33 30/112/34
s 1
f 25/101/1 39/102/35 40/103/36 26/104/2
s 3
f 43/3/11 45/7/23 47/9/37
s 5
f 56/22/19 58/26/25 60/28/38
f 64/24/39 63/25/40 55/21/18 54/20/17
f 59/27/26 55/21/18 63/25/40 65/31/41
s 3
f 51/5/42 50/6/43 42/2/10 41/1/9
f 46/8/24 42/2/10 50/6/43 52/12/44
s 1
f 40/103/36 39/102/35 38/105/16 37/106/15
s 3
f 43/3/11 47/9/37 44/4/12
s 5
f 56/22/19 60/28/38 57/23/20
s 6
f 17/39/45 13/40/46 27/41/47 26/42/48
s 7
f 11/67/49 16/68/50 25/69/51 28/70/52
s 6
f 4/55/53 5/59/54 33/60/55 31/56/56
s 7
f 6/89/57 3/85/58 32/86/59 34/90/60
s 6
f 9/53/61 18/49/62 37/50/63 36/54/64
s 7
f 15/75/65 7/79/66 35/80/67 38/76/68
s 6
f 5/59/54 2/63/69 22/64/70 33/60/55
s 7
f 1/93/71 6/89/57 34/90/60 21/94/72
f 7/79/66 8/83/73 24/84/74 35/80/67
s 6
f 10/57/75 9/53/61 36/54/64 23/58/76
s 7
f 12/73/77 11/67/49 28/70/52 29/74/78
s 6
f 13/40/46 14/43/79 30/44/80 27/41/47
s 7
f 16/68/50 19/71/81 39/72/82 25/69/51
s 6
f 20/45/83 17/39/45 26/42/48 40/46/84
s 7
f 19/71/81 15/75/65 38/76/68 39/72/82
s 6
f 18/49/62 20/45/83 40/46/84 37/50/63
s 12
f 16/123/85 11/127/86 41/128/87 44/124/88
f 7/125/89 15/119/90 45/122/91 46/126/92
f 15/119/90 19/120/93 47/121/94 45/122/91
s 14
f 3/137/95 6/138/96 49/139/97 48/140/98
f 6/138/96 1/141/99 53/142/100 49/139/97
s off
f 11/127/101 12/131/102 51/132/103 41/128/104
f 8/129/105 7/125/106 46/126/107 52/130/108
s 12
f 19/120/93 16/123/85 44/124/88 47/121/94
s 15
f 18/147/109 9/151/110 54/152/111 57/148/112
f 13/149/113 17/143/114 58/146/115 59/150/116
f 17/143/114 20/144/117 60/145/118 58/146/115
s 17
f 2/161/119 5/162/120 61/163/121 62/164/122
f 5/162/120 4/165/123 66/166/124 61/163/121
s off
f 9/151/125 10/155/126 64/156/127 54/152/128
f 14/153/129 13/149/130 59/150/131 65/154/132
s 15
f 20/144/117 18/147/109 57/148/112 60/145/118
s 18
f 67/167/133 68/168/134 93/169/135 94/170/136
s 7
f 68/87/137 67/91/138 70/92/139 69/88/140
s 19
f 69/173/141 70/174/142 72/175/143 71/176/144
s 6
f 71/61/145 72/65/146 74/66/147 73/62/148
s 20
f 73/179/149 74/180/150 76/181/151 75/182/152
s 5
f 75/29/153 76/32/154 78/33/155 77/30/156
f 77/30/156 78/33/155 80/37/157 79/34/158
s 22
f 79/185/159 80/186/160 82/187/161 81/188/162
s 6
f 81/47/163 82/51/164 84/52/165 83/48/166
s 23
f 83/191/167 84/192/168 86/193/169 85/194/170
s 7
f 85/77/171 86/81/172 88/82/173 87/78/174
s 24
f 87/197/175 88/198/176 90/199/177 89/200/178
s 3
f 89/10/179 90/13/180 92/14/181 91/11/182
f 91/11/182 92/14/181 94/18/183 93/15/184
s 19
f 69/117/141 71/118/144 23/114/185 24/113/186
s 23
f 29/111/187 30/112/188 83/115/167 85/116/170
s 5
f 75/29/153 77/30/156 63/25/40 64/24/39
f 65/31/41 63/25/40 77/30/156 79/34/158
s 3
f 89/10/179 91/11/182 50/6/43 51/5/42
f 52/12/44 50/6/43 91/11/182 93/15/184
s 6
f 71/61/145 73/62/148 10/57/75 23/58/76
s 7
f 8/83/73 68/87/137 69/88/140 24/84/74
s 6
f 14/43/79 81/47/163 83/48/166 30/44/80
s 7
f 85/77/171 87/78/174 12/73/77 29/74/78
s 24
f 12/131/189 87/135/175 89/136/178 51/132/190
s 18
f 93/133/135 68/134/134 8/129/191 52/130/192
s 20
f 10/155/193 73/159/149 75/160/152 64/156/194
s 22
f 79/157/159 81/158/162 14/153/195 65/154/196
s 7
f 70/92/139 67/91/138 1/93/71 21/94/72
s 19
f 21/177/197 22/178/198 72/175/143 70/174/142
s 6
f 2/63/69 74/66/147 72/65/146 22/64/70
s 20
f 76/181/151 74/180/150 2/183/199 62/184/200
s 5
f 62/35/201 61/36/202 78/33/155 76/32/154
f 80/37/157 78/33/155 61/36/202 66/38/203
s 22
f 4/189/204 82/187/161 80/186/160 66/190/205
s 6
f 84/52/165 82/51/164 4/55/53 31/56/56
s 23
f 86/193/169 84/192/168 31/195/206 32/196/207
s 7
f 3/85/58 88/82/173 86/81/172 32/86/59
s 24
f 90/199/177 88/198/176 3/201/208 48/202/209
s 3
f 48/16/210 49/17/211 92/14/181 90/13/180
f 94/18/183 92/14/181 49/17/211 53/19/212
s 18
f 1/171/213 67/167/133 94/170/136 53/172/214
