# This file uses centimeters as units for non-parametric coordinates.

mtllib grave-2.mtl
g default
v -0.485246 4.514172 1.137104
v 0.485246 4.514172 1.137104
v -0.485246 6.170495 1.137104
v 0.485246 6.170495 1.137104
v -0.485246 6.170495 -1.137104
v 0.485246 6.170495 -1.137104
v -0.485246 4.514172 -1.137104
v 0.485246 4.514172 -1.137104
v -0.485246 4.514172 3.196569
v 0.485246 4.514172 3.196569
v 0.485246 6.170495 3.196569
v -0.485246 6.170495 3.196569
v -0.485246 8.220181 1.137104
v 0.485246 8.220181 1.137104
v 0.485246 8.220181 -1.137104
v -0.485246 8.220181 -1.137104
v -0.485246 6.170495 -3.196569
v 0.485246 6.170495 -3.196569
v 0.485246 4.514172 -3.196569
v -0.485246 4.514172 -3.196569
v -0.485246 -0.220181 -1.137104
v 0.485246 -0.220181 -1.137104
v 0.485246 -0.220181 1.137104
v -0.485246 -0.220181 1.137104
v 0.334087 4.806548 -0.844728
v 0.334087 4.806548 0.844728
v 0.334087 5.878119 -0.844728
v 0.334087 5.878119 0.844728
v 0.334087 5.878119 2.904193
v 0.334087 4.806548 2.904193
v 0.334087 7.927805 -0.844728
v 0.334087 7.927805 0.844728
v 0.334087 4.806548 -2.904193
v 0.334087 5.878119 -2.904193
v 0.334087 0.072195 0.844728
v 0.334087 0.072195 -0.844728
v -0.334087 4.806548 -0.844728
v -0.334087 4.806548 0.844728
v -0.334087 5.878119 0.844728
v -0.334087 5.878119 -0.844728
v -0.334087 4.806548 2.904193
v -0.334087 5.878119 2.904193
v -0.334087 7.927805 0.844728
v -0.334087 7.927805 -0.844728
v -0.334087 5.878119 -2.904193
v -0.334087 4.806548 -2.904193
v -0.334087 0.072195 -0.844728
v -0.334087 0.072195 0.844728
v 0.682545 6.052331 1.018939
v 0.508334 5.878119 0.844728
v 0.682545 6.052331 3.078404
v 0.508334 5.878119 2.904193
v 0.682545 4.632336 3.078404
v 0.508334 4.806548 2.904193
v 0.682545 4.632336 1.018939
v 0.508334 4.806548 0.844728
v 0.682545 6.052331 -1.018939
v 0.508334 5.878119 -0.844728
v 0.682545 8.102017 -1.018939
v 0.508334 7.927805 -0.844728
v 0.682545 8.102017 1.018939
v 0.508334 7.927805 0.844728
v 0.682545 4.632336 -1.018939
v 0.508334 4.806548 -0.844728
v 0.682545 4.632336 -3.078404
v 0.508334 4.806548 -2.904193
v 0.682545 6.052331 -3.078404
v 0.508334 5.878119 -2.904193
v 0.682545 -0.102017 1.018939
v 0.508334 0.072195 0.844728
v 0.682545 -0.102017 -1.018939
v 0.508334 0.072195 -0.844728
v -0.682545 4.632336 1.018939
v -0.508334 4.806548 0.844728
v -0.682545 4.632336 3.078404
v -0.508334 4.806548 2.904193
v -0.682545 6.052331 3.078404
v -0.508334 5.878119 2.904193
v -0.682545 6.052331 1.018939
v -0.508334 5.878119 0.844728
v -0.682545 8.102017 1.018939
v -0.508334 7.927805 0.844728
v -0.682545 8.102017 -1.018939
v -0.508334 7.927805 -0.844728
v -0.682545 6.052331 -1.018939
v -0.508334 5.878119 -0.844728
v -0.682545 6.052331 -3.078404
v -0.508334 5.878119 -2.904193
v -0.682545 4.632336 -3.078404
v -0.508334 4.806548 -2.904193
v -0.682545 4.632336 -1.018939
v -0.508334 4.806548 -0.844728
v -0.682545 -0.102017 -1.018939
v -0.508334 0.072195 -0.844728
v -0.682545 -0.102017 1.018939
v -0.508334 0.072195 0.844728
vt 0.146017 0.333086
vt 0.264169 0.333086
vt 0.264169 0.408026
vt 0.146017 0.408026
vt 0.146017 0.001992
vt 0.264169 0.001992
vt 0.408196 0.333086
vt 0.408196 0.408026
vt 0.264169 0.551370
vt 0.146017 0.551370
vt 0.001990 0.408026
vt 0.001990 0.333086
vt 0.558892 0.333086
vt 0.677043 0.333086
vt 0.677043 0.408026
vt 0.558892 0.408026
vt 0.558892 0.001992
vt 0.677043 0.001992
vt 0.821071 0.333086
vt 0.821071 0.408026
vt 0.677043 0.551370
vt 0.558892 0.551370
vt 0.414864 0.408026
vt 0.414864 0.333086
vt 0.711946 0.555357
vt 0.779817 0.555357
vt 0.779817 0.714402
vt 0.711946 0.714402
vt 0.793615 0.563620
vt 0.793615 0.706138
vt 0.698148 0.706138
vt 0.698148 0.563620
vt 0.610352 0.555357
vt 0.678222 0.555357
vt 0.678222 0.714402
vt 0.610352 0.714402
vt 0.692021 0.563620
vt 0.692021 0.706138
vt 0.596554 0.706138
vt 0.596554 0.563620
vt 0.142791 0.563620
vt 0.210662 0.563620
vt 0.210662 0.707648
vt 0.142791 0.707648
vt 0.224460 0.555357
vt 0.224460 0.699384
vt 0.128993 0.699384
vt 0.128993 0.555357
vt 0.109067 0.699384
vt 0.041196 0.699384
vt 0.041196 0.555357
vt 0.109067 0.555357
vt 0.027398 0.707648
vt 0.027398 0.563620
vt 0.122865 0.563620
vt 0.122865 0.707648
vt 0.015788 0.719898
vt 0.083658 0.719898
vt 0.083658 0.863926
vt 0.015788 0.863926
vt 0.097457 0.711635
vt 0.097457 0.855662
vt 0.001990 0.855662
vt 0.001990 0.711635
vt 0.187023 0.855662
vt 0.119152 0.855662
vt 0.119152 0.711635
vt 0.187023 0.711635
vt 0.105354 0.863926
vt 0.105354 0.719898
vt 0.200821 0.719898
vt 0.200821 0.863926
vt 0.578242 0.555357
vt 0.578242 0.699384
vt 0.566057 0.699384
vt 0.566057 0.555357
vt 0.590426 0.567540
vt 0.590426 0.711568
vt 0.547745 0.567540
vt 0.547745 0.711568
vt 0.535559 0.711568
vt 0.535559 0.567540
vt 0.559929 0.555357
vt 0.559929 0.699384
vt 0.427050 0.727738
vt 0.427050 0.845889
vt 0.414864 0.845889
vt 0.414864 0.727738
vt 0.439233 0.715554
vt 0.439233 0.858072
vt 0.486751 0.555357
vt 0.486751 0.699384
vt 0.474565 0.699384
vt 0.474565 0.555357
vt 0.498934 0.567540
vt 0.498934 0.711568
vt 0.517248 0.567540
vt 0.517248 0.711568
vt 0.505062 0.711568
vt 0.505062 0.567540
vt 0.529431 0.699384
vt 0.529431 0.555357
vt 0.458196 0.727738
vt 0.458196 0.845889
vt 0.446010 0.845889
vt 0.446010 0.727738
vt 0.470379 0.715554
vt 0.470379 0.858072
vt 0.456251 0.711568
vt 0.456251 0.567540
vt 0.468437 0.567540
vt 0.468437 0.711568
vt 0.444068 0.699384
vt 0.444068 0.555357
vt 0.425754 0.699384
vt 0.425754 0.555357
vt 0.437940 0.555357
vt 0.437940 0.699384
vt 0.413571 0.711568
vt 0.413571 0.567540
vt 0.489339 0.845889
vt 0.489339 0.727738
vt 0.501525 0.727738
vt 0.501525 0.845889
vt 0.477155 0.858072
vt 0.477155 0.715554
vt 0.395257 0.711568
vt 0.395257 0.567540
vt 0.407443 0.567540
vt 0.407443 0.711568
vt 0.383074 0.699384
vt 0.383074 0.555357
vt 0.364760 0.699384
vt 0.364760 0.555357
vt 0.376946 0.555357
vt 0.376946 0.699384
vt 0.352576 0.711568
vt 0.352576 0.567540
vt 0.520485 0.845889
vt 0.520485 0.727738
vt 0.532670 0.727738
vt 0.532670 0.845889
vt 0.508301 0.858072
vt 0.508301 0.715554
vt 0.553245 0.718389
vt 0.621116 0.718389
vt 0.621116 0.834223
vt 0.553245 0.834223
vt 0.634914 0.726653
vt 0.634914 0.825959
vt 0.539447 0.825959
vt 0.539447 0.726653
vt 0.656415 0.718389
vt 0.724286 0.718389
vt 0.724286 0.834223
vt 0.656415 0.834223
vt 0.738084 0.726653
vt 0.738084 0.825959
vt 0.642617 0.825959
vt 0.642617 0.726653
vt 0.222322 0.723134
vt 0.290193 0.723134
vt 0.290193 0.866478
vt 0.222322 0.866478
vt 0.303991 0.714870
vt 0.303991 0.858214
vt 0.208524 0.858214
vt 0.208524 0.714870
vt 0.393363 0.858898
vt 0.325492 0.858898
vt 0.325492 0.715554
vt 0.393363 0.715554
vt 0.311694 0.867162
vt 0.311694 0.723818
vt 0.407161 0.723818
vt 0.407161 0.867162
vt 0.915136 0.357520
vt 0.983007 0.357520
vt 0.983007 0.688615
vt 0.915136 0.688615
vt 0.996805 0.349257
vt 0.996805 0.680351
vt 0.901338 0.680351
vt 0.901338 0.349257
vt 0.881412 0.886451
vt 0.813541 0.886451
vt 0.813541 0.555357
vt 0.881412 0.555357
vt 0.799743 0.894715
vt 0.799743 0.563620
vt 0.895210 0.563620
vt 0.895210 0.894715
vt 0.757972 0.730572
vt 0.757972 0.805512
vt 0.745787 0.805512
vt 0.745787 0.730572
vt 0.770156 0.718389
vt 0.770156 0.817695
vt 0.303768 0.555357
vt 0.303768 0.698700
vt 0.291582 0.698700
vt 0.291582 0.555357
vt 0.315951 0.567540
vt 0.315951 0.710884
vt 0.334265 0.567540
vt 0.334265 0.710884
vt 0.322079 0.710884
vt 0.322079 0.567540
vt 0.346449 0.698700
vt 0.346449 0.555357
vt 0.789118 0.910885
vt 0.789118 0.985825
vt 0.776932 0.985825
vt 0.776932 0.910885
vt 0.801301 0.898702
vt 0.801301 0.998008
vt 0.839730 0.001992
vt 0.839730 0.333087
vt 0.827544 0.333087
vt 0.827544 0.001992
vt 0.851913 0.014175
vt 0.851913 0.345270
vt 0.870875 0.014175
vt 0.870875 0.345270
vt 0.858690 0.345270
vt 0.858690 0.014175
vt 0.883059 0.333086
vt 0.883059 0.001992
vt 0.820261 0.985825
vt 0.820261 0.910885
vt 0.832447 0.910885
vt 0.832447 0.985825
vt 0.808078 0.998008
vt 0.808078 0.898702
vt 0.273268 0.710884
vt 0.273268 0.567540
vt 0.285454 0.567540
vt 0.285454 0.710884
vt 0.261085 0.698700
vt 0.261085 0.555357
vt 0.242771 0.698700
vt 0.242771 0.555357
vt 0.254957 0.555357
vt 0.254957 0.698700
vt 0.230588 0.710884
vt 0.230588 0.567540
vt 0.851407 0.985825
vt 0.851407 0.910885
vt 0.863593 0.910885
vt 0.863593 0.985825
vt 0.839224 0.998008
vt 0.839224 0.898702
vt 0.933164 0.345270
vt 0.933164 0.014175
vt 0.945350 0.014175
vt 0.945350 0.345270
vt 0.920981 0.333086
vt 0.920981 0.001992
vt 0.902019 0.333087
vt 0.902019 0.001992
vt 0.914204 0.001992
vt 0.914204 0.333087
vt 0.889835 0.014175
vt 0.889835 0.345270
vn 0.000000 0.000000 1.000000
vn 0.000000 0.000000 1.000000
vn 0.000000 0.000000 1.000000
vn 0.000000 0.000000 1.000000
vn 0.000000 1.000000 0.000000
vn 0.000000 1.000000 0.000000
vn 0.000000 1.000000 0.000000
vn 0.000000 1.000000 0.000000
vn 0.000000 0.000000 -1.000000
vn 0.000000 0.000000 -1.000000
vn 0.000000 0.000000 -1.000000
vn 0.000000 0.000000 -1.000000
vn 0.000000 -1.000000 0.000000
vn 0.000000 -1.000000 0.000000
vn 0.000000 -1.000000 0.000000
vn 0.000000 -1.000000 0.000000
vn 1.000000 0.000000 0.000000
vn 1.000000 0.000000 0.000000
vn 1.000000 0.000000 0.000000
vn 1.000000 0.000000 0.000000
vn -1.000000 0.000000 0.000000
vn -1.000000 0.000000 0.000000
vn -1.000000 0.000000 0.000000
vn -1.000000 0.000000 0.000000
vn 0.000000 -1.000000 0.000000
vn 0.000000 -1.000000 0.000000
vn 0.000000 -1.000000 0.000000
vn 0.000000 -1.000000 0.000000
vn 1.000000 0.000000 0.000000
vn 1.000000 0.000000 0.000000
vn 0.000000 1.000000 0.000000
vn 0.000000 1.000000 0.000000
vn 0.000000 1.000000 0.000000
vn 0.000000 1.000000 0.000000
vn -1.000000 0.000000 0.000000
vn -1.000000 0.000000 0.000000
vn 0.000000 0.000000 1.000000
vn 0.000000 0.000000 1.000000
vn 0.000000 0.000000 1.000000
vn 0.000000 0.000000 1.000000
vn 1.000000 0.000000 0.000000
vn 1.000000 0.000000 0.000000
vn 0.000000 0.000000 -1.000000
vn 0.000000 0.000000 -1.000000
vn 0.000000 0.000000 -1.000000
vn 0.000000 0.000000 -1.000000
vn -1.000000 0.000000 0.000000
vn -1.000000 0.000000 0.000000
vn 0.000000 1.000000 0.000000
vn 0.000000 1.000000 0.000000
vn 0.000000 1.000000 0.000000
vn 0.000000 1.000000 0.000000
vn 1.000000 0.000000 0.000000
vn 1.000000 0.000000 0.000000
vn 0.000000 -1.000000 0.000000
vn 0.000000 -1.000000 0.000000
vn 0.000000 -1.000000 0.000000
vn 0.000000 -1.000000 0.000000
vn -1.000000 0.000000 0.000000
vn -1.000000 0.000000 0.000000
vn 0.000000 0.000000 -1.000000
vn 0.000000 0.000000 -1.000000
vn 0.000000 0.000000 -1.000000
vn 0.000000 0.000000 -1.000000
vn 1.000000 0.000000 0.000000
vn 1.000000 0.000000 0.000000
vn 0.000000 0.000000 1.000000
vn 0.000000 0.000000 1.000000
vn 0.000000 0.000000 1.000000
vn 0.000000 0.000000 1.000000
vn -1.000000 0.000000 0.000000
vn -1.000000 0.000000 0.000000
vn 0.707105 0.000000 -0.707108
vn 0.707106 0.000000 -0.707108
vn 0.707105 0.000000 -0.707108
vn 0.707105 0.000000 -0.707108
vn 0.707106 -0.707107 0.000000
vn 0.707106 -0.707107 0.000000
vn 0.707106 -0.707107 0.000000
vn 0.707106 -0.707107 0.000000
vn 0.707106 0.000000 -0.707108
vn 0.707106 0.000000 -0.707108
vn 0.707106 0.000000 -0.707108
vn 0.707106 0.000000 -0.707108
vn 0.707108 0.707106 0.000000
vn 0.707108 0.707106 0.000000
vn 0.707108 0.707106 0.000000
vn 0.707108 0.707106 0.000000
vn 0.707106 0.000000 -0.707108
vn 0.707106 0.000000 -0.707108
vn 0.707106 0.000000 -0.707108
vn 0.707106 0.000000 -0.707108
vn 0.707106 -0.707107 0.000000
vn 0.707106 -0.707107 0.000000
vn 0.707106 -0.707107 0.000000
vn 0.707106 -0.707107 0.000000
vn 0.707105 0.000000 0.707108
vn 0.707105 0.000000 0.707108
vn 0.707105 0.000000 0.707108
vn 0.707105 0.000000 0.707108
vn 0.707107 -0.707106 0.000000
vn 0.707107 -0.707106 0.000000
vn 0.707107 -0.707106 0.000000
vn 0.707107 -0.707106 0.000000
vn 0.707105 0.000000 0.707108
vn 0.707105 0.000000 0.707108
vn 0.707106 0.000000 0.707108
vn 0.707106 0.000000 0.707108
vn 0.707108 0.707106 0.000000
vn 0.707108 0.707106 0.000000
vn 0.707108 0.707106 0.000000
vn 0.707108 0.707105 0.000000
vn 0.707106 0.000000 0.707108
vn 0.707106 0.000000 0.707108
vn 0.707106 0.000000 0.707108
vn 0.707106 0.000000 0.707108
vn 0.707107 0.707107 0.000000
vn 0.707107 0.707107 0.000000
vn 0.707107 0.707107 0.000000
vn 0.707107 0.707107 0.000000
vn -0.707106 0.000000 -0.707108
vn -0.707106 0.000000 -0.707108
vn -0.707106 0.000000 -0.707108
vn -0.707106 0.000000 -0.707108
vn -0.707108 0.707105 0.000000
vn -0.707108 0.707105 0.000000
vn -0.707108 0.707105 0.000000
vn -0.707108 0.707105 0.000000
vn -0.707106 0.000000 -0.707108
vn -0.707106 0.000000 -0.707108
vn -0.707106 0.000000 -0.707108
vn -0.707106 0.000000 -0.707108
vn -0.707106 -0.707107 0.000000
vn -0.707106 -0.707107 0.000000
vn -0.707106 -0.707107 0.000000
vn -0.707106 -0.707107 0.000000
vn -0.707106 0.000000 -0.707108
vn -0.707106 0.000000 -0.707108
vn -0.707106 0.000000 -0.707108
vn -0.707106 0.000000 -0.707108
vn -0.707107 -0.707106 0.000000
vn -0.707107 -0.707106 0.000000
vn -0.707107 -0.707106 0.000000
vn -0.707107 -0.707106 0.000000
vn -0.707106 0.000000 0.707108
vn -0.707106 0.000000 0.707108
vn -0.707106 0.000000 0.707108
vn -0.707106 0.000000 0.707108
vn -0.707106 -0.707107 0.000000
vn -0.707106 -0.707107 0.000000
vn -0.707106 -0.707107 0.000000
vn -0.707106 -0.707107 0.000000
vn -0.707106 0.000000 0.707108
vn -0.707106 0.000000 0.707108
vn -0.707106 0.000000 0.707108
vn -0.707106 0.000000 0.707108
vn -0.707108 0.707105 0.000000
vn -0.707108 0.707105 0.000000
vn -0.707108 0.707105 0.000000
vn -0.707108 0.707105 0.000000
vn -0.707106 0.000000 0.707108
vn -0.707106 0.000000 0.707108
vn -0.707106 0.000000 0.707108
vn -0.707106 0.000000 0.707108
vn -0.707107 0.707106 0.000000
vn -0.707107 0.707106 0.000000
vn -0.707107 0.707106 0.000000
vn -0.707107 0.707106 0.000000
vn 0.646311 0.540858 0.538289
vn 0.642397 0.614018 0.458594
vn 0.642397 0.614018 0.458594
vn 0.646311 0.540857 0.538290
vn 0.642396 -0.614018 0.458595
vn 0.642396 -0.614019 0.458594
vn 0.618979 -0.313297 0.720215
vn 0.618979 -0.313296 0.720216
vn 0.646311 0.540858 -0.538289
vn 0.646190 0.553116 -0.525834
vn 0.646190 0.553118 -0.525831
vn 0.646311 0.540857 -0.538290
vn 0.646190 0.553116 0.525834
vn 0.646190 0.553118 0.525831
vn 0.618979 -0.313297 -0.720215
vn 0.642396 -0.614018 -0.458595
vn 0.642396 -0.614019 -0.458594
vn 0.618979 -0.313296 -0.720216
vn 0.642397 0.614018 -0.458594
vn 0.642397 0.614018 -0.458594
vn 0.621474 -0.324694 0.712982
vn 0.621474 -0.324695 0.712982
vn 0.621474 -0.324694 -0.712982
vn 0.621474 -0.324695 -0.712982
vn -0.618979 -0.313297 0.720215
vn -0.642396 -0.614018 0.458595
vn -0.642396 -0.614019 0.458594
vn -0.618979 -0.313296 0.720216
vn -0.642397 0.614018 0.458594
vn -0.642397 0.614018 0.458594
vn -0.646311 0.540858 0.538289
vn -0.646311 0.540857 0.538290
vn -0.646190 0.553116 0.525834
vn -0.646190 0.553118 0.525831
vn -0.646190 0.553116 -0.525834
vn -0.646190 0.553118 -0.525831
vn -0.646311 0.540858 -0.538289
vn -0.646311 0.540857 -0.538290
vn -0.642397 0.614018 -0.458594
vn -0.642397 0.614018 -0.458594
vn -0.642396 -0.614018 -0.458595
vn -0.642396 -0.614019 -0.458594
vn -0.618979 -0.313297 -0.720215
vn -0.618979 -0.313296 -0.720216
vn -0.621474 -0.324694 -0.712982
vn -0.621474 -0.324695 -0.712982
vn -0.621474 -0.324694 0.712982
vn -0.621474 -0.324695 0.712982
vn 0.000000 -1.000000 0.000000
vn 0.000000 -1.000000 0.000000
vn 0.000000 -1.000000 0.000000
vn 0.000000 -1.000000 0.000000
vn 0.000000 0.000000 -1.000000
vn 0.000000 0.000000 -1.000000
vn 0.000000 0.000000 -1.000000
vn 0.000000 0.000000 -1.000000
vn 0.000000 1.000000 0.000000
vn 0.000000 1.000000 0.000000
vn 0.000000 1.000000 0.000000
vn 0.000000 1.000000 0.000000
vn 0.000000 0.000000 1.000000
vn 0.000000 0.000000 1.000000
vn 0.000000 0.000000 1.000000
vn 0.000000 0.000000 1.000000
vn 0.000000 -1.000000 0.000000
vn 0.000000 -1.000000 0.000000
vn 0.000000 -1.000000 0.000000
vn 0.000000 -1.000000 0.000000
vn 0.000000 0.000000 -1.000000
vn 0.000000 0.000000 -1.000000
vn 0.000000 0.000000 -1.000000
vn 0.000000 0.000000 -1.000000
vn 0.000000 1.000000 0.000000
vn 0.000000 1.000000 0.000000
vn 0.000000 1.000000 0.000000
vn 0.000000 1.000000 0.000000
vn 0.000000 0.000000 1.000000
vn 0.000000 0.000000 1.000000
vn 0.000000 0.000000 1.000000
vn 0.000000 0.000000 1.000000
vn 0.000000 -1.000000 0.000000
vn 0.000000 -1.000000 0.000000
vn 0.000000 -1.000000 0.000000
vn 0.000000 -1.000000 0.000000
vn 0.000000 0.000000 -1.000000
vn 0.000000 0.000000 -1.000000
vn 0.000000 0.000000 -1.000000
vn 0.000000 0.000000 -1.000000
vn 0.000000 1.000000 0.000000
vn 0.000000 1.000000 0.000000
vn 0.000000 1.000000 0.000000
vn 0.000000 1.000000 0.000000
vn 0.000000 0.000000 1.000000
vn 0.000000 0.000000 1.000000
vn 0.000000 0.000000 1.000000
vn 0.000000 0.000000 1.000000
vn 0.000000 1.000000 0.000000
vn 0.000000 1.000000 0.000000
vn 0.000000 1.000000 0.000000
vn 0.000000 1.000000 0.000000
vn 0.000000 0.000000 -1.000000
vn 0.000000 0.000000 -1.000000
vn 0.000000 0.000000 -1.000000
vn 0.000000 0.000000 -1.000000
vn 0.000000 -1.000000 0.000000
vn 0.000000 -1.000000 0.000000
vn 0.000000 -1.000000 0.000000
vn 0.000000 -1.000000 0.000000
vn 0.000000 0.000000 -1.000000
vn 0.000000 0.000000 -1.000000
vn 0.000000 0.000000 -1.000000
vn 0.000000 0.000000 -1.000000
vn 0.000000 -1.000000 0.000000
vn 0.000000 -1.000000 0.000000
vn 0.000000 -1.000000 0.000000
vn 0.000000 -1.000000 0.000000
vn 0.000000 0.000000 1.000000
vn 0.000000 0.000000 1.000000
vn 0.000000 0.000000 1.000000
vn 0.000000 0.000000 1.000000
vn 0.000000 -1.000000 0.000000
vn 0.000000 -1.000000 0.000000
vn 0.000000 -1.000000 0.000000
vn 0.000000 -1.000000 0.000000
vn 0.000000 0.000000 1.000000
vn 0.000000 0.000000 1.000000
vn 0.000000 0.000000 1.000000
vn 0.000000 0.000000 1.000000
vn 0.000000 1.000000 0.000000
vn 0.000000 1.000000 0.000000
vn 0.000000 1.000000 0.000000
vn 0.000000 1.000000 0.000000
vn 0.000000 0.000000 1.000000
vn 0.000000 0.000000 1.000000
vn 0.000000 0.000000 1.000000
vn 0.000000 0.000000 1.000000
vn 0.000000 1.000000 0.000000
vn 0.000000 1.000000 0.000000
vn 0.000000 1.000000 0.000000
vn 0.000000 1.000000 0.000000
vn 0.000000 0.000000 -1.000000
vn 0.000000 0.000000 -1.000000
vn 0.000000 0.000000 -1.000000
vn 0.000000 0.000000 -1.000000
s off
g cross_grave
usemtl initialShadingGroup
f 9/145/1 10/146/2 11/147/3 12/148/4
f 13/25/5 14/26/6 15/27/7 16/28/8
f 17/153/9 18/154/10 19/155/11 20/156/12
f 21/33/13 22/34/14 23/35/15 24/36/16
s 1
f 26/1/17 25/2/18 27/3/19 28/4/20
s 2
f 37/13/21 38/14/22 39/15/23 40/16/24
s off
f 1/41/25 2/42/26 10/43/27 9/44/28
s 1
f 26/1/17 28/4/20 29/11/29 30/12/30
s off
f 4/49/31 3/50/32 12/51/33 11/52/34
s 2
f 39/15/23 38/14/22 41/19/35 42/20/36
s off
f 3/161/37 4/162/38 14/163/39 13/164/40
s 1
f 28/4/20 27/3/19 31/9/41 32/10/42
s off
f 6/169/43 5/170/44 16/171/45 15/172/46
s 2
f 40/16/24 39/15/23 43/21/47 44/22/48
s off
f 5/57/49 6/58/50 18/59/51 17/60/52
s 1
f 27/3/19 25/2/18 33/7/53 34/8/54
s off
f 8/65/55 7/66/56 20/67/57 19/68/58
s 2
f 37/13/21 40/16/24 45/23/59 46/24/60
s off
f 7/177/61 8/178/62 22/179/63 21/180/64
s 1
f 25/2/18 26/1/17 35/5/65 36/6/66
s off
f 2/185/67 1/186/68 24/187/69 23/188/70
s 2
f 38/14/22 37/13/21 47/17/71 48/18/72
s off
f 49/209/73 50/206/74 62/205/75 61/210/76
f 50/73/77 49/77/78 51/78/79 52/74/80
f 52/193/81 51/197/82 53/198/83 54/194/84
f 54/79/85 53/83/86 55/84/87 56/80/88
f 56/217/89 55/221/90 69/222/91 70/218/92
f 57/101/93 58/98/94 68/97/95 67/102/96
f 58/199/97 57/203/98 59/204/99 60/200/100
f 60/85/101 59/89/102 61/90/103 62/86/104
f 63/227/105 64/224/106 72/223/107 71/228/108
f 64/91/109 63/95/110 65/96/111 66/92/112
f 66/211/113 65/215/114 67/216/115 68/212/116
f 70/103/117 69/107/118 71/108/119 72/104/120
f 73/263/121 74/260/122 96/259/123 95/264/124
f 74/109/125 73/113/126 75/114/127 76/110/128
f 76/229/129 75/233/130 77/234/131 78/230/132
f 78/115/133 77/119/134 79/120/135 80/116/136
f 80/235/137 79/239/138 81/240/139 82/236/140
f 82/121/141 81/125/142 83/126/143 84/122/144
f 84/241/145 83/245/146 85/246/147 86/242/148
f 86/127/149 85/131/150 87/132/151 88/128/152
f 88/247/153 87/251/154 89/252/155 90/248/156
f 90/133/157 89/137/158 91/138/159 92/134/160
f 92/253/161 91/257/162 93/258/163 94/254/164
f 94/139/165 93/143/166 95/144/167 96/140/168
s 3
f 4/49/169 11/52/170 51/55/171 49/56/172
f 11/147/170 10/146/173 53/149/174 51/150/171
f 10/43/173 2/42/175 55/45/176 53/46/174
f 6/169/177 15/172/178 59/175/179 57/176/180
f 15/27/178 14/26/181 61/29/182 59/30/179
f 14/163/181 4/162/169 49/165/172 61/166/182
f 8/65/183 19/68/184 65/71/185 63/72/186
f 19/155/184 18/154/187 67/157/188 65/158/185
f 18/59/187 6/58/177 57/61/180 67/62/188
f 2/185/175 23/188/189 69/191/190 55/192/176
f 23/35/189 22/34/191 71/37/192 69/38/190
f 22/179/191 8/178/183 63/181/186 71/182/192
s 6
f 1/41/193 9/44/194 75/47/195 73/48/196
f 9/145/194 12/148/197 77/151/198 75/152/195
f 12/51/197 3/50/199 79/53/200 77/54/198
f 3/161/199 13/164/201 81/167/202 79/168/200
f 13/25/201 16/28/203 83/31/204 81/32/202
f 16/171/203 5/170/205 85/173/206 83/174/204
f 5/57/205 17/60/207 87/63/208 85/64/206
f 17/153/207 20/156/209 89/159/210 87/160/208
f 20/67/209 7/66/211 91/69/212 89/70/210
f 7/177/211 21/180/213 93/183/214 91/184/212
f 21/33/213 24/36/215 95/39/216 93/40/214
f 24/187/215 1/186/193 73/189/196 95/190/216
s off
f 50/73/217 52/74/218 29/75/219 28/76/220
f 52/193/221 54/194/222 30/195/223 29/196/224
f 54/79/225 56/80/226 26/81/227 30/82/228
f 58/199/229 60/200/230 31/201/231 27/202/232
f 60/85/233 62/86/234 32/87/235 31/88/236
f 62/205/237 50/206/238 28/207/239 32/208/240
f 64/91/241 66/92/242 33/93/243 25/94/244
f 66/211/245 68/212/246 34/213/247 33/214/248
f 68/97/249 58/98/250 27/99/251 34/100/252
f 56/217/253 70/218/254 35/219/255 26/220/256
f 70/103/257 72/104/258 36/105/259 35/106/260
f 72/223/261 64/224/262 25/225/263 36/226/264
f 74/109/265 76/110/266 41/111/267 38/112/268
f 76/229/269 78/230/270 42/231/271 41/232/272
f 78/115/273 80/116/274 39/117/275 42/118/276
f 80/235/277 82/236/278 43/237/279 39/238/280
f 82/121/281 84/122/282 44/123/283 43/124/284
f 84/241/285 86/242/286 40/243/287 44/244/288
f 86/127/289 88/128/290 45/129/291 40/130/292
f 88/247/293 90/248/294 46/249/295 45/250/296
f 90/133/297 92/134/298 37/135/299 46/136/300
f 92/253/301 94/254/302 47/255/303 37/256/304
f 94/139/305 96/140/306 48/141/307 47/142/308
f 96/259/309 74/260/310 38/261/311 48/262/312
