# This file uses centimeters as units for non-parametric coordinates.

mtllib grave-4.mtl
g default
v -0.641673 0.223318 2.191822
v 0.641673 0.223318 2.191822
v -0.641673 0.223318 -2.191820
v 0.641673 0.223318 -2.191820
v 0.641673 0.223318 0.000000
v -0.641673 0.223318 0.000000
v -0.641673 8.002670 1.071821
v -0.641673 7.463943 1.827028
v 0.641673 8.002670 1.071821
v 0.641673 7.463943 1.827028
v -0.641673 8.002670 -1.071820
v -0.641673 7.463943 -1.827026
v 0.641673 8.002670 -1.071820
v 0.641673 7.463943 -1.827026
v -0.641673 8.480749 0.321775
v -0.641673 8.480749 -0.321775
v 0.641673 8.480749 -0.321775
v 0.641673 8.480749 0.321775
v -0.641673 8.480749 0.000000
v 0.641673 8.480749 0.000000
v -0.641673 0.000002 2.340699
v 0.641673 0.000002 2.340699
v 0.641673 7.546584 2.054353
v -0.641673 7.546584 2.054353
v -0.641673 8.767106 -0.359026
v 0.641673 8.767106 -0.359026
v 0.641673 8.222790 -1.189810
v -0.641673 8.222790 -1.189810
v -0.641673 7.546584 -2.054352
v 0.641673 7.546584 -2.054352
v 0.641673 0.000002 -2.340699
v -0.641673 0.000002 -2.340699
v 0.641673 0.000000 0.000000
v -0.641673 0.000000 0.000000
v -0.641673 8.222790 1.189811
v 0.641673 8.222790 1.189811
v 0.641673 8.767106 0.359026
v -0.641673 8.767106 0.359026
v -0.641673 8.778505 0.000000
v 0.641673 8.778505 0.000000
v -0.504425 8.002670 -1.071820
v -0.504425 8.002670 0.000000
v -0.504425 8.192322 0.000000
v -0.504425 8.480749 -0.321775
v -0.504425 8.480749 0.321775
v -0.504425 8.002670 1.071821
v -0.504425 8.480749 0.000000
v -0.504425 0.223318 -2.191820
v -0.504425 0.223318 0.000000
v -0.504425 7.181645 0.000000
v -0.504425 7.463943 -1.827026
v -0.504425 7.463943 1.827028
v -0.504425 0.223318 2.191822
v 0.504425 8.002670 1.071821
v 0.504425 8.002672 0.000000
v 0.504425 8.192322 0.000000
v 0.504425 8.480749 0.321775
v 0.504425 8.480749 -0.321775
v 0.504425 8.002670 -1.071820
v 0.504425 8.480749 0.000000
v 0.504425 0.223318 0.000000
v 0.504425 0.223318 2.191822
v 0.504425 7.181645 0.000000
v 0.504425 7.463943 1.827028
v 0.504425 7.463943 -1.827026
v 0.504425 0.223318 -2.191820
v -0.641673 3.051920 1.649349
v -0.641673 6.058903 2.689014
v -0.641673 6.058743 2.984602
v -0.641673 3.052076 1.785565
v 0.641673 6.058900 2.984605
v 0.641673 3.051918 1.785562
v 0.641673 6.058903 2.689014
v 0.641673 3.051920 1.649349
v 0.504425 6.058903 2.689014
v 0.504425 3.051920 1.649349
v 0.504425 6.058903 -0.000000
v 0.504425 3.051920 0.000000
v 0.504425 6.058903 -2.689011
v 0.504425 3.051920 -1.649347
v 0.641673 6.058903 -2.689011
v 0.641673 3.051920 -1.649347
v 0.641673 6.058743 -2.984600
v 0.641673 3.052076 -1.785564
v -0.641673 6.058900 -2.984605
v -0.641673 3.051918 -1.785563
v -0.641673 6.058903 -2.689011
v -0.641673 3.051920 -1.649347
v -0.504425 6.058903 -2.689011
v -0.504425 3.051920 -1.649347
v -0.504425 6.058903 -0.000000
v -0.504425 3.051920 0.000000
v -0.504425 6.058903 2.689014
v -0.504425 3.051920 1.649349
vt 0.779281 0.439918
vt 0.839635 0.439918
vt 0.839635 0.450597
vt 0.821516 0.466838
vt 0.736756 0.409583
vt 0.839635 0.393687
vt 0.857754 0.466838
vt 0.899988 0.439918
vt 0.839635 0.466838
vt 0.688218 0.330466
vt 0.839635 0.330466
vt 0.942513 0.409583
vt 0.746761 0.161145
vt 0.839635 0.161145
vt 0.991051 0.330466
vt 0.716215 0.001868
vt 0.839635 0.001868
vt 0.932508 0.161145
vt 0.963055 0.001868
vt 0.786238 0.908880
vt 0.846591 0.908880
vt 0.846591 0.919559
vt 0.828472 0.935801
vt 0.743713 0.878545
vt 0.846591 0.862649
vt 0.864710 0.935801
vt 0.906945 0.908880
vt 0.846591 0.935801
vt 0.695175 0.799428
vt 0.846591 0.799428
vt 0.949470 0.878545
vt 0.753718 0.630107
vt 0.846591 0.630107
vt 0.998008 0.799428
vt 0.723171 0.470830
vt 0.846591 0.470830
vt 0.939465 0.630107
vt 0.970011 0.470830
vt 0.188172 0.479413
vt 0.230407 0.452493
vt 0.237051 0.464888
vt 0.190270 0.495538
vt 0.272932 0.422158
vt 0.285732 0.426811
vt 0.170053 0.479413
vt 0.170053 0.496180
vt 0.321470 0.343041
vt 0.338114 0.343032
vt 0.151934 0.479413
vt 0.149837 0.495538
vt 0.262927 0.173720
vt 0.270597 0.173728
vt 0.109700 0.452493
vt 0.103056 0.464888
vt 0.293473 0.014443
vt 0.301857 0.001868
vt 0.067174 0.422158
vt 0.054374 0.426811
vt 0.170053 0.014443
vt 0.170053 0.001868
vt 0.001992 0.343041
vt 0.018637 0.343041
vt 0.046633 0.014443
vt 0.038250 0.001868
vt 0.069509 0.173719
vt 0.077179 0.173720
vt 0.452910 0.452493
vt 0.495145 0.479413
vt 0.493047 0.495538
vt 0.446266 0.464888
vt 0.513264 0.479413
vt 0.513264 0.496180
vt 0.410385 0.422158
vt 0.397584 0.426811
vt 0.531383 0.479413
vt 0.533480 0.495538
vt 0.345203 0.343041
vt 0.361847 0.343041
vt 0.573617 0.452493
vt 0.580261 0.464888
vt 0.412720 0.173719
vt 0.420390 0.173720
vt 0.616143 0.422158
vt 0.628943 0.426811
vt 0.389844 0.014443
vt 0.381460 0.001868
vt 0.664680 0.343041
vt 0.681325 0.343032
vt 0.513264 0.014443
vt 0.513264 0.001868
vt 0.606138 0.173720
vt 0.613808 0.173728
vt 0.636684 0.014443
vt 0.645067 0.001868
vt 0.298394 0.500171
vt 0.370658 0.500171
vt 0.370658 0.631975
vt 0.298394 0.631975
vt 0.370658 0.763778
vt 0.298394 0.763778
vt 0.459976 0.688449
vt 0.459976 0.668233
vt 0.532240 0.668233
vt 0.532240 0.688449
vt 0.459976 0.648016
vt 0.532240 0.648016
vt 0.532240 0.735230
vt 0.459976 0.735230
vt 0.459976 0.601235
vt 0.532240 0.601235
vt 0.459976 0.783912
vt 0.532240 0.783912
vt 0.459976 0.552553
vt 0.532240 0.552553
vt 0.532240 0.836293
vt 0.459976 0.836294
vt 0.459976 0.500171
vt 0.532240 0.500171
vt 0.390657 0.669707
vt 0.390657 0.651588
vt 0.398386 0.651588
vt 0.398386 0.669707
vt 0.390657 0.633469
vt 0.398386 0.633469
vt 0.390657 0.711941
vt 0.398386 0.711941
vt 0.390657 0.591234
vt 0.398386 0.591234
vt 0.390657 0.754467
vt 0.398386 0.754467
vt 0.390657 0.548709
vt 0.398386 0.548709
vt 0.398386 0.803005
vt 0.390657 0.803005
vt 0.390657 0.500171
vt 0.398386 0.500171
vt 0.284530 0.747011
vt 0.284530 0.623591
vt 0.292259 0.623591
vt 0.292259 0.747011
vt 0.284530 0.500171
vt 0.292259 0.500171
vt 0.384522 0.633469
vt 0.384522 0.651588
vt 0.376794 0.651588
vt 0.376794 0.633469
vt 0.384522 0.669707
vt 0.376794 0.669707
vt 0.384522 0.591234
vt 0.376794 0.591234
vt 0.384522 0.711941
vt 0.376794 0.711941
vt 0.384522 0.548709
vt 0.376794 0.548709
vt 0.384522 0.754467
vt 0.376794 0.754467
vt 0.376794 0.500171
vt 0.384522 0.500171
vt 0.384522 0.803005
vt 0.376794 0.803005
vt 0.278395 0.500171
vt 0.278395 0.623591
vt 0.270667 0.623591
vt 0.270667 0.500171
vt 0.278395 0.747011
vt 0.270667 0.747011
vt 0.446112 0.669493
vt 0.446112 0.500171
vt 0.453840 0.500171
vt 0.453840 0.669493
vt 0.446112 0.828769
vt 0.453840 0.828769
vt 0.616775 0.841335
vt 0.616775 0.672032
vt 0.689039 0.672023
vt 0.689039 0.841344
vt 0.616775 0.500171
vt 0.689039 0.500171
vt 0.439977 0.500171
vt 0.439977 0.669493
vt 0.432248 0.669493
vt 0.432248 0.500171
vt 0.439977 0.828769
vt 0.432248 0.828769
vt 0.418385 0.828769
vt 0.418385 0.659448
vt 0.426113 0.659448
vt 0.426113 0.828769
vt 0.426113 0.500171
vt 0.418385 0.500171
vt 0.610640 0.500180
vt 0.610640 0.669484
vt 0.538375 0.669493
vt 0.538375 0.500171
vt 0.610640 0.841344
vt 0.538375 0.841344
vt 0.404521 0.828769
vt 0.404521 0.659448
vt 0.412249 0.659448
vt 0.412249 0.828769
vt 0.404521 0.500171
vt 0.412249 0.500171
vn 0.000000 0.906046 -0.423180
vn 0.000000 0.906046 -0.423180
vn 0.000000 0.836457 -0.548032
vn 0.000000 0.836457 -0.548032
vn 0.000000 -1.000000 -0.000001
vn 0.000000 -1.000000 -0.000001
vn 0.000000 -1.000000 0.000000
vn 0.000000 -1.000000 0.000000
vn -1.000000 -0.000000 0.000000
vn -1.000000 0.000000 0.000000
vn -1.000000 0.000000 0.000000
vn -1.000000 0.000000 0.000000
vn 0.000000 0.836457 0.548032
vn 0.000000 0.836457 0.548032
vn 0.000000 0.906046 0.423180
vn 0.000000 0.906046 0.423180
vn 1.000000 -0.000000 0.000000
vn 1.000000 0.000000 0.000000
vn 1.000000 0.000000 0.000000
vn 1.000000 0.000000 0.000000
vn 0.000000 -1.000000 0.000001
vn 0.000000 -1.000000 0.000001
vn -1.000000 -0.000000 0.000000
vn -1.000000 0.000000 0.000000
vn 1.000000 0.000000 0.000000
vn 1.000000 -0.000000 0.000000
vn 0.000000 0.787678 0.616087
vn 0.000000 0.787678 0.616087
vn 0.000000 0.787678 0.616087
vn 0.000000 0.787678 0.616087
vn 0.000000 0.787678 -0.616087
vn 0.000000 0.787678 -0.616087
vn 0.000000 0.787678 -0.616087
vn 0.000000 0.787678 -0.616087
vn 0.000000 1.000000 0.000000
vn 0.000000 1.000000 0.000000
vn -1.000000 0.000000 0.000000
vn 1.000000 0.000000 0.000000
vn 1.000000 -0.000000 0.000000
vn 1.000000 -0.000000 0.000000
vn 1.000000 -0.000000 0.000000
vn -1.000000 -0.000000 0.000000
vn -1.000000 -0.000000 0.000000
vn -1.000000 -0.000000 0.000000
vn 1.000000 -0.000000 0.000000
vn 1.000000 -0.000000 0.000000
vn 1.000000 -0.000000 0.000000
vn 1.000000 -0.000000 0.000000
vn -1.000000 -0.000000 0.000000
vn -1.000000 -0.000000 0.000000
vn -1.000000 -0.000000 0.000000
vn -1.000000 -0.000000 0.000000
vn 1.000000 -0.000000 0.000000
vn 1.000000 -0.000000 0.000000
vn 1.000000 -0.000000 0.000000
vn 1.000000 -0.000000 0.000000
vn -1.000000 0.000000 0.000000
vn -1.000000 0.000000 0.000000
vn -1.000000 0.000000 0.000000
vn -1.000000 0.000000 0.000000
vn 1.000000 -0.000000 0.000000
vn 1.000000 -0.000000 0.000000
vn 1.000000 -0.000000 0.000000
vn 1.000000 -0.000000 0.000000
vn -1.000000 -0.000000 0.000000
vn -1.000000 -0.000000 0.000000
vn -1.000000 -0.000000 0.000000
vn -1.000000 -0.000000 0.000000
vn 1.000000 0.000000 0.000000
vn 1.000000 0.000000 0.000000
vn -1.000000 0.000000 0.000000
vn -1.000000 0.000000 0.000000
vn -1.000000 -0.000000 0.000000
vn -1.000000 -0.000000 0.000000
vn 1.000000 -0.000000 0.000000
vn 1.000000 -0.000000 0.000000
vn -1.000000 0.000000 0.000000
vn -1.000000 0.000000 0.000000
vn 1.000000 -0.000000 0.000000
vn 1.000000 -0.000000 0.000000
vn -1.000000 0.000000 0.000000
vn -1.000000 0.000000 0.000000
vn 1.000000 0.000000 0.000000
vn 1.000000 0.000000 0.000000
vn 0.000000 -0.913269 0.407358
vn 0.000000 -0.843265 0.537498
vn 0.000000 -0.843265 0.537498
vn 0.000000 -0.913269 0.407358
vn 0.000000 -0.843265 -0.537498
vn 0.000000 -0.913269 -0.407358
vn 0.000000 -0.913269 -0.407358
vn 0.000000 -0.843265 -0.537498
vn 0.000000 -1.000000 0.000000
vn 0.000000 -1.000000 0.000000
vn 0.000000 1.000000 0.000000
vn 0.000000 1.000000 0.000000
vn 0.000000 1.000000 0.000000
vn 0.000000 1.000000 0.000000
vn 0.000000 1.000000 0.000000
vn 0.000000 1.000000 0.000000
vn 0.000000 -0.814093 0.580734
vn 0.000000 -0.814093 0.580734
vn 0.000000 -0.814093 0.580734
vn 0.000000 -0.814093 0.580734
vn 0.000000 -0.814094 -0.580734
vn 0.000000 -0.814094 -0.580734
vn 0.000000 -0.814094 -0.580734
vn 0.000000 -0.814094 -0.580734
vn 0.000000 -0.913269 -0.407358
vn 0.000000 -0.843265 -0.537498
vn 0.000000 -0.843265 -0.537498
vn 0.000000 -0.913269 -0.407358
vn 0.000000 -0.843265 0.537498
vn 0.000000 -0.913269 0.407358
vn 0.000000 -0.913269 0.407358
vn 0.000000 -0.843265 0.537498
vn 0.000000 -1.000000 0.000000
vn 0.000000 -1.000000 0.000000
vn 0.000000 1.000000 0.000000
vn 0.000000 1.000000 0.000000
vn 0.000000 1.000000 0.000000
vn 0.000000 1.000000 0.000000
vn 0.000000 1.000000 0.000000
vn 0.000000 1.000000 0.000000
vn 0.000000 -0.814093 -0.580734
vn 0.000000 -0.814093 -0.580734
vn 0.000000 -0.814093 -0.580734
vn 0.000000 -0.814093 -0.580734
vn 0.000000 -0.814093 0.580734
vn 0.000000 -0.814093 0.580734
vn 0.000000 -0.814093 0.580734
vn 0.000000 -0.814093 0.580734
vn 0.000000 0.084892 -0.996390
vn 0.000000 0.040239 -0.999190
vn 0.000000 0.040239 -0.999190
vn 0.000000 0.084892 -0.996390
vn -1.000000 -0.000000 0.000000
vn -1.000000 0.000000 0.000000
vn -1.000000 0.000000 0.000000
vn -1.000000 0.000000 0.000000
vn -0.000013 -0.059728 0.998215
vn 0.000006 -0.105702 0.994398
vn 0.000006 -0.105659 0.994402
vn -0.000013 -0.059665 0.998218
vn 1.000000 0.000000 0.000000
vn 1.000000 0.000000 0.000000
vn 1.000000 0.000000 0.000000
vn 1.000000 0.000000 0.000000
vn 0.000000 0.040239 -0.999190
vn 0.000000 0.084892 -0.996390
vn 0.000000 0.084892 -0.996390
vn 0.000000 0.040239 -0.999190
vn 1.000000 -0.000000 0.000000
vn 1.000000 0.000000 0.000000
vn 1.000000 0.000000 0.000000
vn 1.000000 -0.000000 0.000000
vn 1.000000 0.000000 0.000000
vn 1.000000 -0.000000 0.000000
vn 0.000000 0.040239 0.999190
vn 0.000000 0.084892 0.996390
vn 0.000000 0.084892 0.996390
vn 0.000000 0.040239 0.999190
vn 1.000000 -0.000000 0.000000
vn 1.000000 -0.000000 0.000000
vn 1.000000 -0.000000 0.000000
vn 1.000000 -0.000000 0.000000
vn 0.000014 -0.059727 -0.998215
vn -0.000005 -0.105702 -0.994398
vn -0.000005 -0.105659 -0.994403
vn 0.000014 -0.059665 -0.998219
vn -1.000000 0.000000 0.000000
vn -1.000000 0.000000 0.000000
vn -1.000000 0.000000 0.000000
vn -1.000000 0.000000 0.000000
vn 0.000000 0.040239 0.999190
vn 0.000000 0.084892 0.996390
vn 0.000000 0.084892 0.996390
vn 0.000000 0.040239 0.999190
vn -1.000000 0.000000 0.000000
vn -1.000000 0.000000 0.000000
vn -1.000000 0.000000 0.000000
vn -1.000000 0.000000 0.000000
vn -1.000000 0.000000 0.000000
vn -1.000000 0.000000 0.000000
vn -0.000033 0.530163 0.847896
vn -0.000033 0.530163 0.847896
vn 0.000034 0.530163 -0.847896
vn 0.000034 0.530163 -0.847896
vn 0.000000 -0.522929 0.852377
vn 0.000000 -0.522929 0.852377
vn 0.000000 -0.522929 -0.852376
vn 0.000000 -0.522929 -0.852376
vn 0.000000 -0.522929 -0.852376
vn 0.000000 -0.522929 -0.852376
vn 0.000000 -0.522929 0.852376
vn 0.000000 -0.522929 0.852376
vn 0.000012 0.178956 0.983857
vn 0.000012 0.178956 0.983857
vn 0.000000 -0.188349 -0.982102
vn 0.000000 -0.188349 -0.982102
vn 1.000000 0.000000 0.000000
vn 1.000000 0.000000 0.000000
vn 1.000000 0.000000 0.000000
vn 0.000000 -0.188349 0.982102
vn 0.000000 -0.188349 0.982102
vn -0.000011 0.178957 -0.983857
vn -0.000011 0.178957 -0.983857
vn 0.000000 -0.188349 0.982102
vn 0.000000 -0.188349 0.982102
vn -1.000000 -0.000000 0.000000
vn -1.000000 -0.000000 0.000000
vn -1.000000 -0.000000 0.000000
vn 0.000000 -0.188349 -0.982102
vn 0.000000 -0.188349 -0.982102
s 1
g grave3
usemtl initialShadingGroup
f 25/101/1 26/104/2 27/107/3 28/108/4
s 2
f 32/95/5 31/96/6 33/97/7 34/98/8
s 3
f 41/1/9 42/2/10 43/3/11 44/4/12
s 1
f 35/109/13 36/110/14 37/106/15 38/105/16
s 5
f 54/20/17 55/21/18 56/22/19 57/23/20
s 2
f 34/98/8 33/97/7 22/99/21 21/100/22
s 3
f 45/7/23 43/3/11 42/2/10 46/8/24
s 5
f 58/26/25 56/22/19 55/21/18 59/27/26
s off
f 35/109/27 24/113/28 23/114/29 36/110/30
f 29/111/31 28/108/32 27/107/33 30/112/34
s 1
f 25/101/1 39/102/35 40/103/36 26/104/2
s 3
f 43/3/11 45/7/23 47/9/37
s 5
f 56/22/19 58/26/25 60/28/38
f 64/24/39 63/25/40 55/21/18 54/20/17
f 59/27/26 55/21/18 63/25/40 65/31/41
s 3
f 51/5/42 50/6/43 42/2/10 41/1/9
f 46/8/24 42/2/10 50/6/43 52/12/44
s 1
f 40/103/36 39/102/35 38/105/16 37/106/15
s 3
f 43/3/11 47/9/37 44/4/12
s 5
f 56/22/19 60/28/38 57/23/20
s 6
f 17/39/45 13/40/46 27/41/47 26/42/48
s 7
f 11/67/49 16/68/50 25/69/51 28/70/52
s 6
f 4/55/53 5/59/54 33/60/55 31/56/56
s 7
f 6/89/57 3/85/58 32/86/59 34/90/60
s 6
f 9/53/61 18/49/62 37/50/63 36/54/64
s 7
f 15/75/65 7/79/66 35/80/67 38/76/68
s 6
f 5/59/54 2/63/69 22/64/70 33/60/55
s 7
f 1/93/71 6/89/57 34/90/60 21/94/72
f 7/79/66 8/83/73 24/84/74 35/80/67
s 6
f 10/57/75 9/53/61 36/54/64 23/58/76
s 7
f 12/73/77 11/67/49 28/70/52 29/74/78
s 6
f 13/40/46 14/43/79 30/44/80 27/41/47
s 7
f 16/68/50 19/71/81 39/72/82 25/69/51
s 6
f 20/45/83 17/39/45 26/42/48 40/46/84
s 7
f 19/71/81 15/75/65 38/76/68 39/72/82
s 6
f 18/49/62 20/45/83 40/46/84 37/50/63
s 12
f 16/123/85 11/127/86 41/128/87 44/124/88
f 7/125/89 15/119/90 45/122/91 46/126/92
f 15/119/90 19/120/93 47/121/94 45/122/91
s 14
f 3/137/95 6/138/96 49/139/97 48/140/98
f 6/138/96 1/141/99 53/142/100 49/139/97
s off
f 11/127/101 12/131/102 51/132/103 41/128/104
f 8/129/105 7/125/106 46/126/107 52/130/108
s 12
f 19/120/93 16/123/85 44/124/88 47/121/94
s 15
f 18/147/109 9/151/110 54/152/111 57/148/112
f 13/149/113 17/143/114 58/146/115 59/150/116
f 17/143/114 20/144/117 60/145/118 58/146/115
s 17
f 2/161/119 5/162/120 61/163/121 62/164/122
f 5/162/120 4/165/123 66/166/124 61/163/121
s off
f 9/151/125 10/155/126 64/156/127 54/152/128
f 14/153/129 13/149/130 59/150/131 65/154/132
s 15
f 20/144/117 18/147/109 57/148/112 60/145/118
s 18
f 67/167/133 68/168/134 93/169/135 94/170/136
s 7
f 68/87/137 67/91/138 70/92/139 69/88/140
s 19
f 69/173/141 70/174/142 72/175/143 71/176/144
s 6
f 71/61/145 72/65/146 74/66/147 73/62/148
s 20
f 73/179/149 74/180/150 76/181/151 75/182/152
s 5
f 75/29/153 76/32/154 78/33/155 77/30/156
f 77/30/156 78/33/155 80/37/157 79/34/158
s 22
f 79/185/159 80/186/160 82/187/161 81/188/162
s 6
f 81/47/163 82/51/164 84/52/165 83/48/166
s 23
f 83/191/167 84/192/168 86/193/169 85/194/170
s 7
f 85/77/171 86/81/172 88/82/173 87/78/174
s 24
f 87/197/175 88/198/176 90/199/177 89/200/178
s 3
f 89/10/179 90/13/180 92/14/181 91/11/182
f 91/11/182 92/14/181 94/18/183 93/15/184
s 19
f 69/117/141 71/118/144 23/114/185 24/113/186
s 23
f 29/111/187 30/112/188 83/115/167 85/116/170
s 5
f 75/29/153 77/30/156 63/25/40 64/24/39
f 65/31/41 63/25/40 77/30/156 79/34/158
s 3
f 89/10/179 91/11/182 50/6/43 51/5/42
f 52/12/44 50/6/43 91/11/182 93/15/184
s 6
f 71/61/145 73/62/148 10/57/75 23/58/76
s 7
f 8/83/73 68/87/137 69/88/140 24/84/74
s 6
f 14/43/79 81/47/163 83/48/166 30/44/80
s 7
f 85/77/171 87/78/174 12/73/77 29/74/78
s 24
f 12/131/189 87/135/175 89/136/178 51/132/190
s 18
f 93/133/135 68/134/134 8/129/191 52/130/192
s 20
f 10/155/193 73/159/149 75/160/152 64/156/194
s 22
f 79/157/159 81/158/162 14/153/195 65/154/196
s 7
f 70/92/139 67/91/138 1/93/71 21/94/72
s 19
f 21/177/197 22/178/198 72/175/143 70/174/142
s 6
f 2/63/69 74/66/147 72/65/146 22/64/70
s 20
f 76/181/151 74/180/150 2/183/199 62/184/200
s 5
f 62/35/201 61/36/202 78/33/155 76/32/154
f 80/37/157 78/33/155 61/36/202 66/38/203
s 22
f 4/189/204 82/187/161 80/186/160 66/190/205
s 6
f 84/52/165 82/51/164 4/55/53 31/56/56
s 23
f 86/193/169 84/192/168 31/195/206 32/196/207
s 7
f 3/85/58 88/82/173 86/81/172 32/86/59
s 24
f 90/199/177 88/198/176 3/201/208 48/202/209
s 3
f 48/16/210 49/17/211 92/14/181 90/13/180
f 94/18/183 92/14/181 49/17/211 53/19/212
s 18
f 1/171/213 67/167/133 94/170/136 53/172/214
