# This file uses centimeters as units for non-parametric coordinates.

mtllib light.mtl
g default
v -0.500000 -0.724392 0.500000
v 0.500000 -0.724392 0.500000
v -0.500000 22.724392 0.500000
v 0.500000 22.724392 0.500000
v -0.500000 22.724392 -0.500000
v 0.500000 22.724392 -0.500000
v -0.500000 -0.724392 -0.500000
v 0.500000 -0.724392 -0.500000
v -0.500000 21.490582 0.500000
v 0.500000 21.490582 0.500000
v 0.500000 21.490582 -0.500000
v -0.500000 21.490582 -0.500000
v 15.457363 21.490582 0.500000
v 15.457363 21.490582 -0.500000
v 15.457363 22.724392 -0.500000
v 15.457363 22.724392 0.500000
v 4.987209 21.490582 0.500000
v 4.987209 21.490582 -0.500000
v 4.987209 22.724392 -0.500000
v 4.987209 22.724392 0.500000
v 6.034224 21.490582 0.500000
v 6.034224 22.724392 0.500000
v 6.034224 22.724392 -0.500000
v 6.034224 21.490582 -0.500000
v -0.500000 17.047588 0.500000
v 0.500000 17.047588 0.500000
v 0.500000 17.047588 -0.500000
v -0.500000 17.047588 -0.500000
v -0.500000 15.270391 0.500000
v 0.500000 15.270391 0.500000
v 0.500000 15.270391 -0.500000
v -0.500000 15.270391 -0.500000
v 13.572735 21.490582 0.500000
v 13.572735 22.724392 0.500000
v 13.572735 22.724392 -0.500000
v 13.572735 21.490582 -0.500000
v 12.065032 21.490582 0.500000
v 12.065032 21.490582 -0.500000
v 12.065032 22.724392 -0.500000
v 12.065032 22.724392 0.500000
v 12.500177 21.490582 0.211384
v 12.500177 21.490582 -0.211384
v 13.137589 21.490582 -0.211384
v 13.137589 21.490582 0.211384
v 12.500177 18.340820 0.211384
v 12.500177 18.340820 -0.211384
v 13.137589 18.340820 -0.211384
v 13.137589 18.340820 0.211384
vt 0.482424 0.064410
vt 0.482424 0.001992
vt 0.485708 0.001992
vt 0.485708 0.064410
vt 0.491462 0.061125
vt 0.553879 0.061125
vt 0.553879 0.064409
vt 0.491462 0.064409
vt 0.491462 0.049299
vt 0.553879 0.049299
vt 0.491462 0.044568
vt 0.553879 0.044568
vt 0.491462 0.001992
vt 0.553879 0.001992
vt 0.560151 0.064410
vt 0.560151 0.001992
vt 0.571977 0.001992
vt 0.571977 0.064410
vt 0.578227 0.064410
vt 0.578227 0.001992
vt 0.620803 0.001992
vt 0.620803 0.064410
vt 0.696875 0.001992
vt 0.696875 0.028380
vt 0.688491 0.028380
vt 0.688491 0.001992
vt 0.711336 0.001992
vt 0.711336 0.028380
vt 0.702952 0.028380
vt 0.702952 0.001992
vt 0.070290 0.998008
vt 0.070290 0.935591
vt 0.132707 0.935591
vt 0.132707 0.998008
vt 0.070290 0.655511
vt 0.132707 0.655511
vt 0.070290 0.590159
vt 0.132707 0.590159
vt 0.070290 0.213732
vt 0.132707 0.213732
vt 0.070290 0.119626
vt 0.132707 0.119626
vt 0.070290 0.001992
vt 0.132707 0.001992
vt 0.413735 0.001992
vt 0.476152 0.001992
vt 0.476152 0.064410
vt 0.413735 0.064410
vt 0.338774 0.282072
vt 0.276357 0.282072
vt 0.276357 0.001992
vt 0.338774 0.001992
vt 0.653420 0.041778
vt 0.627032 0.041778
vt 0.627032 0.001992
vt 0.653420 0.001992
vt 0.345046 0.001992
vt 0.407463 0.001992
vt 0.407463 0.282072
vt 0.345046 0.282072
vt 0.207668 0.590159
vt 0.270085 0.590159
vt 0.270085 0.935591
vt 0.207668 0.935591
vt 0.207668 0.213732
vt 0.270085 0.213732
vt 0.225682 0.186572
vt 0.252070 0.186572
vt 0.207668 0.119626
vt 0.225682 0.146786
vt 0.270085 0.119626
vt 0.252070 0.146786
vt 0.207668 0.001992
vt 0.270085 0.001992
vt 0.060553 0.998008
vt 0.060553 0.935591
vt 0.063837 0.935591
vt 0.063837 0.998008
vt 0.048726 0.998008
vt 0.048726 0.935591
vt 0.060553 0.655511
vt 0.063837 0.655511
vt 0.043996 0.998008
vt 0.043996 0.935591
vt 0.060553 0.590159
vt 0.063837 0.590159
vt 0.001420 0.998008
vt 0.001420 0.935591
vt 0.060553 0.213732
vt 0.063837 0.213732
vt 0.060553 0.119626
vt 0.063837 0.119626
vt 0.060553 0.001992
vt 0.063837 0.001992
vt 0.138979 0.998008
vt 0.138979 0.935590
vt 0.142263 0.935590
vt 0.142263 0.998008
vt 0.138979 0.655511
vt 0.142263 0.655511
vt 0.154089 0.935590
vt 0.154089 0.998008
vt 0.138979 0.590159
vt 0.142263 0.590159
vt 0.158820 0.935590
vt 0.158820 0.998008
vt 0.138979 0.213732
vt 0.142263 0.213732
vt 0.201396 0.935590
vt 0.201396 0.998008
vt 0.138979 0.119625
vt 0.142263 0.119625
vt 0.138979 0.001992
vt 0.142263 0.001992
vt 0.659569 0.041778
vt 0.659569 0.001992
vt 0.667953 0.001992
vt 0.667953 0.041778
vt 0.682414 0.001992
vt 0.682414 0.041778
vt 0.674030 0.041778
vt 0.674030 0.001992
vn 0.000000 0.000000 1.000000
vn 0.000000 0.000000 1.000000
vn 0.000000 0.000000 1.000000
vn 0.000000 0.000000 1.000000
vn 0.000000 1.000000 0.000000
vn 0.000000 1.000000 0.000000
vn 0.000000 1.000000 0.000000
vn 0.000000 1.000000 0.000000
vn 0.000000 0.000000 -1.000000
vn 0.000000 0.000000 -1.000000
vn 0.000000 0.000000 -1.000000
vn 0.000000 0.000000 -1.000000
vn 0.000000 -1.000000 0.000000
vn 0.000000 -1.000000 0.000000
vn 0.000000 -1.000000 0.000000
vn 0.000000 -1.000000 0.000000
vn 1.000000 0.000000 0.000000
vn 1.000000 0.000000 0.000000
vn 1.000000 0.000000 0.000000
vn 1.000000 0.000000 0.000000
vn -1.000000 0.000000 0.000000
vn -1.000000 0.000000 0.000000
vn -1.000000 0.000000 0.000000
vn -1.000000 0.000000 0.000000
vn 0.000000 0.000000 1.000000
vn 0.000000 0.000000 1.000000
vn 1.000000 0.000000 0.000000
vn 1.000000 0.000000 0.000000
vn 1.000000 0.000000 0.000000
vn 1.000000 0.000000 0.000000
vn 0.000000 0.000000 -1.000000
vn 0.000000 0.000000 -1.000000
vn -1.000000 0.000000 0.000000
vn -1.000000 0.000000 0.000000
vn 0.000000 0.000000 -1.000000
vn 0.000000 0.000000 -1.000000
vn 0.000000 0.000000 -1.000000
vn 0.000000 0.000000 -1.000000
vn 0.000000 1.000000 0.000000
vn 0.000000 1.000000 0.000000
vn 0.000000 1.000000 0.000000
vn 0.000000 1.000000 0.000000
vn 0.000000 0.000000 1.000000
vn 0.000000 0.000000 1.000000
vn 0.000000 0.000000 1.000000
vn 0.000000 0.000000 1.000000
vn 0.000000 -1.000000 0.000000
vn 0.000000 -1.000000 0.000000
vn 0.000000 -1.000000 0.000000
vn 0.000000 -1.000000 0.000000
vn 0.000000 0.000000 1.000000
vn 0.000000 0.000000 1.000000
vn 0.000000 0.000000 1.000000
vn 0.000000 0.000000 1.000000
vn 0.000000 1.000000 0.000000
vn 0.000000 1.000000 0.000000
vn 0.000000 1.000000 0.000000
vn 0.000000 1.000000 0.000000
vn 0.000000 0.000000 -1.000000
vn 0.000000 0.000000 -1.000000
vn 0.000000 0.000000 -1.000000
vn 0.000000 0.000000 -1.000000
vn 0.000000 -1.000000 0.000000
vn 0.000000 -1.000000 0.000000
vn 0.000000 -1.000000 0.000000
vn 0.000000 -1.000000 0.000000
vn 0.000000 0.000000 1.000000
vn 0.000000 0.000000 1.000000
vn 0.000000 0.000000 -1.000000
vn 0.000000 0.000000 -1.000000
vn -1.000000 0.000000 0.000000
vn -1.000000 0.000000 0.000000
vn 0.000000 0.000000 1.000000
vn 0.000000 0.000000 1.000000
vn 1.000000 0.000000 0.000000
vn 1.000000 0.000000 0.000000
vn 1.000000 0.000000 0.000000
vn 1.000000 0.000000 0.000000
vn 0.000000 0.000000 -1.000000
vn 0.000000 0.000000 -1.000000
vn -1.000000 0.000000 0.000000
vn -1.000000 0.000000 0.000000
vn 0.000000 0.000000 1.000000
vn 0.000000 0.000000 1.000000
vn 0.000000 0.000000 1.000000
vn 0.000000 0.000000 1.000000
vn -0.703597 0.710599 0.000000
vn -0.703597 0.710599 0.000000
vn -0.703597 0.710599 0.000000
vn -0.703597 0.710599 0.000000
vn 0.000000 0.000000 -1.000000
vn 0.000000 0.000000 -1.000000
vn 0.000000 0.000000 -1.000000
vn 0.000000 0.000000 -1.000000
vn 0.747101 -0.664710 0.000000
vn 0.747101 -0.664710 0.000000
vn 0.747101 -0.664710 0.000000
vn 0.747101 -0.664710 0.000000
vn 0.000000 0.000000 1.000000
vn 0.000000 0.000000 1.000000
vn 0.000000 1.000000 0.000000
vn 0.000000 1.000000 0.000000
vn 0.000000 0.000000 -1.000000
vn 0.000000 0.000000 -1.000000
vn 0.000000 -1.000000 0.000000
vn 0.000000 -1.000000 0.000000
vn 0.000000 -1.000000 0.000000
vn 0.000000 -1.000000 0.000000
vn 0.000000 -1.000000 0.000000
vn 0.000000 -1.000000 0.000000
vn 0.000000 -1.000000 0.000000
vn 0.000000 -1.000000 0.000000
vn 0.000000 -1.000000 0.000000
vn 0.000000 -1.000000 0.000000
vn 0.000000 -1.000000 0.000000
vn 0.000000 -1.000000 0.000000
vn 0.000000 -1.000000 0.000003
vn 0.000000 -1.000000 0.000003
vn 0.000000 -1.000000 0.000003
vn 0.000000 -1.000000 0.000003
vn 0.000000 -1.000000 0.000000
vn 0.000000 -1.000000 0.000000
vn 0.000000 -1.000000 0.000000
vn 0.000000 -1.000000 0.000000
vn 0.000000 -1.000000 -0.000006
vn 0.000000 -1.000000 -0.000006
vn 0.000000 -1.000000 -0.000006
vn 0.000000 -1.000000 -0.000006
vn -1.000000 0.000000 0.000000
vn -1.000000 0.000000 0.000000
vn -1.000000 0.000000 0.000000
vn -1.000000 0.000000 0.000000
vn 0.000000 0.000000 -1.000000
vn 0.000000 0.000000 -1.000000
vn 0.000000 0.000000 -1.000000
vn 0.000000 0.000000 -1.000000
vn 1.000000 0.000000 0.000000
vn 1.000000 0.000000 0.000000
vn 1.000000 0.000000 0.000000
vn 1.000000 0.000000 0.000000
vn 0.000000 0.000000 1.000000
vn 0.000000 0.000000 1.000000
vn 0.000000 0.000000 1.000000
vn 0.000000 0.000000 1.000000
s 1
g light
usemtl initialShadingGroup
f 9/75/1 10/76/2 4/77/3 3/78/4
s 2
f 3/31/5 4/32/6 6/33/7 5/34/8
s 3
f 5/95/9 6/96/10 11/97/11 12/98/12
s off
f 7/45/13 8/46/14 2/47/15 1/48/16
f 13/1/17 14/2/18 15/3/19 16/4/20
s 4
f 12/5/21 9/6/22 3/7/23 5/8/24
s 1
f 25/79/25 26/80/26 10/76/2 9/75/1
s off
f 26/15/27 27/16/28 11/17/29 10/18/30
s 3
f 12/98/12 11/97/11 27/101/31 28/102/32
s 4
f 28/9/33 25/10/34 9/6/22 12/5/21
s 3
f 18/100/35 19/99/36 23/103/37 24/104/38
s 2
f 19/36/39 20/35/40 22/37/41 23/38/42
s 1
f 20/82/43 17/81/44 21/85/45 22/86/46
s off
f 10/49/47 11/50/48 18/51/49 17/52/50
s 3
f 11/97/11 6/96/10 19/99/36 18/100/35
s 2
f 6/33/7 4/32/6 20/35/40 19/36/39
s 1
f 4/77/3 10/76/2 17/81/44 20/82/43
f 40/90/51 37/89/52 33/91/53 34/92/54
s 2
f 39/40/55 40/39/56 34/41/57 35/42/58
s 3
f 38/108/59 39/107/60 35/111/61 36/112/62
s off
f 45/53/63 46/54/64 47/55/65 48/56/66
s 1
f 29/83/67 30/84/68 26/80/26 25/79/25
s 3
f 28/102/32 27/101/31 31/105/69 32/106/70
s 4
f 32/11/71 29/12/72 25/10/34 28/9/33
s 1
f 1/87/73 2/88/74 30/84/68 29/83/67
s off
f 2/19/75 8/20/76 31/21/77 30/22/78
s 3
f 32/106/70 31/105/69 8/109/79 7/110/80
s 4
f 7/13/81 1/14/82 29/12/72 32/11/71
s off
f 21/85/83 17/81/84 26/80/85 30/84/86
f 17/57/87 18/58/88 27/59/89 26/60/90
f 18/100/91 24/104/92 31/105/93 27/101/94
f 24/61/95 21/62/96 30/63/97 31/64/98
s 1
f 34/92/54 33/91/53 13/93/99 16/94/100
s 2
f 35/42/58 34/41/57 16/43/101 15/44/102
s 3
f 36/112/62 35/111/61 15/113/103 14/114/104
s off
f 33/71/105 36/69/106 14/73/107 13/74/108
f 21/62/109 24/61/110 38/65/111 37/66/112
s 3
f 24/104/38 23/103/37 39/107/60 38/108/59
s 2
f 23/38/42 22/37/41 40/39/56 39/40/55
s 1
f 22/86/46 21/85/45 37/89/52 40/90/51
s off
f 37/66/113 38/65/114 42/67/115 41/68/116
f 38/65/117 36/69/118 43/70/119 42/67/120
f 36/69/121 33/71/122 44/72/123 43/70/124
f 33/71/125 37/66/126 41/68/127 44/72/128
f 41/23/129 42/24/130 46/25/131 45/26/132
f 42/115/133 43/116/134 47/117/135 46/118/136
f 43/27/137 44/28/138 48/29/139 47/30/140
f 44/119/141 41/120/142 45/121/143 48/122/144
