# This file uses centimeters as units for non-parametric coordinates.

mtllib torch.mtl
g default
v -1.030761 14.365818 1.030761
v 1.030761 14.365818 1.030761
v -1.030761 17.634182 1.030761
v 1.030761 17.634182 1.030761
v -1.030761 17.634182 -1.030761
v 1.030761 17.634182 -1.030761
v -1.030761 14.365818 -1.030761
v 1.030761 14.365818 -1.030761
v -1.030761 18.003922 1.030761
v 1.030761 18.003922 1.030761
v 1.030761 18.003922 -1.030761
v -1.030761 18.003922 -1.030761
v -0.830759 14.565818 0.889655
v 0.830761 14.565818 0.889655
v 0.830761 17.434181 0.889655
v -0.830759 17.434181 0.889655
v -0.830759 17.434181 -0.889655
v 0.830761 17.434181 -0.889655
v 0.830761 14.565818 -0.889655
v -0.830759 14.565818 -0.889655
v 0.889652 14.565818 -0.830761
v 0.889652 14.565818 0.830761
v 0.889652 17.434181 -0.830761
v 0.889652 17.434181 0.830761
v -0.889652 14.565818 -0.830761
v -0.889652 14.565818 0.830761
v -0.889652 17.434181 0.830761
v -0.889652 17.434181 -0.830761
v -0.901305 14.495272 1.030761
v -0.830759 14.565818 0.960216
v 0.901307 14.495272 1.030761
v 0.830761 14.565818 0.960216
v 0.901307 17.504728 1.030761
v 0.830761 17.434181 0.960216
v -0.901305 17.504728 1.030761
v -0.830759 17.434181 0.960216
v -0.901305 17.504728 -1.030761
v -0.830759 17.434181 -0.960216
v 0.901307 17.504728 -1.030761
v 0.830761 17.434181 -0.960216
v 0.901307 14.495272 -1.030761
v 0.830761 14.565818 -0.960216
v -0.901305 14.495272 -1.030761
v -0.830759 14.565818 -0.960216
v 1.030761 14.495272 -0.901306
v 0.960215 14.565818 -0.830761
v 1.030761 14.495272 0.901306
v 0.960215 14.565818 0.830761
v 1.030761 17.504728 -0.901306
v 0.960215 17.434181 -0.830761
v 1.030761 17.504728 0.901306
v 0.960215 17.434181 0.830761
v -1.030761 14.495272 -0.901306
v -0.960215 14.565818 -0.830761
v -1.030761 14.495272 0.901306
v -0.960215 14.565818 0.830761
v -1.030761 17.504728 0.901306
v -0.960215 17.434181 0.830761
v -1.030761 17.504728 -0.901306
v -0.960215 17.434181 -0.830761
v 0.000000 14.365818 1.030761
v 0.000000 14.365818 -1.030761
v 0.000001 14.495272 -1.030761
v 0.000001 14.565818 -0.960216
v 0.000001 14.565818 -0.889655
v 0.000001 17.434181 -0.889655
v 0.000001 17.434181 -0.960216
v 0.000001 17.504728 -1.030761
v 0.000000 18.182842 -1.030761
v 0.000000 18.552582 -1.030761
v 0.000000 18.552582 1.030761
v 0.000000 18.182842 1.030761
v 0.000001 17.504728 1.030761
v 0.000001 17.434181 0.960216
v 0.000001 17.434181 0.889655
v 0.000001 14.565818 0.889655
v 0.000001 14.565818 0.960216
v 0.000001 14.495272 1.030761
v 1.510123 17.362053 1.030761
v 1.510123 17.362053 -1.030761
v 1.510123 17.731791 -1.030761
v 1.510123 17.731791 1.030761
v -1.510123 17.362053 1.030761
v -1.510123 17.362053 -1.030761
v -1.510123 17.731791 1.030761
v -1.510123 17.731791 -1.030761
v 0.000000 18.552582 1.179954
v 0.000000 18.182842 1.179954
v 1.030761 17.634182 1.179954
v 1.030761 18.003922 1.179954
v -1.030761 17.634182 1.179954
v -1.030761 18.003922 1.179954
v 1.510123 17.362053 1.179954
v 1.510123 17.731791 1.179954
v -1.510123 17.731791 1.179954
v -1.510123 17.362053 1.179954
v 0.000000 18.182842 -1.179954
v 1.030761 17.634182 -1.179954
v 0.000000 18.552582 -1.179954
v 1.030761 18.003922 -1.179954
v -1.030761 17.634182 -1.179954
v -1.030761 18.003922 -1.179954
v 1.510123 17.731791 -1.179954
v 1.510123 17.362053 -1.179954
v -1.510123 17.362053 -1.179954
v -1.510123 17.731791 -1.179954
vt 0.702392 0.598302
vt 0.884140 0.598302
vt 0.884140 0.796207
vt 0.702392 0.796207
vt 0.792663 0.800104
vt 0.974411 0.800104
vt 0.974411 0.998008
vt 0.792663 0.998008
vt 0.717408 0.511069
vt 0.717408 0.285567
vt 0.742918 0.285567
vt 0.742918 0.511069
vt 0.717408 0.269247
vt 0.742918 0.269247
vt 0.742918 0.527389
vt 0.717408 0.527389
vt 0.685907 0.578086
vt 0.685907 0.352583
vt 0.711418 0.352583
vt 0.711418 0.578086
vt 0.685907 0.336263
vt 0.711418 0.336263
vt 0.711418 0.594405
vt 0.685907 0.594405
vt 0.222922 0.336263
vt 0.448424 0.336263
vt 0.434264 0.345195
vt 0.237082 0.345195
vt 0.448424 0.561766
vt 0.434264 0.552834
vt 0.426547 0.350062
vt 0.244799 0.350062
vt 0.222922 0.561766
vt 0.237082 0.552834
vt 0.426547 0.547967
vt 0.244799 0.547967
vt 0.001945 0.565663
vt 0.227447 0.565663
vt 0.213287 0.574595
vt 0.016106 0.574595
vt 0.227447 0.791166
vt 0.213287 0.782234
vt 0.023822 0.579462
vt 0.205570 0.579462
vt 0.001945 0.791166
vt 0.016106 0.782234
vt 0.205570 0.777366
vt 0.023822 0.777366
vt 0.264838 0.570530
vt 0.264838 0.768435
vt 0.257120 0.768435
vt 0.257120 0.570530
vt 0.272555 0.565663
vt 0.272555 0.773302
vt 0.242002 0.768435
vt 0.242002 0.570530
vt 0.249721 0.570530
vt 0.249721 0.768435
vt 0.234286 0.565663
vt 0.234286 0.773302
vt 0.310506 0.768435
vt 0.310506 0.570530
vt 0.318224 0.570530
vt 0.318224 0.768435
vt 0.302789 0.773302
vt 0.302789 0.565663
vt 0.287673 0.570530
vt 0.287673 0.768435
vt 0.279954 0.768435
vt 0.279954 0.570530
vt 0.295390 0.773302
vt 0.295390 0.565663
vt 0.243767 0.167179
vt 0.018265 0.167179
vt 0.018265 0.054428
vt 0.243767 0.054428
vt 0.018265 0.279930
vt 0.243767 0.279930
vt 0.001945 0.167179
vt 0.001945 0.054428
vt 0.018265 0.001992
vt 0.243767 0.001992
vt 0.260087 0.054428
vt 0.260087 0.167179
vt 0.001945 0.279930
vt 0.260087 0.279930
vt 0.243767 0.332366
vt 0.018265 0.332366
vt 0.001945 0.001992
vt 0.260087 0.001992
vt 0.001945 0.332366
vt 0.260087 0.332366
vt 0.567166 0.561766
vt 0.567166 0.336263
vt 0.679917 0.336263
vt 0.679917 0.561766
vt 0.454415 0.336263
vt 0.454415 0.561766
vt 0.731837 0.898695
vt 0.724119 0.898695
vt 0.724119 0.807821
vt 0.731837 0.807821
vt 0.724119 0.989568
vt 0.731837 0.989568
vt 0.716402 0.898695
vt 0.716402 0.800104
vt 0.716402 0.997285
vt 0.702695 0.807820
vt 0.702695 0.898694
vt 0.694977 0.898694
vt 0.694977 0.807820
vt 0.710412 0.800104
vt 0.710412 0.898694
vt 0.702695 0.989568
vt 0.694977 0.989568
vt 0.710412 0.997285
vt 0.688987 0.898694
vt 0.681268 0.898694
vt 0.681268 0.807820
vt 0.688987 0.807820
vt 0.681268 0.989568
vt 0.688987 0.989568
vt 0.673551 0.898694
vt 0.673551 0.800104
vt 0.673551 0.997285
vt 0.659845 0.807820
vt 0.659845 0.898694
vt 0.652126 0.898694
vt 0.652126 0.807820
vt 0.667561 0.800104
vt 0.667561 0.898694
vt 0.659845 0.989568
vt 0.652126 0.989568
vt 0.667561 0.997285
vt 0.646136 0.800104
vt 0.646136 0.981852
vt 0.638417 0.981852
vt 0.638417 0.800104
vt 0.632427 0.800104
vt 0.632427 0.981852
vt 0.624708 0.981852
vt 0.624708 0.800104
vt 0.610999 0.981852
vt 0.610999 0.800104
vt 0.618718 0.800104
vt 0.618718 0.981852
vt 0.597291 0.981852
vt 0.597291 0.800104
vt 0.605009 0.800104
vt 0.605009 0.981852
vt 0.687326 0.054428
vt 0.461824 0.054428
vt 0.461824 0.001992
vt 0.687326 0.001992
vt 0.445504 0.054428
vt 0.445504 0.001992
vt 0.703646 0.001992
vt 0.703646 0.054428
vt 0.461824 0.167179
vt 0.445504 0.167179
vt 0.687326 0.167179
vt 0.703646 0.167179
vt 0.461824 0.279930
vt 0.445504 0.279930
vt 0.687326 0.279930
vt 0.703646 0.279930
vt 0.461824 0.332366
vt 0.445504 0.332366
vt 0.687326 0.332366
vt 0.703646 0.332366
vt 0.416497 0.763567
vt 0.416497 0.565663
vt 0.507371 0.565663
vt 0.507371 0.763567
vt 0.325623 0.565663
vt 0.325623 0.763567
vt 0.604882 0.796207
vt 0.604882 0.598302
vt 0.695756 0.598302
vt 0.695756 0.796207
vt 0.514008 0.598302
vt 0.514008 0.796207
vt 0.348776 0.167179
vt 0.323265 0.167179
vt 0.285410 0.054428
vt 0.310921 0.054428
vt 0.285410 0.279930
vt 0.310921 0.279930
vt 0.266634 0.001992
vt 0.292145 0.001992
vt 0.292145 0.332366
vt 0.266634 0.332366
vt 0.419435 0.054428
vt 0.381580 0.167179
vt 0.356069 0.167179
vt 0.393924 0.054428
vt 0.419435 0.279930
vt 0.393924 0.279930
vt 0.412700 0.001992
vt 0.438210 0.001992
vt 0.438210 0.332366
vt 0.412700 0.332366
vt 0.822755 0.010924
vt 0.822755 0.001992
vt 0.935506 0.001992
vt 0.921345 0.010924
vt 0.710003 0.001992
vt 0.724164 0.010924
vt 0.935506 0.227495
vt 0.921345 0.218563
vt 0.710003 0.227495
vt 0.724164 0.218563
vt 0.822755 0.265350
vt 0.822755 0.218563
vt 0.861660 0.316034
vt 0.861660 0.269247
vt 0.974411 0.307102
vt 0.960251 0.316034
vt 0.748909 0.307102
vt 0.763069 0.316034
vt 0.974411 0.532604
vt 0.960251 0.523673
vt 0.748909 0.532604
vt 0.763069 0.523673
vt 0.861660 0.532604
vt 0.861660 0.523673
vt 0.786673 0.800104
vt 0.786673 0.998008
vt 0.778954 0.998008
vt 0.778954 0.800104
vt 0.772964 0.800104
vt 0.772964 0.998008
vt 0.765245 0.998008
vt 0.765245 0.800104
vt 0.751536 0.998008
vt 0.751536 0.800104
vt 0.759255 0.800104
vt 0.759255 0.998008
vt 0.737827 0.998008
vt 0.737827 0.800104
vt 0.745546 0.800104
vt 0.745546 0.998008
vn 0.000000 0.000000 1.000000
vn 0.000000 0.000000 1.000000
vn 0.000000 0.000000 1.000000
vn 0.000000 0.000000 1.000000
vn 0.469869 0.882736 0.000000
vn 0.469869 0.882736 0.000000
vn 0.477546 0.878607 0.000000
vn 0.477546 0.878607 0.000000
vn 0.000000 0.000000 -1.000000
vn 0.000000 0.000000 -1.000000
vn 0.000000 0.000000 -1.000000
vn 0.000000 0.000000 -1.000000
vn 0.000000 -1.000000 0.000000
vn 0.000000 -1.000000 0.000000
vn 0.000000 -1.000000 0.000000
vn 0.000000 -1.000000 0.000000
vn 1.000000 0.000000 0.000000
vn 1.000000 0.000000 0.000000
vn 1.000000 0.000000 0.000000
vn 1.000000 0.000000 0.000000
vn -1.000000 0.000000 0.000000
vn -1.000000 0.000000 0.000000
vn -1.000000 0.000000 0.000000
vn -1.000000 0.000000 0.000000
vn 0.000000 0.000000 1.000000
vn 0.000000 0.000000 1.000000
vn 0.000000 0.000000 1.000000
vn 0.000000 0.000000 1.000000
vn 1.000000 0.000000 0.000000
vn 1.000000 0.000000 0.000000
vn 1.000000 0.000000 0.000000
vn 1.000000 0.000000 0.000000
vn 0.000000 0.000000 -1.000000
vn 0.000000 0.000000 -1.000000
vn 0.000000 0.000000 -1.000000
vn 0.000000 0.000000 -1.000000
vn -1.000000 0.000000 0.000000
vn -1.000000 0.000000 0.000000
vn -1.000000 0.000000 0.000000
vn -1.000000 0.000000 0.000000
vn 0.707102 0.000000 0.707112
vn 0.707102 0.000000 0.707112
vn 0.707102 0.000000 0.707112
vn 0.707102 0.000000 0.707112
vn 0.000000 0.707095 0.707119
vn 0.000000 0.707095 0.707119
vn 0.000000 0.707094 0.707119
vn 0.000000 0.707095 0.707119
vn -0.707102 0.000000 0.707112
vn -0.707102 0.000000 0.707112
vn -0.707102 0.000000 0.707112
vn -0.707102 0.000000 0.707112
vn 0.000000 -0.707089 0.707125
vn 0.000000 -0.707089 0.707125
vn 0.000000 -0.707089 0.707125
vn 0.000000 -0.707089 0.707125
vn 0.707102 0.000000 -0.707112
vn 0.707102 0.000000 -0.707112
vn 0.707102 0.000000 -0.707112
vn 0.707102 0.000000 -0.707112
vn 0.000000 -0.707089 -0.707125
vn 0.000000 -0.707089 -0.707125
vn 0.000000 -0.707089 -0.707125
vn 0.000000 -0.707089 -0.707125
vn -0.707102 0.000000 -0.707112
vn -0.707102 0.000000 -0.707112
vn -0.707102 0.000000 -0.707112
vn -0.707102 0.000000 -0.707112
vn 0.000000 0.707094 -0.707119
vn 0.000000 0.707095 -0.707119
vn 0.000000 0.707095 -0.707119
vn 0.000000 0.707095 -0.707119
vn 0.707109 0.707104 0.000000
vn 0.707109 0.707104 0.000000
vn 0.707109 0.707104 0.000000
vn 0.707109 0.707104 0.000000
vn 0.707102 0.000000 0.707112
vn 0.707102 0.000000 0.707112
vn 0.707102 0.000000 0.707112
vn 0.707102 0.000000 0.707112
vn 0.707102 0.000000 -0.707112
vn 0.707102 0.000000 -0.707112
vn 0.707102 0.000000 -0.707112
vn 0.707102 0.000000 -0.707112
vn 0.707114 -0.707100 0.000000
vn 0.707114 -0.707100 0.000000
vn 0.707114 -0.707100 0.000000
vn 0.707114 -0.707100 0.000000
vn -0.707102 0.000000 0.707112
vn -0.707102 0.000000 0.707112
vn -0.707102 0.000000 0.707112
vn -0.707102 0.000000 0.707112
vn -0.707109 0.707104 0.000000
vn -0.707109 0.707104 0.000000
vn -0.707109 0.707104 0.000000
vn -0.707109 0.707104 0.000000
vn -0.707102 0.000000 -0.707112
vn -0.707102 0.000000 -0.707112
vn -0.707102 0.000000 -0.707112
vn -0.707102 0.000000 -0.707112
vn -0.707114 -0.707100 0.000000
vn -0.707114 -0.707100 0.000000
vn -0.707114 -0.707100 0.000000
vn -0.707114 -0.707100 0.000000
vn 0.000000 0.000000 1.000000
vn 0.000000 0.000000 1.000000
vn 0.000000 0.000000 1.000000
vn 0.000000 0.000000 1.000000
vn 0.000000 0.000000 1.000000
vn 0.000000 0.000000 1.000000
vn 0.000000 0.000000 1.000000
vn 0.000000 0.000000 1.000000
vn -0.000000 0.000000 1.000000
vn -0.000000 0.000000 1.000000
vn -0.000000 0.000000 1.000000
vn -0.000000 0.000000 1.000000
vn 0.000000 0.000000 -1.000000
vn -0.000000 0.000000 -1.000000
vn 0.000000 0.000000 -1.000000
vn 0.000000 0.000000 -1.000000
vn 0.000000 0.000000 -1.000000
vn 0.000000 0.000000 -1.000000
vn 0.000000 0.000000 -1.000000
vn 0.000000 0.000000 -1.000000
vn -0.000000 0.000000 -1.000000
vn -0.000000 0.000000 -1.000000
vn -0.000000 0.000000 -1.000000
vn -0.000000 0.000000 -1.000000
vn 1.000000 -0.000000 0.000000
vn 1.000000 -0.000000 0.000000
vn 1.000000 -0.000000 0.000000
vn 1.000000 -0.000000 0.000000
vn 1.000000 0.000000 0.000000
vn 1.000000 0.000000 0.000000
vn 1.000000 0.000000 0.000000
vn 1.000000 0.000000 0.000000
vn -1.000000 -0.000000 0.000000
vn -1.000000 -0.000000 0.000000
vn -1.000000 -0.000000 0.000000
vn -1.000000 -0.000000 0.000000
vn -1.000000 0.000000 0.000000
vn -1.000000 0.000000 0.000000
vn -1.000000 0.000000 0.000000
vn -1.000000 0.000000 0.000000
vn 0.000000 1.000000 0.000000
vn 0.000000 1.000000 0.000000
vn 0.000000 1.000000 0.000000
vn 0.000000 1.000000 0.000000
vn -1.000000 0.000000 0.000000
vn -1.000000 0.000000 0.000000
vn -1.000000 0.000000 0.000000
vn -1.000000 0.000000 0.000000
vn 0.000000 -1.000000 0.000000
vn 0.000000 -1.000000 0.000000
vn 0.000000 -1.000000 0.000000
vn 0.000000 -1.000000 0.000000
vn 1.000000 0.000000 0.000000
vn 1.000000 0.000000 0.000000
vn 1.000000 0.000000 0.000000
vn 1.000000 0.000000 0.000000
vn 0.000000 -1.000000 0.000000
vn 0.000000 -1.000000 0.000000
vn 0.000000 -1.000000 0.000000
vn 0.000000 -1.000000 0.000000
vn -1.000000 0.000000 0.000000
vn -1.000000 0.000000 0.000000
vn -1.000000 0.000000 0.000000
vn -1.000000 0.000000 0.000000
vn 0.000000 1.000000 0.000000
vn 0.000000 1.000000 0.000000
vn 0.000000 1.000000 0.000000
vn 0.000000 1.000000 0.000000
vn 1.000000 0.000000 0.000000
vn 1.000000 0.000000 0.000000
vn 1.000000 0.000000 0.000000
vn 1.000000 0.000000 0.000000
vn 0.000000 1.000000 0.000000
vn 0.000000 1.000000 0.000000
vn 0.000000 1.000000 0.000000
vn 0.000000 1.000000 0.000000
vn 0.000000 0.000000 1.000000
vn 0.000000 0.000000 1.000000
vn 0.000000 0.000000 1.000000
vn 0.000000 0.000000 1.000000
vn 0.000000 -1.000000 0.000000
vn 0.000000 -1.000000 0.000000
vn 0.000000 -1.000000 0.000000
vn 0.000000 -1.000000 0.000000
vn 0.000000 0.000000 -1.000000
vn 0.000000 0.000000 -1.000000
vn 0.000000 0.000000 -1.000000
vn 0.000000 0.000000 -1.000000
vn 0.000000 1.000000 0.000000
vn 0.000000 1.000000 0.000000
vn 0.000000 1.000000 0.000000
vn 0.000000 1.000000 0.000000
vn 0.000000 0.000000 -1.000000
vn 0.000000 0.000000 -1.000000
vn 0.000000 0.000000 -1.000000
vn 0.000000 0.000000 -1.000000
vn 0.000000 -1.000000 0.000000
vn 0.000000 -1.000000 0.000000
vn 0.000000 -1.000000 0.000000
vn 0.000000 -1.000000 0.000000
vn 0.000000 0.000000 1.000000
vn 0.000000 0.000000 1.000000
vn 0.000000 0.000000 1.000000
vn 0.000000 0.000000 1.000000
vn 0.000000 -1.000000 0.000000
vn 0.000000 -1.000000 0.000000
vn 0.000000 0.707095 -0.707119
vn 0.000000 0.707095 -0.707119
vn 0.000000 1.000000 0.000000
vn 0.000000 1.000000 0.000000
vn 0.000000 0.000000 -1.000000
vn 0.000000 0.000000 -1.000000
vn 0.000000 -1.000000 0.000000
vn 0.000000 -1.000000 0.000000
vn 0.000000 -0.707089 -0.707125
vn 0.000000 -0.707089 -0.707125
vn -0.000000 0.000000 -1.000000
vn -0.000000 0.000000 -1.000000
vn -0.477546 0.878607 0.000000
vn -0.469869 0.882736 0.000000
vn -0.469869 0.882736 0.000000
vn -0.477546 0.878607 0.000000
vn -0.000000 0.000000 1.000000
vn -0.000000 0.000000 1.000000
vn 0.000000 -0.707089 0.707125
vn 0.000000 -0.707089 0.707125
vn 0.000000 -1.000000 0.000000
vn 0.000000 -1.000000 0.000000
vn 0.000000 0.000000 1.000000
vn 0.000000 0.000000 1.000000
vn 0.000000 1.000000 0.000000
vn 0.000000 1.000000 0.000000
vn 0.000000 0.707094 0.707119
vn 0.000000 0.707095 0.707119
vn -0.490726 -0.871314 0.000000
vn -0.490726 -0.871314 0.000000
vn -0.493685 -0.869641 0.000000
vn -0.493685 -0.869641 0.000000
vn 0.000000 0.000000 -1.000000
vn 0.000000 0.000000 -1.000000
vn 0.493688 0.869639 0.000000
vn 0.493688 0.869639 0.000000
vn 0.000000 0.000000 1.000000
vn 0.000000 0.000000 1.000000
vn 0.490726 -0.871314 0.000000
vn 0.490726 -0.871314 0.000000
vn 0.493685 -0.869641 0.000000
vn 0.493685 -0.869641 0.000000
vn -0.000000 0.000000 1.000000
vn -0.000000 0.000000 1.000000
vn -0.493688 0.869639 0.000000
vn -0.493688 0.869639 0.000000
vn -0.000000 0.000000 -1.000000
vn -0.000000 0.000000 -1.000000
vn -0.469869 -0.882736 0.000000
vn -0.477545 -0.878607 0.000000
vn -0.469869 -0.882736 0.000000
vn 0.469869 0.882736 0.000000
vn 0.477546 0.878607 0.000000
vn 0.469869 -0.882736 0.000000
vn 0.469869 -0.882736 0.000000
vn 0.477545 -0.878607 0.000000
vn -0.477546 0.878607 0.000000
vn -0.469869 0.882736 0.000000
vn -0.493685 -0.869641 0.000000
vn 1.000000 0.000000 0.000000
vn 1.000000 0.000000 0.000000
vn 0.493688 0.869639 0.000000
vn -0.493688 0.869639 0.000000
vn -1.000000 0.000000 0.000000
vn -1.000000 0.000000 0.000000
vn 0.493685 -0.869641 0.000000
vn -0.469869 -0.882736 0.000000
vn -0.469869 -0.882736 0.000000
vn -0.477545 -0.878607 0.000000
vn 0.477546 0.878607 0.000000
vn 0.469869 0.882736 0.000000
vn 0.469869 -0.882736 0.000000
vn 0.477545 -0.878607 0.000000
vn 0.469869 -0.882736 0.000000
vn -0.469869 0.882736 0.000000
vn -0.477546 0.878607 0.000000
vn 0.493688 0.869639 0.000000
vn 1.000000 0.000000 0.000000
vn 1.000000 0.000000 0.000000
vn -0.493685 -0.869641 0.000000
vn 0.493685 -0.869641 0.000000
vn -1.000000 0.000000 0.000000
vn -1.000000 0.000000 0.000000
vn -0.493688 0.869639 0.000000
s 1
g torch
usemtl initialShadingGroup
f 75/171/1 76/172/2 14/173/3 15/174/4
s 2
f 70/73/5 71/74/6 10/75/7 11/76/8
s 3
f 65/177/9 66/178/10 18/179/11 19/180/12
s 4
f 61/93/13 62/94/14 8/95/15 2/96/16
s off
f 22/1/17 21/2/18 23/3/19 24/4/20
f 25/5/21 26/6/22 27/7/23 28/8/24
s 5
f 87/183/25 88/184/26 89/185/27 90/186/28
s 6
f 79/9/29 80/10/30 81/11/31 82/12/32
s 7
f 98/193/33 97/194/34 99/195/35 100/196/36
s 8
f 84/17/37 83/18/38 85/19/39 86/20/40
s off
f 29/59/41 30/56/42 36/55/43 35/60/44
s 9
f 77/100/45 78/105/46 31/106/47 32/101/48
s off
f 32/49/49 31/53/50 33/54/51 34/50/52
s 10
f 34/108/53 33/112/54 73/113/55 74/109/56
s off
f 37/71/57 38/68/58 44/67/59 43/72/60
s 11
f 67/118/61 68/123/62 39/124/63 40/119/64
s off
f 40/61/65 39/65/66 41/66/67 42/62/68
s 12
f 42/126/69 41/130/70 63/131/71 64/127/72
s off
f 45/27/73 46/31/74 48/32/75 47/28/76
f 46/31/77 45/27/78 49/30/79 50/35/80
f 47/28/81 48/32/82 52/36/83 51/34/84
f 50/35/85 49/30/86 51/34/87 52/36/88
f 53/40/89 54/43/90 60/48/91 59/46/92
f 54/43/93 53/40/94 55/39/95 56/44/96
f 56/44/97 55/39/98 57/42/99 58/47/100
f 58/47/101 57/42/102 59/46/103 60/48/104
s 13
f 78/203/105 61/204/106 2/205/107 31/206/108
f 2/205/107 4/209/109 33/210/110 31/206/108
f 4/209/109 72/213/111 73/214/112 33/210/110
f 3/211/113 1/207/114 29/208/115 35/212/116
s 14
f 68/215/117 69/216/118 6/217/119 39/218/120
f 6/217/119 8/221/121 41/222/122 39/218/120
f 8/221/121 62/225/123 63/226/124 41/222/122
f 7/223/125 5/219/126 37/220/127 43/224/128
s 15
f 2/25/129 8/26/130 45/27/131 47/28/132
f 8/26/130 6/29/133 49/30/134 45/27/131
f 6/29/133 4/33/135 51/34/136 49/30/134
f 4/33/135 2/25/129 47/28/132 51/34/136
s 16
f 7/37/137 1/38/138 55/39/139 53/40/140
f 1/38/138 3/41/141 57/42/142 55/39/139
f 3/41/141 5/45/143 59/46/144 57/42/142
f 5/45/143 7/37/137 53/40/140 59/46/144
s 17
f 76/99/145 77/100/146 32/101/147 14/102/148
s off
f 32/49/149 34/50/150 15/51/151 14/52/152
s 18
f 34/108/153 74/109/154 75/110/155 15/111/156
s off
f 36/55/157 30/56/158 13/57/159 16/58/160
s 19
f 66/117/161 67/118/162 40/119/163 18/120/164
s off
f 40/61/165 42/62/166 19/63/167 18/64/168
s 20
f 42/126/169 64/127/170 65/128/171 19/129/172
s off
f 44/67/173 38/68/174 17/69/175 20/70/176
f 48/135/177 46/136/178 21/137/179 22/138/180
f 46/227/181 50/228/182 23/229/183 21/230/184
f 50/139/185 52/140/186 24/141/187 23/142/188
f 52/231/189 48/232/190 22/233/191 24/234/192
f 54/143/193 56/144/194 26/145/195 25/146/196
f 56/235/197 58/236/198 27/237/199 26/238/200
f 58/147/201 60/148/202 28/149/203 27/150/204
f 60/239/205 54/240/206 25/241/207 28/242/208
s 4
f 7/97/209 62/94/14 61/93/13 1/98/210
s 14
f 63/226/124 62/225/123 7/223/125 43/224/128
s 12
f 64/127/72 63/131/71 43/134/211 44/132/212
s 20
f 65/128/171 64/127/170 44/132/213 20/133/214
s 3
f 17/181/215 66/178/10 65/177/9 20/182/216
s 19
f 38/121/217 67/118/162 66/117/161 17/122/218
s 11
f 38/121/219 37/125/220 68/123/62 67/118/61
s 14
f 5/219/126 69/216/118 68/215/117 37/220/127
s 7
f 99/195/35 97/194/34 101/197/221 102/198/222
s 21
f 9/77/223 71/74/224 70/73/225 12/78/226
s 5
f 91/187/227 88/184/26 87/183/25 92/188/228
s 13
f 73/214/112 72/213/111 3/211/113 35/212/116
s 10
f 74/109/56 73/113/55 35/116/229 36/114/230
s 18
f 75/110/155 74/109/154 36/114/231 16/115/232
s 1
f 13/175/233 76/172/2 75/171/1 16/176/234
s 17
f 30/103/235 77/100/146 76/99/145 13/104/236
s 9
f 30/103/237 29/107/238 78/105/46 77/100/45
s 13
f 1/207/114 61/204/106 78/203/105 29/208/115
s 22
f 4/151/239 6/152/240 80/153/241 79/154/242
s 7
f 98/193/33 100/196/36 103/199/243 104/200/244
s 2
f 11/76/8 10/75/7 82/81/245 81/82/246
s 5
f 90/186/28 89/185/27 93/189/247 94/190/248
s 23
f 5/163/249 3/165/250 83/169/251 84/167/252
s 5
f 91/187/227 92/188/228 95/191/253 96/192/254
s 21
f 9/77/223 12/78/226 86/87/255 85/88/256
s 7
f 102/198/222 101/197/221 105/201/257 106/202/258
s 22
f 72/161/259 4/151/239 89/158/260 88/162/261
s 2
f 10/75/7 71/74/6 87/79/262 90/80/263
s 23
f 3/165/250 72/161/264 88/162/265 91/166/266
s 21
f 71/74/224 9/77/223 92/85/267 87/79/268
s 22
f 4/151/239 79/154/242 93/157/269 89/158/260
s 6
f 79/9/29 82/12/32 94/15/270 93/16/271
s 2
f 82/81/245 10/75/7 90/80/263 94/89/272
s 21
f 9/77/223 85/88/256 95/91/273 92/85/267
s 8
f 85/19/39 83/18/38 96/21/274 95/22/275
s 23
f 83/169/251 3/165/250 91/166/266 96/170/276
s 22
f 6/152/240 69/159/277 97/160/278 98/155/279
s 2
f 70/73/5 11/76/8 100/83/280 99/84/281
s 23
f 69/159/282 5/163/249 101/164/283 97/160/284
s 21
f 12/78/226 70/73/225 99/84/285 102/86/286
s 2
f 11/76/8 81/82/246 103/90/287 100/83/280
s 6
f 81/11/31 80/10/30 104/13/288 103/14/289
s 22
f 80/153/241 6/152/240 98/155/279 104/156/290
s 23
f 5/163/249 84/167/252 105/168/291 101/164/283
s 8
f 84/17/37 86/20/40 106/23/292 105/24/293
s 21
f 86/87/255 12/78/226 102/86/286 106/92/294
